<svg width="103" height="117" viewBox="0 0 103 117" fill="none" xmlns="http://www.w3.org/2000/svg">
<g clip-path="url(#clip0_85_1348)">
<path d="M73.3954 93H34.581C34.4769 92.7943 34.3828 92.708 34.1813 92.6582L34.1746 89.0183H42.8093L42.9806 88.4343C43.0377 88.4111 43.2258 88.3812 43.2325 88.3182L43.2527 88.0062L43.2695 87.7441C43.2728 87.6778 43.4844 87.6844 43.5852 87.6778V87.0141L43.9177 86.9544L43.9546 86.105L44.2535 85.9424L44.2602 85.3982L44.5155 85.3518C44.5826 85.3385 44.5994 85.1693 44.5994 85.093V84.7844L44.8983 84.5687L44.9689 83.7491L45.2241 83.6861C45.2913 83.6695 45.2644 83.4704 45.2678 83.3974L45.2812 83.122C45.2846 83.0523 45.4995 83.0556 45.6003 83.049L45.607 82.1233L45.963 82.0602L45.9193 81.3966H10.7321L10.675 81.1311C10.6616 81.0681 10.4869 81.0482 10.403 81.0349C10.3089 80.879 10.2182 80.7661 9.99658 80.6965V24.6802C10.2518 24.5641 10.6884 24.2256 10.8127 24H97.2913C97.3316 24.219 97.4626 24.3086 97.6204 24.3484L97.6977 24.5674C97.7178 24.6304 97.8723 24.6371 97.9999 24.6503V80.7197L97.7313 80.7695C97.6809 80.7794 97.6708 80.8956 97.654 81.0051L97.3786 81.1212L97.3215 81.3435C97.3047 81.4065 97.157 81.3933 97.0092 81.3933H62.0705L62.057 82.027L62.3559 82.1299L62.4466 82.9694C62.9571 83.1817 62.5138 83.6496 63.0377 83.7657L63.1049 84.5787C63.1116 84.6384 63.3366 84.655 63.3601 84.7147C63.387 84.7877 63.4004 84.9271 63.4105 85.0531L63.4273 85.3186C63.4307 85.3883 63.6456 85.3816 63.7329 85.3883L63.7564 85.9922L64.0218 86.0353C64.2099 86.0652 63.8471 86.8515 64.3946 87.0473L64.4718 87.6313C64.9957 87.7607 64.5121 88.3281 65.026 88.4409L65.1402 89.015H73.8219L73.8186 92.6616C73.5936 92.6981 73.4962 92.7843 73.3988 92.9967L73.3954 93ZM92.2972 75.7558V29.6375H15.7229V75.7658L92.2972 75.7624V75.7558Z" fill="#4D6D89"/>
<path d="M65.7482 61.1528L65.0832 61.1428L65.0194 61.478L64.1495 61.5012C64.1394 61.5742 64.1495 61.8098 64.0823 61.8098L63.7431 61.8197L63.4745 61.8297C63.4073 61.8297 63.3972 62.0155 63.3871 62.1084L62.4803 62.188L62.3661 62.4833C62.3393 62.553 62.0975 62.4966 62.084 62.4236L62.0336 62.1714C62.0202 62.1051 61.8389 62.1051 61.728 62.0984V59.1785L62.0437 59.1354C62.1075 59.1254 62.131 58.9297 62.1579 58.8699L62.9304 58.787L63.0983 58.5215L63.4006 58.5049C63.5987 58.495 63.7163 58.4518 63.8002 58.1997L64.3813 58.1399L64.5458 57.8612L65.3888 57.8148L65.456 57.4929L66.1344 57.5095L66.1714 57.1777L67.0311 57.1312L67.1554 56.9122C67.189 56.8525 67.3502 56.8393 67.4342 56.8393L67.7129 56.8326C67.7801 56.8326 67.7902 56.6335 67.8036 56.534L68.7104 56.461L68.7876 56.2154C68.8414 56.0495 69.4291 56.3614 69.5198 55.9002L70.1378 55.8272L70.2083 55.512L71.1285 55.4987L71.1722 55.23C71.1823 55.1603 71.3939 55.1669 71.4644 55.1669L71.7431 55.1603C71.8103 55.1603 71.8204 54.9579 71.8305 54.8849L72.7171 54.792C72.8414 54.2644 73.4123 54.7688 73.55 54.2246L74.4132 54.1416L74.5206 53.8463L75.1588 53.8397L75.2024 53.561C75.2125 53.4946 75.4308 53.5145 75.5013 53.5112L75.7834 53.5012C75.854 53.5012 75.8506 53.2856 75.8573 53.1927L76.6735 53.1495L76.8548 52.967L76.6197 52.8443C76.5593 52.8144 76.5425 52.685 76.5156 52.5357L75.8708 52.4892L75.8137 52.2138C75.8002 52.1474 75.6222 52.1707 75.4946 52.184C75.3233 52.2039 75.1756 52.0711 75.105 51.8886L74.2318 51.8289L74.2016 51.5004L73.5164 51.517L73.4425 51.1885L72.6063 51.1553L72.4451 50.86H71.8338L71.7465 50.5581C71.7096 50.4386 71.105 50.714 71.0311 50.2296L70.1478 50.1533L70.0907 49.9044C70.0773 49.8414 69.8724 49.8646 69.8053 49.8613L69.4459 49.848C69.3754 49.848 69.3855 49.6157 69.3754 49.5361L68.4451 49.5228L68.3981 49.2541C68.3846 49.1844 68.1831 49.1877 68.1092 49.1877H67.8305C67.7633 49.1877 67.7566 48.9952 67.7465 48.8924L67.105 48.8625C67.0815 48.763 67.0614 48.5705 66.9908 48.5672L66.5844 48.5407C66.2721 48.5208 66.121 48.5274 65.9967 48.2321L65.1504 48.1724L65.0698 47.8737L64.4216 47.8671L64.3779 47.5917C64.3678 47.522 64.1562 47.5386 64.0857 47.5386H63.8002C63.7297 47.532 63.7297 47.3196 63.7263 47.2267L62.8666 47.1703L62.6953 46.9015L62.1008 46.8352L62.0404 46.573C62.0269 46.51 61.8489 46.5067 61.7381 46.4967V43.5867L62.0135 43.5536C62.0807 43.5436 62.0874 43.3644 62.0907 43.2616C62.0907 43.245 62.3292 43.1886 62.3393 43.2383L62.4098 43.5635H63.0647L63.1285 43.8787L63.9883 43.9418L64.1462 44.194C64.1965 44.2736 64.6936 44.1774 64.7205 44.2437L64.8313 44.5258L65.728 44.6021L65.7851 44.8642C65.8086 44.9671 66.3258 44.8543 66.3561 44.9273L66.4736 45.2126L67.0882 45.2226L67.1588 45.5544L68.0857 45.5643L68.126 45.8331C68.1462 45.9758 68.6164 45.7302 68.838 46.1848L69.7347 46.2678C69.8187 46.7091 70.3426 46.5 70.3863 46.6029L70.5072 46.8816L71.0916 46.8949L71.2562 47.1869L72.1159 47.2234L72.1596 47.4988C72.1697 47.5651 72.3745 47.5486 72.4451 47.5486L72.7339 47.5552C72.8044 47.5552 72.8011 47.751 72.8011 47.8704L73.4661 47.8903L73.5668 48.189L74.3762 48.242L74.5475 48.5141L74.8431 48.5473C74.9102 48.5539 75.0916 48.5374 75.1252 48.5938L75.2897 48.8625C75.5551 48.8459 75.8607 48.8658 75.9178 49.1811L76.7876 49.2242L76.8313 49.4963C76.8414 49.5626 77.0429 49.5461 77.1168 49.5461H77.4795C77.55 49.5461 77.54 49.785 77.55 49.848L78.3997 49.9177C78.6348 50.4552 79.0748 49.9509 79.3133 50.505C79.6021 50.5149 79.8674 50.5216 79.948 50.8401L80.8078 50.8965L80.885 51.1387C80.9052 51.1985 81.0563 51.1952 81.2175 51.1985L81.2243 54.4834L80.6768 54.5564C80.6197 54.573 80.5593 54.7522 80.5324 54.8484L79.9043 54.8816L79.8473 55.1337C79.8338 55.1968 79.629 55.1802 79.5651 55.1835L79.2797 55.2034C79.2091 55.2067 79.2091 55.4091 79.2024 55.5087L78.2755 55.5286L78.2016 55.8405L77.597 55.9168C77.4996 56.1126 77.3888 56.1856 77.2444 56.1856H76.8951C76.8279 56.1856 76.8078 56.3747 76.7809 56.4776L75.8741 56.5473L75.8204 56.816C75.807 56.8824 75.5987 56.8525 75.5316 56.8592L75.2562 56.8791C75.189 56.8824 75.1688 57.0582 75.1453 57.1545L74.5206 57.181L74.4467 57.4996L73.5232 57.5195L73.4728 57.7783C73.4392 57.9409 72.9421 57.6754 72.7776 58.1532L72.1764 58.1698L72.0689 58.4883L71.2159 58.5315L71.1151 58.8533H70.4803L70.4232 59.1188C70.4098 59.1851 70.1982 59.1619 70.131 59.1686L69.8523 59.1852C69.7818 59.1885 69.7851 59.3975 69.775 59.4904L68.8481 59.5103L68.7675 59.8189L68.173 59.9019C68.0689 60.0943 67.9581 60.1607 67.8069 60.164L67.4644 60.1706C67.4006 60.1706 67.3771 60.3531 67.3502 60.4527L66.5072 60.5423C66.4871 60.6252 66.4635 60.811 66.4031 60.8143L66.0874 60.8376L65.8187 60.8575C65.765 60.8608 65.765 61.0002 65.7549 61.1561L65.7482 61.1528Z" fill="#4D6D89"/>
<path d="M44.3041 61.8198L43.9716 61.8065C43.9011 61.8065 43.9112 61.5842 43.9078 61.4946L42.9674 61.4813L42.9003 61.1495L42.2789 61.1396L42.205 60.8974C42.1849 60.8343 41.9901 60.8244 41.9128 60.8277H41.6341C41.5636 60.8277 41.5602 60.6286 41.5501 60.5257L40.64 60.4527C40.6131 60.3499 40.5929 60.174 40.5291 60.1674L40.2134 60.1441L39.9481 60.1276C39.8809 60.1242 39.8776 59.9185 39.8641 59.8389L38.9406 59.8123L38.8935 59.5403C38.8835 59.4739 38.6887 59.4938 38.6081 59.4905H38.2487C38.1782 59.4872 38.1815 59.2682 38.1748 59.1719L37.5669 59.1487L37.5199 58.8999C37.5065 58.8335 37.3184 58.8368 37.2344 58.8335L36.9053 58.8202C36.8415 58.8202 36.8213 58.6311 36.7978 58.5349L35.9615 58.4552L35.8843 58.213C35.8306 58.0405 35.2428 58.359 35.1253 57.8779L34.5308 57.8281L34.4603 57.4996H33.54L33.493 57.2242C33.483 57.1579 33.2848 57.1579 33.2109 57.1579H32.9254C32.8549 57.1579 32.8516 56.982 32.8415 56.8559L32.1832 56.836L32.0825 56.5307L31.2193 56.4644L31.132 56.2155C31.085 56.0828 30.5879 56.2221 30.5308 56.1326L30.3696 55.8804L29.5132 55.8207L29.4695 55.5552C29.4594 55.4888 29.2546 55.5021 29.184 55.5021L28.8952 55.4955C28.8247 55.4955 28.8247 55.2898 28.818 55.1869L28.1731 55.157L28.0959 54.9181C28.0757 54.8551 27.8843 54.8485 27.8104 54.8485H27.5283C27.4611 54.8485 27.4544 54.6494 27.4443 54.5498L26.8096 54.4669V51.235L27.0816 51.1819C27.1421 51.1687 27.1589 50.9862 27.1756 50.9099L28.069 50.817C28.1899 50.2728 28.687 50.797 28.9355 50.2496C29.1941 50.1898 29.4897 50.2296 29.5703 49.9111L30.4368 49.8447L30.4804 49.576C30.4905 49.5096 30.6887 49.5328 30.7626 49.5328L31.1253 49.5262C31.1924 49.5262 31.1891 49.3039 31.1958 49.2243L32.0657 49.1612L32.2302 48.8825L32.818 48.8659L32.8952 48.627C32.9523 48.4478 33.5098 48.7199 33.5736 48.2388L34.467 48.1625C34.4905 48.0795 34.5107 47.9003 34.5745 47.897L34.8935 47.8738L35.1555 47.8539C35.2227 47.8472 35.2193 47.6415 35.2327 47.5519H35.9145L35.9448 47.2732C35.9649 47.104 36.7542 47.4159 36.9019 46.895L37.5233 46.8817L37.577 46.6328C37.6173 46.4503 38.2453 46.7556 38.3192 46.2546L39.1454 46.1716C39.1689 46.0887 39.1891 45.9128 39.2529 45.9062L39.5652 45.8829L39.8406 45.863C39.9112 45.8564 39.9078 45.6639 39.9112 45.5578L40.8482 45.5478L40.9154 45.2193L41.4997 45.1729L41.6576 44.9273C41.7113 44.8444 42.1983 44.9439 42.2252 44.8775L42.3427 44.6088L43.1622 44.5092L43.2495 44.2703C43.31 44.1077 43.9179 44.423 43.9783 43.9452L44.8448 43.8755L44.9254 43.547L45.5904 43.5569L45.6307 43.2815C45.6408 43.2119 45.8793 43.2119 45.9464 43.2351C45.98 43.3811 46.0673 43.5138 46.2655 43.6133L46.2789 45.5146L46.0035 45.5943C45.9565 45.6075 45.9565 45.7967 46.0035 45.8132L46.242 45.9028C46.289 46.0289 46.289 46.3441 46.2521 46.4736L45.9968 46.5366C45.933 46.5532 45.9498 46.7158 45.9565 46.8717L45.2949 46.885C45.1908 47.1836 44.9657 47.2069 44.65 47.2135L44.3713 47.2201C44.2974 47.2201 44.3075 47.4557 44.3142 47.5486L43.629 47.532L43.572 47.8672C42.5275 47.761 42.6752 48.2454 42.2789 48.2122C42.0606 48.1923 41.9565 48.2653 41.8625 48.4976L41.006 48.5706L40.9019 48.8725L40.2605 48.8925L40.2034 49.1546C40.1798 49.2574 39.6458 49.1546 39.6291 49.2176L39.5451 49.5229L38.6316 49.5494L38.5778 49.8082C38.5644 49.8746 38.3864 49.868 38.2991 49.8713L37.9699 49.8846C37.9061 49.8846 37.8793 50.0803 37.8558 50.15L36.9691 50.2429C36.8381 50.7805 36.3411 50.2728 36.0992 50.8103C35.8373 50.88 35.5283 50.8103 35.4678 51.1687L34.598 51.2052L34.5543 51.4773C34.5442 51.5436 34.3528 51.5237 34.2688 51.5237H33.9128C33.8423 51.5237 33.849 51.7527 33.839 51.829L32.9725 51.892L32.8146 52.1475C32.7609 52.2338 32.2605 52.1342 32.2369 52.194L32.1328 52.476L31.1857 52.5523V53.1297L32.1395 53.1927L32.2034 53.5179L32.8583 53.5079L32.9019 53.7833C32.912 53.853 33.1236 53.8464 33.2008 53.8464H33.4796C33.5468 53.8464 33.5468 54.0587 33.5568 54.145L34.4939 54.1881C34.6484 54.7356 35.1689 54.2777 35.2764 54.792L36.1463 54.8617L36.2302 55.1604L36.8885 55.1703L36.9355 55.449C36.9456 55.5187 37.1639 55.4988 37.2344 55.4988L37.5165 55.5054C37.5871 55.5054 37.5804 55.7344 37.5871 55.814L38.4569 55.8638C38.5039 55.9667 38.5442 56.1226 38.6148 56.1292L38.9372 56.1525L39.2025 56.1624C39.2697 56.1624 39.273 56.3748 39.2898 56.4577L40.1933 56.5241L40.2772 56.7796C40.2974 56.8393 40.4653 56.8393 40.5493 56.826C40.8247 56.7862 40.9422 56.8791 41.0396 57.128L41.8961 57.1678L41.9431 57.4399C41.9531 57.5063 42.158 57.493 42.2319 57.4897H42.5946C42.6652 57.4863 42.645 57.7352 42.6551 57.7916L43.5182 57.8646C43.6391 58.1367 43.8306 58.2097 44.1563 58.14C44.2537 58.3922 44.3847 58.5813 44.734 58.4353C44.8482 58.505 44.9288 58.5846 45.0564 58.7671L45.9229 58.8501L45.9834 59.0923C46.0002 59.1554 46.205 59.1653 46.2789 59.1885V59.7626C46.2789 59.7957 46.1009 59.8223 46.0673 59.8157C46.017 59.809 45.9968 60.0048 46.0371 60.0346L46.3058 60.2437C46.3864 60.3067 46.1782 60.5689 46.0539 60.5523C46.0371 60.5589 45.9699 60.7646 46.0203 60.7812L46.2924 60.8708V62.0852L45.9296 62.4602L45.3385 62.4436L45.2747 62.1251L44.6198 62.1151L44.5728 61.8497C44.5661 61.8032 44.4082 61.8065 44.331 61.8032L44.3041 61.8198Z" fill="#4D6D89"/>
<path d="M48.4113 67.4539C48.3811 67.4207 48.287 67.1851 48.3206 67.1785L48.6162 67.1088L48.6397 66.1831L48.9587 66.0205L48.9823 64.899L49.2812 64.7397L49.3013 63.5219L49.6372 63.4489V62.4701L49.973 62.3905L50.0032 61.2557L50.3022 61.0931V60.1906L50.638 60.0645L50.6548 58.9197L50.9873 58.8036V57.5593L51.3097 57.4797L51.3164 56.5108L51.659 56.4278L51.6523 55.5452L51.9881 55.4623L52.0083 54.2545L52.3105 54.0919L52.3374 52.9704L52.6598 52.8111V51.9351L52.9823 51.7725L53.0192 50.6477L53.3114 50.4917L53.3349 49.5892L53.6707 49.5195V48.2222L54.0066 48.1425L54.0335 47.0077L54.3324 46.8451L54.3525 45.9692L54.6716 45.8099L54.685 44.6784L55.0041 44.5225L55.0276 43.6432L55.3299 43.4839L55.35 42.2662L55.6859 42.1932V41.2143L56.0217 41.1281L56.0419 39.9966L56.3475 39.834L56.3542 38.9348L56.6833 38.8087L56.7001 37.936L59.4642 37.9427C59.5179 37.9427 59.6691 37.9526 59.6724 37.9858L59.706 38.1982C59.7127 38.2479 59.5515 38.2413 59.397 38.2313L59.35 39.5055C58.722 39.6581 59.3735 40.4445 58.7119 40.6171L58.7018 41.503L58.376 41.6656L58.3592 42.8568L58.0637 43.0161L58.0335 44.1641L57.701 44.2338V45.216L57.3685 45.2923L57.345 46.4271L57.036 46.5897V47.5287L56.7001 47.605L56.6901 48.8393C55.9881 49.0086 56.7035 49.8613 56.0486 50.0173L56.015 51.1686L55.6825 51.2383V52.476L55.3467 52.5191L55.3399 53.4979L55.0209 53.5776L55.0007 54.7953L54.6716 54.9546V55.8339L54.3458 55.9965L54.3223 57.1147L54.0268 57.2773L53.9999 58.4154L53.6607 58.495L53.6674 59.4573L53.3282 59.5535L53.308 60.7679L52.9957 60.9272L53.0058 61.8098L52.6666 61.9492L52.6498 63.0873L52.3408 63.2432L52.3072 64.1225L52.0116 64.2818L51.9848 65.4299L51.6489 65.5029V66.7372L51.3097 66.8036L51.2963 67.4705L48.4046 67.4605L48.4113 67.4539Z" fill="#4D6D89"/>
</g>
<defs>
<clipPath id="clip0_85_1348">
<rect width="88" height="69" fill="white" transform="translate(10 24)"/>
</clipPath>
</defs>
</svg>
