<svg width="113" height="113" viewBox="0 0 113 113" fill="none" xmlns="http://www.w3.org/2000/svg">
<path d="M50.369 47.1839L38.3219 35.1368C35.3315 32.1464 35.3315 27.2803 38.3219 24.2899L50.369 12.2428C53.3594 9.2524 58.2255 9.2524 61.2159 12.2428L73.263 24.2899C76.2534 27.2803 76.2534 32.1464 73.263 35.1368L61.2159 47.1839C58.2255 50.1743 53.3594 50.1743 50.369 47.1839ZM57.1809 16.2778C56.4151 15.512 55.1698 15.512 54.404 16.2778L42.3569 28.3249C41.5911 29.0907 41.5911 30.336 42.3569 31.1018L54.404 43.1489C55.1698 43.9147 56.4151 43.9147 57.1809 43.1489L69.228 31.1018C69.9938 30.336 69.9938 29.0907 69.228 28.3249L57.1809 16.2778Z" fill="#4D6D89"/>
<path d="M77.8631 74.6781L65.816 62.631C62.8256 59.6406 62.8256 54.7744 65.816 51.784L77.8631 39.7369C80.8535 36.7465 85.7197 36.7465 88.7101 39.7369L100.757 51.784C103.748 54.7744 103.748 59.6406 100.757 62.631L88.7101 74.6781C85.7197 77.6685 80.8535 77.6685 77.8631 74.6781ZM84.675 43.772C83.9093 43.0062 82.664 43.0062 81.8982 43.772L69.8511 55.8191C69.0853 56.5849 69.0853 57.8302 69.8511 58.5959L81.8982 70.643C82.664 71.4088 83.9093 71.4088 84.675 70.643L96.7221 58.5959C97.4879 57.8302 97.4879 56.5849 96.7221 55.8191L84.675 43.772Z" fill="#4D6D89"/>
<path d="M24.2899 73.2626L12.2428 61.2154C9.2524 58.2251 9.2524 53.3589 12.2428 50.3685L24.2899 38.3214C27.2803 35.331 32.1464 35.331 35.1368 38.3214L47.1839 50.3685C50.1743 53.3589 50.1743 58.2251 47.1839 61.2154L35.1368 73.2626C32.1464 76.2529 27.2803 76.2529 24.2899 73.2626ZM31.1018 42.3564C30.336 41.5907 29.0907 41.5907 28.3249 42.3564L16.2778 54.4036C15.512 55.1693 15.512 56.4146 16.2778 57.1804L28.3249 69.2275C29.0907 69.9933 30.336 69.9933 31.1018 69.2275L43.1489 57.1804C43.9147 56.4146 43.9147 55.1693 43.1489 54.4036L31.1018 42.3564Z" fill="#4D6D89"/>
<path d="M51.784 100.757L39.7369 88.7096C36.7465 85.7192 36.7465 80.853 39.7369 77.8627L51.784 65.8155C54.7744 62.8252 59.6406 62.8252 62.631 65.8155L74.6781 77.8627C77.6685 80.853 77.6685 85.7192 74.6781 88.7096L62.631 100.757C59.6406 103.747 54.7744 103.747 51.784 100.757ZM58.5959 69.8506C57.8302 69.0848 56.5849 69.0848 55.8191 69.8506L43.772 81.8977C43.0062 82.6635 43.0062 83.9088 43.772 84.6745L55.8191 96.7217C56.5849 97.4874 57.8302 97.4874 58.5959 96.7217L70.643 84.6745C71.4088 83.9088 71.4088 82.6635 70.643 81.8977L58.5959 69.8506Z" fill="#4D6D89"/>
</svg>
