<svg width="113" height="113" viewBox="0 0 113 113" fill="none" xmlns="http://www.w3.org/2000/svg">
<g clip-path="url(#clip0_85_1386)">
<path d="M79.5501 8.99976L79.5278 9.35218L80.5802 9.41896C80.6732 9.58961 80.8591 9.76026 80.993 9.75284L81.3351 9.738C81.4095 9.738 81.4169 9.97172 81.4206 10.0719L82.0677 10.1535L82.1681 10.4132C82.1941 10.4762 82.3689 10.5022 82.4618 10.5319C82.5399 10.7359 82.8746 10.8695 83.1052 10.8695L83.2353 11.1626C83.2688 11.2442 83.5663 11.1997 83.5849 11.2627L83.6555 11.5224L83.9456 11.6522L84.046 11.9305L84.3212 12.064L84.4439 12.6428C84.786 12.8468 85.1207 13.1844 85.117 13.4775C85.117 13.7186 85.2174 13.8336 85.4777 13.867L85.4925 14.9094L85.8681 14.9836V16.7013L86.2474 16.7866V57.9466L85.5372 57.9725L85.4702 57.6795C85.4554 57.609 85.2917 57.583 85.1839 57.5608L85.0723 57.238L84.4253 57.2195L84.2877 56.9004C84.2431 56.7965 83.7113 56.8744 83.6964 56.8151L83.6035 56.4812L82.9453 56.4552L82.8895 56.1659C82.8746 56.0954 82.6552 56.1214 82.5846 56.1176L82.1829 56.0991C82.1086 56.0991 82.116 55.8468 82.1086 55.7504L81.0673 55.7355L80.9855 55.3683L79.948 55.3609C79.8997 54.9713 79.6133 54.9231 79.1745 55.0047V16.4342L78.8808 16.3711C78.8101 16.3562 78.7952 16.167 78.7766 16.0595L78.1482 16.0409L78.0701 15.6774H17.8352C17.8352 15.8554 17.8427 16.0112 17.7906 16.0187L17.4708 16.0817L17.3815 16.3191C17.3555 16.3859 17.1733 16.4119 17.1101 16.4453C17.0469 16.4787 17.1101 16.7569 17.0394 16.7755L16.6936 16.8682V91.6759L16.9911 91.7389C17.1324 91.7686 17.0134 92.0914 17.1435 92.3659C17.2105 92.5106 17.7125 92.4512 17.7199 92.5143L17.772 92.8482H80.3905H81.3648C81.3834 92.9595 81.3871 93.119 81.4355 93.1412L81.7144 93.2674L81.8036 93.5085L82.0751 93.6421L82.1606 93.8758L82.4321 94.013C82.5436 94.1355 82.6961 94.2764 82.8337 94.3766L82.949 94.5843C82.9824 94.6474 83.1758 94.6808 83.1981 94.7401L83.2985 95.0147L83.5774 95.1371L83.6667 95.3782L84.0051 95.4858V96.2129L83.6853 96.2575C83.6295 96.2649 83.6295 96.4392 83.6295 96.5097L83.6221 96.9029C83.6221 96.9809 83.358 96.9623 83.2762 96.9697L83.2316 97.6152C83.1386 97.6338 82.9899 97.6449 82.9713 97.6968L82.8449 97.9973L82.5399 98.0567L82.4395 98.3535L82.1792 98.4277L82.0714 98.7467L81.4318 98.7875C81.4057 98.9062 81.3239 99.1288 81.2384 99.1325L80.4798 99.1696C80.3943 99.1733 80.2939 99.3774 80.2567 99.5295H16.7531C16.4816 99.5295 16.3552 99.4479 16.2734 99.177L15.221 99.1214L15.1578 98.8172C15.1355 98.7022 14.5405 98.8172 14.5219 98.7504L14.4252 98.424L13.7633 98.3906C13.7558 98.283 13.7558 98.0752 13.6852 98.0641L13.3691 98.0048L13.3059 97.7414L13.0121 97.6226L12.9191 97.3926L12.6477 97.2628L12.5659 97.0217L12.2647 96.9067L12.2089 96.595L11.9188 96.4875L11.8259 96.2463L11.5209 96.1276L11.428 95.4969C11.3387 95.4747 11.1937 95.4487 11.1751 95.4005L11.071 95.126C10.8218 94.9813 10.7326 94.7921 10.7251 94.4768L10.714 94.0984C10.714 94.0205 10.528 93.9982 10.3942 93.9722L10.3607 92.8667L10 92.8222V15.6774L10.3719 15.6254L10.3867 14.5978L10.7103 14.4643C10.7921 14.4309 10.6619 13.8633 10.7809 13.841L11.0821 13.7854L11.1491 13.125C11.2681 13.0991 11.4689 13.0805 11.4763 13.0063L11.4986 12.6428C11.5023 12.5611 11.5098 12.4202 11.5618 12.3979C11.6139 12.3757 11.7998 12.3831 11.811 12.3311L11.8854 12.0195C11.9002 11.9527 12.1308 11.9676 12.1605 11.9045L12.3019 11.63L12.5398 11.5447L12.6663 11.2701C12.6886 11.2219 12.8671 11.2145 12.9043 11.1811C12.9563 11.1329 12.9489 10.914 13.0158 10.8992L13.317 10.8287L13.436 10.5319C13.4732 10.4391 13.9976 10.6617 14.1872 10.1498L14.7971 10.0756C14.8082 9.99027 14.8082 9.75284 14.8789 9.74913L15.1838 9.74171C15.2582 9.74171 15.4813 9.738 15.5036 9.66752L15.5929 9.40041L16.6862 9.37444V9.01089H79.5427L79.5501 8.99976Z" fill="#4D6D89"/>
<path d="M97.344 104H97.0168V103.618L96.6821 103.514L96.604 103.262L96.3325 103.132C96.2842 103.109 96.2805 102.939 96.2433 102.905C96.1912 102.857 95.9867 102.846 95.9644 102.779L95.8714 102.505C95.7561 102.486 95.5814 102.486 95.5516 102.423L95.4475 102.201L95.0868 101.841C95.0384 101.792 94.8413 101.766 94.8265 101.7L94.7521 101.399C94.6926 101.366 94.4881 101.347 94.462 101.281L94.3728 101.043L94.105 100.91C94.0567 100.887 94.053 100.72 94.0158 100.683C93.9637 100.635 93.7555 100.624 93.7332 100.557L93.6477 100.283C93.5063 100.26 93.3576 100.26 93.3241 100.197L93.2051 99.971L92.8556 99.6037C92.8035 99.5703 92.6139 99.5406 92.5953 99.4701L92.5209 99.1734L92.2234 99.0546L92.1416 98.8135L91.8739 98.68C91.8255 98.6577 91.8218 98.4871 91.7846 98.4537C91.7325 98.4054 91.528 98.3943 91.5057 98.3275L91.4127 98.053C91.3012 98.0345 91.1227 98.0345 91.0929 97.9677L90.9888 97.7451L90.6244 97.3778C90.5723 97.3444 90.3864 97.311 90.3678 97.2443L90.2897 96.9475L89.9922 96.8288L89.9104 96.5876L89.6427 96.4541C89.5943 96.4318 89.5906 96.2649 89.5534 96.2278C89.5013 96.1796 89.2931 96.1684 89.2708 96.1017L89.1815 95.8197C89.0514 95.8049 88.8878 95.8086 88.858 95.7418L88.7539 95.5192L88.3895 95.152C88.3374 95.1186 88.1478 95.0852 88.1329 95.0184L88.0548 94.7216L87.7573 94.6029L87.6792 94.3618L87.4077 94.2282L87.3185 93.9982C87.259 93.9648 87.0619 93.9426 87.0396 93.8758L86.9466 93.6013C86.8313 93.5827 86.6566 93.5827 86.6268 93.5197L86.519 93.2934L86.1583 92.9261C86.1099 92.8927 85.9166 92.863 85.9017 92.7925L85.8273 92.4995L85.5261 92.3808L85.4443 92.1396L85.1765 92.0061C85.1282 91.9838 85.1245 91.8169 85.0873 91.7798C85.0352 91.7315 84.8307 91.7204 84.8084 91.6536L84.7191 91.3791C84.5927 91.3606 84.4328 91.3569 84.3993 91.2938L84.2803 91.0675L83.9308 90.7039C83.8787 90.6705 83.6891 90.6372 83.6705 90.5704L83.5924 90.2736L83.2949 90.1549L83.2131 89.9138L82.9453 89.7802C82.897 89.7579 82.8933 89.591 82.8561 89.5539C82.804 89.5057 82.5958 89.4945 82.5735 89.4278L82.4842 89.1495C82.3578 89.1347 82.1905 89.1347 82.1607 89.0679L82.0566 88.8416L81.6922 88.4744C81.6401 88.441 81.4542 88.4076 81.4356 88.3371L81.3575 88.0403L81.06 87.9216C81.0079 87.8993 81.0191 87.7101 80.9782 87.6768C80.9261 87.6322 80.7216 87.6174 80.703 87.5469L80.6323 87.2798L79.9146 87.2872C79.8998 87.3948 79.8923 87.6026 79.818 87.61L79.5056 87.6322C79.4312 87.6397 79.2081 87.6137 79.1932 87.6842L79.1263 87.9847L78.1706 88.0477L78.0181 88.3853L76.9657 88.4187L76.9025 88.7526L75.1585 88.7674L75.1176 89.1384L71.3357 89.131L71.2539 88.7637L69.2532 88.7378L69.0785 88.4039L68.0967 88.3779L67.9182 88.0329L66.9625 87.9884L66.8473 87.6619C66.8212 87.5877 66.3081 87.7027 66.2448 87.5655L66.1221 87.3021C66.0068 87.2872 65.8098 87.2724 65.7949 87.2019L65.7391 86.9125L65.0735 86.9051L64.9954 86.5601L64.4115 86.4488C64.2628 86.2522 64.1661 86.1891 63.9765 86.1075C63.9541 86.0593 63.8984 85.8775 63.8314 85.8515L63.5488 85.7514C63.5414 85.6623 63.5488 85.4472 63.4782 85.4323L63.1955 85.3767C63.0877 85.1541 62.7716 85.0206 62.4964 85.028L62.396 84.7015C62.3811 84.6496 62.1915 84.6533 62.0985 84.6496L62.013 84.0152L61.7044 83.9002L61.6225 83.6405L61.3288 83.5403L61.2693 83.2287L60.9681 83.11L60.8788 82.8652L60.5888 82.7465C60.5181 82.7168 60.6408 82.1418 60.5218 82.1158L60.2206 82.0453L60.1314 81.4184L59.8301 81.2922C59.7521 81.2588 59.8673 80.758 59.7335 80.6949L59.4732 80.5688C59.4583 80.4538 59.4434 80.2609 59.369 80.2461L59.079 80.1867L59.0715 79.0997L58.7108 79.007L58.6662 77.7271L58.3427 77.5454L58.3315 75.5013L57.9634 75.3195V72.923L58.3427 72.6855V70.686L58.6811 70.5005L58.7108 69.5025L59.079 69.4284V68.3154C59.2128 68.3191 59.4397 68.3303 59.4434 68.2486L59.4583 67.9148C59.4583 67.8406 59.436 67.6217 59.5066 67.6069L59.8041 67.5512L59.8227 66.8983L60.1611 66.7981C60.2615 66.7684 60.1128 66.2602 60.295 66.1749L60.5144 66.071C60.5813 65.8855 60.6892 65.7297 60.8751 65.5962L60.9681 65.0619L61.2804 64.9432L61.366 64.6873L61.6486 64.5648C61.6969 64.5426 61.7006 64.3645 61.7378 64.3274C61.7862 64.2792 61.9721 64.2569 61.9981 64.1976L62.1097 63.9416L62.489 63.5929L62.8757 63.1922L63.1398 63.0587L63.2364 62.8398L63.5153 62.7062L63.6009 62.4651L63.8909 62.339C63.9393 62.3167 63.943 62.1535 63.9504 62.0756L64.5119 61.9717C64.657 61.7862 64.7871 61.6898 64.9805 61.6081L65.133 61.3447C65.1962 61.2335 65.7168 61.3781 65.7503 61.2038L65.806 60.9218L66.4754 60.8847C66.4866 60.792 66.4866 60.5657 66.5609 60.562L66.8621 60.5509C66.9439 60.5509 67.1931 60.5583 67.2043 60.4767L67.2377 60.165L68.3459 60.1725L68.4203 59.8052L69.428 59.7792L69.6102 59.4491L71.9344 59.4268L72.1166 59.0632H74.1693L74.3515 59.4342L76.486 59.4453L76.6645 59.7681L77.9921 59.82C77.9921 59.9239 77.9884 60.1687 78.0627 60.1687H78.4644C78.5499 60.1687 78.7693 60.1539 78.7804 60.2281L78.8214 60.5286L79.5465 60.5657C79.5725 60.6992 79.5948 60.8699 79.6692 60.8773L79.9816 60.9033C80.0708 60.9107 80.2456 60.907 80.2679 60.9738L80.346 61.2409L81.0005 61.3262C81.0154 61.4486 81.0265 61.6601 81.1046 61.6601H81.4133C81.5137 61.6638 81.6996 61.6675 81.7256 61.738L81.8186 61.9717L82.0826 62.109L82.1793 62.3724L82.5177 62.454L82.5809 62.7099L82.8747 62.8324L82.9639 63.0661C82.9825 63.118 83.2168 63.1254 83.2354 63.1959L83.3098 63.463L84.0126 63.5743C83.9494 63.9676 84.1056 64.1605 84.3436 64.2792C84.3547 64.3571 84.3473 64.576 84.4179 64.5945L84.7191 64.6687L84.8456 64.9655L85.0761 65.0508C85.1468 65.2252 85.2844 65.3624 85.4703 65.4441L85.5112 66.1044C85.6302 66.1118 85.8571 66.1081 85.8571 66.1897L85.8645 66.5162C85.8645 66.6015 85.8496 66.8055 85.9203 66.8241L86.1955 66.8946C86.2215 67.1023 86.3182 67.2804 86.5524 67.3286L86.6603 68.2227C87.2813 68.3674 86.6826 69.0129 87.3036 69.1316L87.378 70.1481L87.6866 70.3261L87.7313 71.9881L88.092 72.0437V75.7313L87.7164 75.8092L87.7015 77.8829L87.3557 78.0647L87.3482 79.0701L86.9987 79.2185L86.9503 80.1719C86.8165 80.1867 86.6008 80.1941 86.6008 80.272V80.5837C86.6008 80.6653 86.5971 80.8804 86.5227 80.899L86.2401 80.9621V81.6743C86.3665 81.7077 86.5078 81.73 86.5413 81.793L86.6454 82.0082L86.9132 82.1418L87.0061 82.4163C87.1363 82.4385 87.2999 82.4385 87.3296 82.5053L87.4338 82.7316L87.7982 83.084L88.0622 83.2287L88.1292 83.5218L88.4267 83.6442L88.5122 83.8817L88.7799 84.0152C88.8283 84.0375 88.832 84.2044 88.8729 84.2415C88.925 84.286 89.1258 84.3046 89.1481 84.3676L89.241 84.6422C89.3749 84.6644 89.5348 84.6644 89.5646 84.7312L89.6724 84.9575L90.0331 85.321L90.2971 85.4546L90.3641 85.7514L90.6616 85.8701L90.7471 86.1112L91.0111 86.2448C91.0595 86.267 91.0632 86.434 91.1004 86.4674C91.1524 86.5119 91.3532 86.5304 91.3756 86.5935L91.4722 86.8643C91.5987 86.8903 91.7623 86.8903 91.7958 86.9571L91.8999 87.1834L92.2643 87.5358L92.5283 87.6805L92.5953 87.9772L92.8928 88.0997L92.9746 88.3334L93.246 88.4669L93.339 88.6969C93.3985 88.734 93.5882 88.7563 93.6142 88.8231L93.7109 89.0939C93.841 89.1199 94.0046 89.1199 94.0344 89.1866L94.1385 89.4092L94.5029 89.7728L94.767 89.9063L94.8339 90.2105C94.8451 90.2551 95.0979 90.2662 95.124 90.333L95.2095 90.5593L95.4772 90.6965C95.5256 90.7188 95.5293 90.8857 95.5702 90.9228C95.6223 90.9673 95.8231 90.9859 95.8454 91.0527L95.9421 91.3235C96.0685 91.3494 96.2321 91.3494 96.2656 91.4162L96.3697 91.6388L96.7341 91.9986L96.9982 92.1359L97.0614 92.4327L97.3589 92.5551L97.4444 92.7888L97.7122 92.9224C97.7605 92.9446 97.7642 93.1116 97.8014 93.1487C97.8535 93.1969 98.058 93.2117 98.0803 93.2748L98.1733 93.5493C98.3034 93.5716 98.4633 93.5716 98.4968 93.6384L98.6046 93.8647L98.9616 94.2245C99.0174 94.2616 99.2033 94.2987 99.2219 94.3655L99.2963 94.6586L99.5901 94.7773L99.6756 95.0147L99.9433 95.1482C99.9917 95.1705 99.9917 95.3374 100.033 95.3745C100.085 95.4191 100.289 95.4376 100.311 95.5007L100.404 95.7752C100.531 95.7938 100.695 95.7975 100.728 95.8642L100.836 96.0905L101.197 96.4541C101.245 96.4875 101.438 96.5209 101.453 96.5876L101.528 96.8807L101.825 97.0031L101.907 97.2406L102.175 97.3741C102.223 97.3964 102.227 97.5633 102.264 97.6004C102.316 97.6486 102.524 97.6598 102.546 97.7265L102.636 98.0011L102.978 98.0678C103.048 98.0827 102.993 98.3238 102.929 98.3461L102.691 98.4351L102.569 98.7133L102.282 98.8098L102.189 99.0955C102.175 99.1437 101.974 99.1696 101.937 99.229L101.78 99.4887L101.561 99.5814L101.423 99.8485L101.185 99.9376C101.13 99.9598 101.115 100.175 101.055 100.208L100.847 100.323C100.747 100.483 100.616 100.609 100.457 100.72L100.3 100.976L100.055 101.028L99.9619 101.321L99.7054 101.447L99.5566 101.718L99.3298 101.807L99.1922 102.078L98.9542 102.163L98.8315 102.442L98.6009 102.538L98.4708 102.802L98.2105 102.942C98.151 102.972 98.1324 103.187 98.0654 103.202L97.8237 103.247L97.7382 103.555C97.7196 103.621 97.489 103.625 97.4407 103.644L97.37 103.989L97.344 104ZM75.4857 82.4608L76.553 82.4497C76.5604 82.3273 76.5604 82.1121 76.6385 82.1084L76.9509 82.0861C77.029 82.0787 77.2632 82.1047 77.2781 82.0305L77.3413 81.7448L78.0144 81.6966C78.0441 81.5148 78.0627 81.385 78.1334 81.3664L78.3863 81.3034C78.4532 81.2885 78.4235 81.0622 78.4792 81.0288L78.7284 80.8767C78.9701 80.4761 79.5093 80.6801 79.5205 80.5354L79.5502 80.2275C79.5614 80.1051 79.6915 79.9122 79.8105 79.7972L79.9741 79.5486C80.0113 79.493 80.2084 79.4893 80.2568 79.4485C80.2865 79.3891 80.2754 79.1702 80.3423 79.1517L80.6584 79.0515L80.6881 78.3949C80.822 78.3838 81.0191 78.3726 81.0191 78.2984V77.9905C81.0265 77.9052 81.0116 77.6715 81.0897 77.6604L81.3984 77.6158V76.5956L81.774 76.514L81.7926 74.7185C82.0715 74.6109 82.1793 74.4737 82.1644 74.2066C82.1533 74.0322 82.0417 73.9135 81.8 73.8096L81.7703 71.747L81.4095 71.6505L81.3947 70.6266C81.3017 70.6155 81.0488 70.6192 81.0451 70.5413L81.0265 70.1555C81.0228 70.0664 81.0265 69.8847 80.9596 69.8624L80.6918 69.7771L80.6472 69.1019C80.4613 69.0982 80.3237 69.1019 80.2977 69.0351L80.201 68.8051L79.8254 68.4564L79.5986 68.282L79.4981 68.0112L79.2118 67.8814L79.13 67.644L78.8474 67.5141C78.799 67.4918 78.7916 67.3286 78.7544 67.2952C78.7024 67.2507 78.5164 67.2247 78.4904 67.1617L78.3825 66.8872C78.3045 66.876 78.059 66.8872 78.0479 66.813L78.007 66.5125L77.3525 66.4828L77.2484 66.1563C77.226 66.0821 76.6273 66.2046 76.605 66.0933L76.5418 65.7779L75.5303 65.7371L75.2849 65.3773H71.0679C70.8523 65.3736 70.6924 65.5405 70.5994 65.7297L69.5619 65.8002C69.5433 65.9004 69.5396 66.1267 69.4652 66.1267L69.1789 66.1378C69.0896 66.1378 68.8628 66.1378 68.8367 66.212L68.7438 66.4791L68.0633 66.5125L67.9629 66.8426L67.6951 66.9243L67.5761 67.1988L67.353 67.2989L67.2191 67.5549L66.9402 67.6588C66.8844 67.6773 66.8547 67.8851 66.7915 67.9148L66.5721 68.0186L66.4754 68.3006L66.2225 68.4341L66.0738 68.6975L65.8395 68.7866L65.7168 69.0871C65.6945 69.139 65.5234 69.1279 65.423 69.1279L65.397 69.8401C65.2631 69.8661 65.0883 69.8884 65.0846 69.9626L65.0586 70.2742C65.0511 70.3484 65.0809 70.5673 65.0102 70.5821L64.7053 70.6452L64.657 71.6728C64.4524 71.7655 64.2963 71.9213 64.2963 72.1328V76.1022C64.2963 76.3211 64.4524 76.4806 64.6458 76.5734L64.709 77.601C64.8429 77.6158 65.0512 77.627 65.0549 77.7012V78.0165C65.0623 78.0944 65.0549 78.3207 65.1292 78.3355L65.4119 78.3912L65.4342 79.0478L65.7763 79.1257L65.8321 79.4485L66.1333 79.5672L66.2188 79.8009L66.4828 79.9344L66.5684 80.1682L66.8435 80.2943L66.9588 80.5614C66.9811 80.6096 67.2043 80.6208 67.2452 80.6764L67.3753 80.8656C67.5055 80.9658 67.6319 81.0993 67.736 81.2477L68 81.3813C68.0484 81.4072 68.0558 81.5668 68.067 81.6595L68.714 81.7448C68.7401 81.845 68.7661 82.049 68.8367 82.0527L69.2012 82.0676C69.2904 82.0676 69.4987 82.0676 69.5098 82.1418L69.5544 82.446L70.6663 82.4348L70.7184 82.8207H75.3481L75.4969 82.4497L75.4857 82.4608Z" fill="#4D6D89"/>
<path d="M65.401 30.2011L65.3861 36.8231H23.0231L22.9971 29.7671H64.9956L65.282 29.8302C65.3563 29.8487 65.401 30.0676 65.401 30.2011Z" fill="#4D6D89"/>
<path d="M65.4004 49.4584V56.1212H22.9854L23.0077 49.0652H65.0248L65.0806 49.3545C65.0918 49.4065 65.2256 49.425 65.4004 49.4584Z" fill="#4D6D89"/>
</g>
<defs>
<clipPath id="clip0_85_1386">
<rect width="93" height="95" fill="white" transform="translate(10 8.99976)"/>
</clipPath>
</defs>
</svg>
