<svg width="97" height="97" viewBox="0 0 97 97" fill="none" xmlns="http://www.w3.org/2000/svg">
<path d="M29.3655 10L29.2842 10.3893L30.3879 10.5005C30.5462 10.663 30.7216 10.8127 30.8798 10.9282L31.0124 11.2105C31.0424 11.279 31.2392 11.3218 31.2905 11.3731C31.3333 11.4159 31.3461 11.6212 31.3974 11.6469L31.7183 11.8008C31.7739 11.8265 31.7782 12.0233 31.8338 12.0447L32.1546 12.173C32.2231 12.2029 32.2316 12.4382 32.3001 12.4724L32.6038 12.6307L32.7064 12.9002L33.0358 13.0542L33.1428 13.3023C33.1727 13.3793 33.3738 13.4178 33.4636 13.4648C33.5321 13.499 33.5107 13.7386 33.5748 13.7771L33.8572 13.9353C33.9085 13.9653 33.9085 14.1834 33.9641 14.2091L34.2849 14.3588C34.3363 14.3845 34.3491 14.5855 34.4047 14.6069L34.7256 14.7352C34.7983 14.7652 34.7983 15.0004 34.8667 15.0347L35.1662 15.1929L35.2688 15.4624L35.5897 15.6164L35.6966 15.8731L36.026 16.0313C36.0902 16.0613 36.0731 16.3008 36.1372 16.3393L36.4196 16.4976C36.4752 16.5275 36.4709 16.7457 36.5265 16.7713L36.8473 16.9211C36.8944 16.9424 36.9115 17.1478 36.9671 17.1692L37.2922 17.2975C37.3649 17.3274 37.3607 17.5584 37.4291 17.5969L37.7328 17.7552L37.8312 18.0247L38.1478 18.1787L38.259 18.4353L38.5841 18.5936C38.6526 18.6278 38.6354 18.8631 38.6996 18.9016L38.9819 19.0641C39.0333 19.0941 39.0333 19.3122 39.0889 19.3379L39.4183 19.4919C39.4696 19.5175 39.4739 19.7143 39.5252 19.7357L39.8503 19.864C39.9188 19.8897 39.9231 20.1292 39.9915 20.1634L40.2909 20.3174L40.3979 20.5869L40.7187 20.7409L40.8257 20.9976L41.1465 21.1515C41.2149 21.1858 41.2021 21.4253 41.2663 21.4638L41.5486 21.6221C41.5999 21.652 41.5999 21.8702 41.6556 21.8958L41.9764 22.0498C42.0277 22.0755 42.0406 22.2765 42.0919 22.2979L42.417 22.4263C42.4897 22.4562 42.4897 22.6915 42.5582 22.7257L42.8619 22.884L42.9646 23.1534L43.2854 23.3074L43.4009 23.5555C43.4351 23.6282 43.6191 23.6667 43.7217 23.7181C43.7902 23.748 43.7645 23.9918 43.8329 24.0303L44.1153 24.1886C44.1666 24.2185 44.1666 24.4367 44.2222 24.4624L44.5473 24.6164C44.5987 24.642 44.6072 24.8431 44.6628 24.8645L44.9879 24.9928C45.0607 25.0227 45.0564 25.258 45.1291 25.2922L45.4328 25.4419C45.4927 25.4719 45.4713 25.7114 45.5312 25.7328L45.9205 25.8568V26.6653C45.7879 26.6696 45.6125 26.661 45.5868 26.7166L45.4328 27.0417L45.1804 27.1529L45.0222 27.4566C44.9922 27.5123 44.7698 27.4951 44.7484 27.555L44.6072 27.9015L44.2736 27.9828C44.1966 28.0042 44.1581 28.2223 44.1153 28.2865L43.6961 28.6886L43.4351 28.8212C43.3624 28.8597 43.3624 29.0351 43.3324 29.189L43.0159 29.2917C42.9389 29.3174 42.9047 29.5441 42.8747 29.6211C42.8191 29.6425 42.6394 29.6639 42.6095 29.7195L42.4512 30.0189C42.4213 30.0745 42.1988 30.0617 42.1732 30.1216L42.0363 30.4766L41.7026 30.5493C41.6256 30.5664 41.5828 30.7931 41.5486 30.8487L41.1251 31.2679L40.8642 31.3877C40.7872 31.4219 40.7872 31.6144 40.7658 31.7598L40.4492 31.8668C40.3722 31.8925 40.3551 32.1277 40.2995 32.1876C40.2567 32.2304 40.0728 32.2432 40.0471 32.2945L39.8846 32.5982L39.6193 32.7009C39.5381 32.7308 39.5124 32.9576 39.4824 33.0431L39.1402 33.1244C39.0632 33.1415 39.0247 33.3639 38.9862 33.4195L38.5627 33.8345L38.3018 33.9499C38.2248 33.9842 38.2291 34.228 38.2034 34.3093L37.8826 34.4333C37.8056 34.4633 37.7884 34.6557 37.7628 34.814L36.6249 34.767L36.1672 34.2879L36.0217 34.0826C35.9747 34.0141 35.7779 33.9671 35.6795 33.9328C35.5982 33.9029 35.7137 33.5821 35.6324 33.5564L35.2261 33.4495V31.4305L35.5726 31.315C35.6496 31.2893 35.6795 31.0541 35.7137 30.9856L35.9875 30.8872C36.0645 30.8616 36.0773 30.6006 36.1372 30.575L36.4024 30.4638L36.5693 30.1643C36.7575 30.0488 36.9029 29.8948 37.0142 29.7066L37.2965 29.6254C37.3735 29.604 37.3949 29.3773 37.412 29.3045C37.6259 29.1719 37.7628 29.0436 37.8826 28.8554L38.1264 28.7314C38.1991 28.6971 38.2419 28.5004 38.2847 28.4319C38.3189 28.3806 38.5328 28.3806 38.5584 28.325L38.7082 28.0084L38.9648 27.9015L39.1317 27.6021C39.3199 27.4909 39.4696 27.3326 39.5766 27.1358L39.8674 27.0631C39.9444 27.046 39.9573 26.8749 39.9487 26.7337C39.9359 26.4685 39.7691 26.3274 39.5808 26.1648L39.1231 25.7713L39.0162 25.459C38.9905 25.382 38.7552 25.3692 38.6953 25.3179C38.6483 25.2751 38.6611 25.0612 38.6055 25.0356L38.2804 24.8901L38.182 24.6164L37.8612 24.4838L37.4206 24.0175L37.0013 23.6026L36.5607 23.2005L36.4452 22.8968C36.4153 22.8198 36.1843 22.807 36.1244 22.7513C36.0773 22.7086 36.0902 22.4947 36.0303 22.469L35.7009 22.3236L35.6111 22.0498L35.2817 21.9215L34.8496 21.4424C34.7341 21.3141 34.5416 21.1088 34.3962 21.0874C34.2678 21.0703 34.024 21.0403 33.9983 21.1173L33.8828 21.4553C33.6946 21.5622 33.5321 21.7162 33.4294 21.9044C33.3781 21.9301 33.2027 21.9686 33.1727 22.0242L33.0144 22.3321L32.7449 22.4263L32.5995 22.7471L32.3386 22.854L32.1846 23.1663L31.9279 23.2775L31.7611 23.5897C31.7268 23.6539 31.4659 23.6282 31.4402 23.6967L31.3162 24.0218C31.1279 24.1202 30.9697 24.2742 30.867 24.4666C30.8157 24.4923 30.636 24.5308 30.6103 24.5864L30.4521 24.8944C30.4221 24.95 30.2082 24.9329 30.1826 24.9928L30.0371 25.3179C30.0114 25.3735 29.7804 25.3606 29.7591 25.4205L29.635 25.8098H27.5603L27.5047 25.4462C27.4918 25.3606 27.2223 25.3778 27.1154 25.3735L27.0127 25.0441C26.9871 24.9671 26.7689 24.9158 26.7047 24.8858C26.6149 24.6934 26.4908 24.565 26.2384 24.4624C26.2256 23.902 26.2384 23.1149 26.2727 22.5204C26.478 22.3664 26.6491 22.2124 26.7817 22.0712L27.0341 21.9343C27.1068 21.8958 27.1026 21.6734 27.1496 21.5964C27.1881 21.5322 27.4063 21.5151 27.4405 21.4467L27.5945 21.1473L27.864 21.0446L28.0137 20.7323L28.2875 20.634L28.4372 20.3174C28.4629 20.2618 28.6682 20.2618 28.6939 20.2062L28.8607 19.9025C29.0532 19.7913 29.1987 19.6416 29.3056 19.4405L29.6093 19.3806C29.6906 19.3635 29.6863 19.1069 29.7034 19.0384C29.9088 18.9358 30.0713 18.7818 30.1654 18.5893L30.4264 18.4781C30.5034 18.4481 30.5034 18.1958 30.5804 18.1658L30.8713 18.0632C30.9568 18.0332 30.9697 17.7937 30.9611 17.6996L30.9269 17.336C30.9183 17.2462 30.6403 17.2633 30.5718 17.2077C30.5248 17.1692 30.5376 16.9467 30.4777 16.9211L30.1569 16.7842L29.7163 16.3179L29.3013 15.8987L28.8564 15.5009L28.7538 15.1887C28.7281 15.1117 28.4415 15.1245 28.4201 15.0475L28.3388 14.7523C28.3217 14.6882 28.1506 14.6454 28.0864 14.6668C28.0052 14.6925 27.9752 14.8336 27.9367 15.0518L27.4833 15.1202C27.4662 15.2143 27.4533 15.3854 27.4063 15.4239L27.1453 15.6464L26.7047 16.0185C26.6748 16.0656 26.6277 16.2195 26.5764 16.2538L26.3026 16.4334L25.9048 16.8826C25.8406 16.9553 25.7636 17.0964 25.6909 17.1264L25.3829 17.2633L25.3529 17.6183C25.3444 17.7081 25.0193 17.6654 24.9808 17.6611C24.8439 17.9092 24.7541 18.0418 24.5829 18.2L24.1594 18.6021L23.7402 19.0171L23.321 19.4363L23.1328 19.7015C23.09 19.7656 22.8333 19.7528 22.8248 19.8255L22.7863 20.1763C22.7777 20.2661 22.4612 20.2276 22.4098 20.2276C22.2943 20.4458 22.1703 20.6126 22.0206 20.758L21.5928 21.1644L21.1736 21.5836L20.7543 22.0028L20.5661 22.268C20.5233 22.3321 20.2667 22.315 20.2581 22.392L20.2196 22.7471C20.2111 22.8369 19.8988 22.7984 19.8389 22.7984C19.7362 23.008 19.6079 23.2133 19.4624 23.3331L19.0047 23.7181C18.9791 23.7651 18.9277 23.9191 18.8764 23.9533L18.6026 24.1287L18.2048 24.5992C18.1064 24.7147 17.9011 24.8602 17.7171 24.9586L17.6572 25.3179C17.6444 25.4034 17.3278 25.3649 17.2765 25.3692C17.1738 25.5788 17.0498 25.7798 16.9001 25.9039L16.4423 26.2889C16.4124 26.3359 16.3653 26.4899 16.314 26.5241L16.0359 26.7038L15.6381 27.1658C15.5226 27.3027 15.3558 27.4224 15.1504 27.5294L15.0478 27.94L14.7013 27.9956C14.6371 28.0042 14.62 28.2779 14.6842 28.2993L15.0563 28.4063C15.1162 28.4234 15.0863 28.68 15.1462 28.7014L15.4713 28.8255L15.9076 29.296L16.3268 29.7195L16.7717 30.1173L16.8787 30.4253C16.9043 30.5023 17.1439 30.5108 17.1995 30.5664C17.2466 30.6092 17.2337 30.8273 17.2893 30.8487L17.6187 30.9899L17.7128 31.2679L18.0422 31.3963L18.4743 31.8625L18.8935 32.286L19.3384 32.6838L19.4496 32.9918C19.4753 33.0688 19.7148 33.0773 19.7704 33.1329C19.8175 33.1757 19.8047 33.3939 19.8603 33.4153L20.1854 33.5564L20.2795 33.8345L20.6046 33.9628L21.0409 34.429L21.4602 34.8525L21.9051 35.2503L22.0163 35.5583C22.0419 35.6353 22.2815 35.6439 22.3371 35.6995C22.3842 35.7422 22.3713 35.9604 22.4269 35.9818L22.7563 36.1229L22.8462 36.401L23.1713 36.5293L23.6076 36.9956L24.0226 37.4148L24.4674 37.8126L24.5787 38.1205C24.6043 38.1975 24.8439 38.2061 24.9038 38.2617C24.9508 38.3045 24.9337 38.5184 24.9936 38.544L25.3187 38.6852L25.4128 38.9675L25.7379 39.0958L26.1743 39.5621L26.5935 39.9856L27.0384 40.3834L27.1453 40.6914C27.171 40.7683 27.4106 40.7769 27.4662 40.8282C27.5132 40.871 27.5004 41.0892 27.556 41.1106L27.8854 41.2517L27.9752 41.5298L28.3046 41.6581L28.7367 42.1372C28.8778 42.2954 28.9805 42.381 29.2372 42.5393V43.3178L28.8564 43.3734C28.7752 43.3862 28.7452 43.6257 28.6982 43.6856L28.2789 44.0834L28.018 44.216C27.9453 44.2545 27.9453 44.4299 27.9196 44.5882L27.6031 44.6909C27.5261 44.7165 27.4961 44.9432 27.4533 45.0117C27.4234 45.063 27.2266 45.063 27.1967 45.1186L27.0384 45.4266C27.0084 45.4822 26.7774 45.4608 26.7561 45.525L26.6363 45.91L25.8406 45.9014C25.8321 45.7859 25.8321 45.5934 25.7764 45.5677L25.4471 45.4138L25.3444 45.1571L25.0193 44.9988C24.9508 44.9646 24.9722 44.7294 24.9081 44.6909L24.6214 44.5326C24.5658 44.5026 24.5701 44.2802 24.5145 44.2545L24.1979 44.1006C24.1466 44.0749 24.1338 43.8781 24.0782 43.8567L23.7573 43.7284C23.6803 43.6985 23.6846 43.4632 23.6119 43.429L23.3124 43.2707L23.2055 43.0012L22.8847 42.8472L22.7777 42.5906L22.4526 42.4323C22.3842 42.3981 22.4056 42.1628 22.3371 42.1243L22.0505 41.9661C21.9949 41.9361 21.9992 41.7137 21.9436 41.688L21.6227 41.534C21.5714 41.5084 21.5628 41.3116 21.5115 41.2902L21.1864 41.1576C21.1137 41.1277 21.1179 40.8967 21.0495 40.8582L20.7501 40.6999L20.6431 40.4304L20.318 40.2722L20.2153 40.0155L19.8859 39.8572C19.8218 39.8273 19.8432 39.5877 19.7747 39.5493L19.4881 39.391L19.3812 39.1129L19.0603 38.9589C19.0047 38.9333 19.0004 38.7322 18.9448 38.7151L18.6112 38.5868L18.4786 38.2917C18.4443 38.2189 18.239 38.1847 18.1791 38.1334C18.1321 38.0906 18.1321 37.8938 18.0764 37.8639L17.7599 37.7056L17.6487 37.449L17.3236 37.2907L17.2123 36.9827L16.9214 36.8245C16.8701 36.7945 16.8744 36.5721 16.8188 36.5464L16.5022 36.3967C16.4509 36.371 16.4338 36.17 16.3824 36.1486L16.0573 36.016C15.9846 35.9861 15.9889 35.7551 15.9162 35.7166L15.6167 35.5583L15.5141 35.2888L15.1932 35.1348L15.0863 34.8782L14.7612 34.7199C14.6927 34.6857 14.7098 34.4461 14.6457 34.4119L14.3591 34.2537C14.3034 34.2237 14.3077 34.0013 14.2521 33.9756L13.9313 33.8216C13.8799 33.796 13.8671 33.5992 13.8115 33.5778L13.4864 33.4495C13.4137 33.4195 13.4179 33.1885 13.3495 33.15L13.0501 32.9918L12.9431 32.7223L12.618 32.5683L12.5153 32.3202C12.4854 32.2432 12.2758 32.2004 12.1902 32.1662L12.079 31.8497C12.0533 31.777 11.8437 31.747 11.7924 31.6914C11.7496 31.6486 11.7411 31.439 11.6854 31.4091L11.3689 31.2508L11.2534 31.0113L10.9582 30.8701L10.4962 30.344L10.385 29.2447H10V26.6354C10.077 26.6952 10.4107 26.7337 10.4149 26.6225L10.4363 26.1605C10.4363 26.0707 10.4064 25.8269 10.4877 25.8055L10.8171 25.7371L10.9154 25.0099L11.2748 24.8687L11.3732 24.595L11.6983 24.4538L11.7924 24.1758L12.1047 24.0432L12.1945 23.701L12.5282 23.5512L12.6308 23.2903L12.9517 23.132C13.0073 23.1064 13.0073 22.9011 13.0543 22.8583C13.1142 22.8027 13.3281 22.7813 13.3581 22.7043L13.4778 22.4006L13.8414 22.3065C13.9013 22.2894 13.8671 22.0541 13.9227 22.0284L14.2607 21.883L14.3548 21.605L14.6713 21.4681L14.7483 21.1302L15.0906 20.9804L15.1932 20.7195L15.5141 20.5655C15.5697 20.5399 15.5697 20.3345 15.6167 20.2918C15.6766 20.2362 15.8905 20.2105 15.9204 20.1378L16.0445 19.8383L16.4081 19.7357C16.468 19.7186 16.4338 19.4833 16.4979 19.4576L16.8273 19.3165L16.9257 19.0384L17.2423 18.9016L17.3236 18.5636L17.6658 18.4139L17.7727 18.153L18.0936 17.999C18.1492 17.9733 18.1492 17.768 18.1962 17.7252C18.2561 17.6696 18.47 17.644 18.4999 17.5712L18.6283 17.2718L18.9919 17.1734C19.0518 17.1563 19.0176 16.9211 19.0732 16.8997L19.4111 16.7542L19.5052 16.4719L19.8218 16.3393L19.8988 15.9971C20.0186 15.9543 20.2068 15.9201 20.2367 15.8431L20.3351 15.5907L20.6645 15.4368C20.7201 15.4111 20.7201 15.2058 20.7672 15.163C20.8271 15.1117 21.0324 15.0774 21.0666 15.0047L21.2035 14.7053L21.5586 14.6026C21.6184 14.5855 21.5842 14.3503 21.6398 14.3289L21.9735 14.1834L22.0676 13.9054L22.3842 13.7685L22.4654 13.4306L22.8077 13.2809L22.9103 13.0199L23.2312 12.866C23.2868 12.8403 23.2868 12.6392 23.3338 12.5965C23.3937 12.5451 23.6076 12.5152 23.6376 12.4425L23.7616 12.143L24.1252 12.0404C24.1851 12.0233 24.1552 11.788 24.2151 11.7623L24.5402 11.6169C24.5958 11.5912 24.5958 11.3774 24.6428 11.3389C24.7027 11.2833 24.9252 11.2704 24.9466 11.1934L25.0364 10.8726L25.7936 10.77C25.8107 10.663 25.8149 10.4106 25.9005 10.4064L26.2342 10.3935C26.3454 10.3893 26.6962 10.432 26.709 10.3208L26.7603 10H29.3655Z" fill="#4D6D89"/>
<path d="M31.3292 81.8583H29.2331L29.1818 82.2861L27.4792 82.3118C27.3338 82.3118 27.167 82.47 27.0729 82.6925L25.4302 82.7224L25.3575 83.1245L23.3426 83.1673L23.133 83.5608L21.1781 83.5993L20.9685 83.9757L19.0948 84.0142L18.9879 84.4377L17.2169 84.4163L17.1698 84.8441L15.2405 84.8868L15.0352 85.2633L13.0888 85.3018L12.8835 85.691L11.2793 85.7466L11.2921 84.0356L11.7114 83.7319L11.7199 81.9696L12.1135 81.7429L12.1349 79.7666L12.5626 79.6768V77.6706L12.9947 77.5851L13.0161 75.9211L13.4011 75.7115L13.4267 73.8551L13.8417 73.6497L13.8502 71.665L14.2866 71.558L14.278 69.9411L14.6716 69.7315L14.7015 67.751L15.1293 67.6612V65.6636L15.5528 65.5652L15.5999 63.5932C15.8351 63.4778 15.9977 63.3152 15.9934 63.1184C15.9806 62.772 16.1474 62.7163 16.3356 62.5324L16.7634 62.1175L17.1997 61.7154L17.3067 61.4031L17.6446 61.2663L17.743 60.9839C17.773 60.907 17.9697 60.8727 18.0596 60.8471L18.4959 60.3808L18.9066 59.9616L19.3301 59.5424L19.7664 59.1446L19.8691 58.8323L20.207 58.6997L20.3054 58.4174C20.3354 58.3404 20.5364 58.3062 20.622 58.2805L21.0583 57.8186L21.4732 57.3994L21.8967 56.9802L22.3374 56.5824L22.44 56.2701L22.778 56.1375L22.8764 55.8552C22.9063 55.7782 23.1031 55.744 23.1929 55.7183L23.6292 55.252L24.0442 54.8328L24.4677 54.4136L24.904 54.0158L25.0067 53.7036L25.3404 53.571L25.443 53.2887C25.473 53.2117 25.6697 53.1774 25.7596 53.1518L26.1959 52.6855L26.6109 52.2663L27.0344 51.8471L27.475 51.4493L27.5776 51.137L27.9113 51.0044L28.014 50.7221C28.0439 50.6451 28.2407 50.6109 28.3305 50.5852L28.7669 50.119L29.1775 49.6998L29.601 49.2806L30.0374 48.8828L30.14 48.5705L30.478 48.4379L30.5764 48.1556C30.6063 48.0786 30.8074 48.0444 30.8929 48.0187L31.3292 47.5567L31.7442 47.1375L32.1677 46.7183L32.6083 46.3205L32.711 46.0083L33.0446 45.8757L33.143 45.5934C33.173 45.5164 33.374 45.4821 33.4596 45.4565L33.9002 44.9945L34.3109 44.5753L34.7344 44.1561L35.1707 43.7583L35.2734 43.446L35.607 43.3134L35.7054 43.0311C35.7311 42.9541 35.945 42.9199 36.022 42.89L36.4583 42.428L36.869 42.0088L37.2925 41.5896L37.7288 41.1918L37.84 40.8838C37.8657 40.8068 38.1181 40.8025 38.1822 40.7512C38.2293 40.7127 38.2079 40.4774 38.2635 40.456L38.5844 40.3234L39.025 39.8615L39.4356 39.4465L39.8591 39.0273L40.2955 38.6252L40.4067 38.3173C40.4324 38.2403 40.6847 38.236 40.7489 38.1847C40.796 38.1462 40.7746 37.9152 40.8302 37.8895L41.151 37.7569L41.5959 37.2949L42.0066 36.88L42.4301 36.4608L42.8664 36.0587L42.9776 35.7507C43.0033 35.6737 43.2557 35.6695 43.3199 35.6181C43.3669 35.5796 43.3455 35.3444 43.4054 35.323L43.7305 35.1904L44.1711 34.7284L44.5818 34.3135L45.0053 33.8943L45.4459 33.4922L45.5486 33.1799L45.8865 33.0473L45.9849 32.765C46.0106 32.688 46.2116 32.6538 46.3015 32.6281L46.7378 32.1619L47.1485 31.7427L47.572 31.3235L48.0126 30.9257L48.1152 30.6134L48.4489 30.4808L48.5516 30.1985C48.5815 30.1215 48.7869 30.0873 48.8681 30.0573L49.3045 29.5954L49.7194 29.1762L50.1429 28.757L50.5792 28.3591L50.6905 28.0512C50.7161 27.9742 50.9685 27.9699 51.0327 27.9186C51.0797 27.8801 51.0584 27.6491 51.1182 27.6234L51.4391 27.4908L51.8797 27.0288L52.2904 26.6096L52.7139 26.1904L53.1502 25.7926L53.2529 25.4804L53.5865 25.3478L53.6849 25.0654C53.7149 24.9884 53.9116 24.9542 54.0015 24.9286L54.4378 24.4623L54.8485 24.0431L55.272 23.6239L55.7083 23.2261L55.8152 22.9138L56.1489 22.7812L56.2516 22.4989C56.2815 22.4219 56.4783 22.3877 56.5681 22.362L57.0045 21.8958L57.4194 21.4766L57.8429 21.0574L58.2835 20.6596L58.3862 20.3473L58.7199 20.2147L58.8182 19.9324C58.8482 19.8554 59.0492 19.8212 59.1348 19.7955L59.5711 19.3335L59.9861 18.9143L60.4053 18.4951L60.8416 18.0973L60.9529 17.7893C60.9785 17.7124 61.2309 17.7081 61.2951 17.6567C61.3421 17.6182 61.3207 17.3873 61.3806 17.3616L61.7015 17.229L62.1421 16.767L62.5527 16.3521L62.9762 15.9286L63.4169 15.5308L63.5195 15.2185L63.8575 15.0859L63.9559 14.8036C63.9815 14.7266 64.1826 14.6924 64.2724 14.6667L64.7087 14.2005L65.1194 13.7813L65.5429 13.3621L65.9921 12.96L66.099 12.6221L66.4027 12.5451C66.484 12.5237 66.4712 12.2328 66.5439 12.2072L66.869 12.0874L67.0786 11.8393L67.4765 11.3645L68.1053 11.2319C68.2379 11.0565 68.4133 10.8383 68.5716 10.8255C68.8154 10.7998 69.0336 10.9538 69.1063 11.2661L71.5361 11.3003L71.6473 11.7281H72.7852L72.9178 12.1473H73.7263L73.7862 12.5109C73.799 12.6007 74.0728 12.5793 74.1712 12.5793H74.5305C74.6204 12.5879 74.6203 12.8531 74.6289 12.9686L75.3005 13.0883C75.4374 13.3108 75.6299 13.4263 75.8652 13.4733L75.9507 13.7513C76.0063 13.931 76.6181 13.8112 76.6651 13.9182L76.8063 14.2518L77.0886 14.3502L77.2383 14.6667L77.4993 14.7608C77.5806 14.7908 77.5977 15.0346 77.6362 15.0988L78.0041 15.1672C78.0853 15.1843 78.0811 15.4581 78.0939 15.5223L78.7527 15.6805L78.8596 15.9714L79.2019 16.0783L79.3473 16.3906L79.6639 16.5275L79.7665 16.8012L80.0702 16.9509L80.1815 17.2119L80.5066 17.3573L80.5878 17.6354L80.9429 17.7808L81.0199 18.1144L81.3578 18.277L81.4862 18.9229L81.8113 18.9785C81.8968 18.9913 81.884 19.2523 81.9011 19.3549L82.2177 19.479C82.2904 19.5089 82.3246 19.7228 82.376 19.7827C82.4187 19.8297 82.5984 19.8383 82.6283 19.8939L82.7866 20.2147C82.8166 20.2703 83.0005 20.2832 83.0561 20.3131C83.2443 20.4029 83.0946 20.9804 83.2101 21.0274L83.5609 21.16C83.5909 21.3868 83.6678 21.5621 83.9117 21.6819L84.0443 22.3834L84.3822 22.4476C84.4678 22.4647 84.4379 22.7385 84.4421 22.8283L84.4592 23.1919C84.4592 23.2774 84.7245 23.286 84.8442 23.2903L84.9298 24.3896L85.2549 24.5864C85.3276 24.6291 85.2934 24.9029 85.2977 24.9884V25.3349C85.3062 25.4205 85.5372 25.429 85.6998 25.4504L85.7597 27.9186L86.0335 27.9998C86.0934 28.0169 86.1746 28.2052 86.1147 28.2223L85.7597 28.3207L85.7426 29.2831C85.7426 29.4456 85.533 29.6339 85.4003 29.7493L84.9212 30.1728C84.9084 30.2242 84.9041 30.4423 84.8485 30.4637L84.502 30.592L84.4165 30.8915L84.0913 31.0241L83.6507 31.486L83.2401 31.9052L82.8166 32.3244L82.376 32.7265L82.2733 33.0388L81.9353 33.1714L81.837 33.4537C81.8113 33.5307 81.6017 33.5649 81.5204 33.5949L81.0841 34.0568L80.6734 34.476L80.2499 34.8952L79.8093 35.2973L79.7066 35.6096L79.3687 35.7422L79.2703 36.0245C79.2446 36.1015 79.0307 36.1314 78.9537 36.1657L78.5174 36.6234L78.1067 37.0426L77.6832 37.4618L77.2426 37.8596L77.14 38.1718L76.802 38.3002L76.7036 38.5867C76.678 38.6637 76.4726 38.698 76.3871 38.7236L75.9507 39.1856L75.5401 39.6048L75.1166 40.024L74.6802 40.4218L74.5733 40.7341L74.2396 40.8667L74.1412 41.149C74.1156 41.226 73.9102 41.2559 73.8247 41.2859L73.3883 41.7478L72.9734 42.167L72.5499 42.5862L72.1136 42.9841L72.0023 43.292C71.9767 43.369 71.7243 43.369 71.6601 43.4204C71.6131 43.4589 71.6345 43.6941 71.5788 43.7198L71.258 43.8524L70.8174 44.3144L70.4067 44.7293L69.9832 45.1485L69.5426 45.5463L69.44 45.8586L69.1063 45.9869L69.0079 46.2735C68.9822 46.3548 68.7769 46.3804 68.6913 46.4061L68.255 46.8723L67.8443 47.2915L67.4208 47.7107L66.9802 48.1085L66.8776 48.4208L66.5396 48.5491L66.4412 48.8357C66.4156 48.9127 66.206 48.9469 66.1247 48.9726L65.6841 49.4346L65.2734 49.8538L64.8499 50.273L64.4179 50.6708L64.3066 50.9788C64.281 51.0558 64.0286 51.0558 63.9644 51.1071C63.9174 51.1456 63.9387 51.3809 63.8789 51.4065L63.5537 51.5391L63.1131 52.0011L62.7025 52.4203L62.279 52.8395L61.8426 53.2373L61.74 53.5496L61.402 53.6822L61.3036 53.9645C61.278 54.0415 61.0726 54.0757 60.9871 54.1014L60.5507 54.5676L60.1358 54.9868L59.7123 55.406L59.276 55.8038L59.169 56.1161L58.8311 56.2487L58.7327 56.531C58.707 56.608 58.5017 56.6422 58.4161 56.6679L57.9755 57.1342L57.5649 57.5534L57.1414 57.9726L56.705 58.3704L56.6024 58.6826L56.2644 58.8152L56.166 59.0976C56.1404 59.1745 55.935 59.2045 55.8495 59.2344L55.4131 59.6964L54.9982 60.1156L54.5747 60.5348L54.1341 60.9326L54.0314 61.2449L53.6935 61.3732L53.5951 61.6598C53.5694 61.7368 53.3641 61.771 53.2785 61.7924L52.8422 62.2587L52.4272 62.6779L52.0037 63.0971L51.5631 63.4949L51.4605 63.8071L51.1225 63.9397L51.0241 64.222C50.9985 64.299 50.7931 64.3333 50.7076 64.3589L50.2712 64.8209L49.8606 65.2401L49.4371 65.6593L48.9965 66.0614L48.8938 66.3736L48.5559 66.5063L48.4575 66.7886C48.4318 66.8656 48.2265 66.8998 48.1409 66.9255L47.7003 67.3917L47.2896 67.8109L46.8661 68.2301L46.4298 68.6279L46.3229 68.9402L45.9849 69.0728L45.8865 69.3594C45.8609 69.4364 45.6512 69.4663 45.57 69.4963L45.1336 69.9582L44.723 70.3774L44.2995 70.7966L43.8674 71.1944L43.7605 71.5067L43.4268 71.635L43.3284 71.9216C43.3027 71.9986 43.0974 72.0328 43.0119 72.0585L42.5712 72.5205L42.1606 72.9397L41.7371 73.3589L41.3007 73.7567L41.1981 74.0689L40.8601 74.1973L40.7617 74.4839C40.7361 74.5651 40.5307 74.5908 40.4452 74.6165L40.0089 75.0827L39.5939 75.5019L39.1704 75.9211L38.7298 76.3189L38.6271 76.6312L38.2892 76.7638L38.1908 77.0504C38.1651 77.1274 37.9598 77.1616 37.8742 77.1873L37.4336 77.6492L37.023 78.0684L36.6037 78.4876L36.1546 78.8897L36.0519 79.2234L35.7439 79.3047C35.6584 79.326 35.637 79.5699 35.6156 79.6554L35.2776 79.7581C35.2049 79.7795 35.1407 79.9548 35.0894 80.0147L34.6574 80.4254C34.5034 80.5751 34.4306 80.6649 34.2552 80.9387L33.1687 81.0371L33.0617 81.4092H31.4319L31.3335 81.8412L31.3292 81.8583ZM32.6254 78.4406C32.6682 78.2053 32.6853 78.0513 32.758 78.0214C32.8136 78 32.9976 77.9829 33.0275 77.9273L33.1858 77.5979L33.4596 77.4952L33.6136 77.1958L33.866 77.0889L34.02 76.7724L34.3365 76.6312C34.3793 76.5029 34.4092 76.3104 34.4905 76.3018L34.8327 76.2548L34.8071 74.779L34.4178 74.5651L34.3494 73.3632C34.221 73.346 33.9644 73.3418 33.9644 73.2562V72.9183C33.9558 72.8285 33.9943 72.559 33.9216 72.5119L33.6093 72.3109L33.5066 71.6179C33.4082 71.6094 33.1302 71.6136 33.1259 71.5238L33.1174 71.173C33.1174 71.0747 33.1302 70.8308 33.0532 70.8009L32.7195 70.6769C32.6425 70.6469 32.711 70.309 32.6297 70.2962L32.3003 70.2491L32.249 69.5176C32.1249 69.4834 31.9196 69.4492 31.8939 69.3722L31.7784 69.0386C31.6629 69.03 31.4276 69.0428 31.4148 68.9616L31.3506 68.6322C31.0982 68.5081 30.9442 68.1531 30.9442 67.8366L30.5764 67.7168L30.4822 67.4259L30.1529 67.2976C30.0759 67.2677 30.1315 66.9853 30.0545 66.9597L29.7165 66.8527C29.6395 66.8271 29.6609 66.579 29.5967 66.5319C29.5326 66.4849 29.3016 66.4506 29.2674 66.3779L29.1262 66.0528C28.8439 66.0528 28.4802 65.8903 28.3776 65.6636L28.0054 65.5652C27.9284 65.5438 28.0225 65.2358 27.9455 65.2059C27.8471 65.1717 27.6375 65.1374 27.599 65.0604L27.4707 64.8123C27.2739 64.7268 27.0985 64.6027 26.936 64.3974L26.2729 64.2777C26.2644 64.175 26.2686 63.9012 26.1788 63.9012L25.8109 63.8927C25.7211 63.8927 25.4601 63.9183 25.443 63.8328L25.3831 63.4991L24.703 63.405L24.4976 63.0885C24.4164 62.9644 23.7832 63.1441 23.7319 62.9816L23.625 62.6565L22.547 62.588C22.4486 62.5837 22.2946 62.3314 22.2261 62.2073L20.7546 62.1645C20.7289 62.3314 20.7118 62.5239 20.6348 62.5495L20.3097 62.6565C20.2883 62.7933 20.2883 62.9944 20.2113 63.0286L19.9461 63.1398C19.8391 63.2981 19.6937 63.4435 19.5226 63.5547C19.4926 63.6061 19.4541 63.8371 19.3771 63.8585L19.0349 63.944L18.8937 64.2905C18.8681 64.3504 18.697 64.3632 18.5729 64.3889V65.7662C18.5644 65.8689 18.3291 65.9929 18.1665 66.0186L18.1494 67.7553L17.7216 67.8152V69.8213L17.2981 69.9155L17.2468 72.4435C17.4179 72.4349 17.6746 72.4135 17.6917 72.4991L17.7644 72.8456L18.513 72.9183C18.5344 73.0594 18.543 73.2776 18.6242 73.2947L18.9408 73.3632C19.0649 73.6369 19.3985 73.7652 19.7322 73.761L19.8477 74.1417C19.8734 74.2229 20.1942 74.1288 20.2284 74.2058C20.2626 74.2914 20.2969 74.5052 20.3696 74.548L20.6091 74.6806L21.054 75.1255L21.2465 75.4249L21.5289 75.4805C21.5845 75.4934 21.5631 75.7714 21.6315 75.8142L21.9181 75.9853C22.0379 76.1435 22.1791 76.2804 22.3374 76.4002C22.3759 76.4686 22.4315 76.6782 22.5127 76.6996L22.8207 76.7809L22.8464 77.2044L23.1929 77.2557C23.3512 77.2814 23.1929 77.8717 23.3341 77.9316L23.6549 78.0727C23.7276 78.1069 23.6677 78.432 23.749 78.4449L24.0827 78.5047L24.1725 79.2619C24.3009 79.2747 24.5575 79.2875 24.5575 79.3774L24.5661 79.7752L27.1156 79.7239L27.2269 79.2961L28.8695 79.3175L28.9636 78.8854L30.8459 78.847L31.0597 78.4705L32.6382 78.4491L32.6254 78.4406Z" fill="#4D6D89"/>
<path d="M59.126 72.482L59.5666 72.9482L59.9858 73.3717L60.4307 73.7695L60.542 74.0775C60.5676 74.1545 60.8072 74.163 60.8628 74.2187C60.9098 74.2614 60.897 74.4796 60.9526 74.501L61.2777 74.6421L61.3718 74.9202L61.697 75.0485L62.1376 75.5147L62.5525 75.9339L62.9974 76.3318L63.1086 76.6397C63.1343 76.7167 63.3738 76.7253 63.4295 76.7809C63.4765 76.8237 63.4637 77.0418 63.5193 77.0632L63.8487 77.2044L63.9428 77.4824L64.2679 77.6107L64.7042 78.077L65.1235 78.5005L65.5683 78.8983L65.6796 79.2063C65.7052 79.2833 65.9448 79.2918 66.0004 79.3474C66.0475 79.3902 66.0346 79.6083 66.0902 79.6297L66.4196 79.7709L66.5095 80.0489L66.8346 80.1773L67.2666 80.6435L67.6859 81.0713L68.1307 81.4648L68.2291 81.7813L68.5628 81.9225L68.6398 82.2219C68.6569 82.2861 68.8323 82.3246 68.8922 82.3032C68.9735 82.2775 69.0034 82.1364 69.0462 81.9268L69.4483 81.8412C69.5766 81.5974 69.6622 81.4905 69.8205 81.3408L70.2525 80.9258L70.6632 80.5195L71.0867 80.096C71.138 80.0361 71.215 79.8736 71.2835 79.8436L71.5915 79.711L71.6171 79.356C71.6257 79.2661 71.9508 79.3046 71.9893 79.3089C72.1262 79.0608 72.2203 78.9282 72.3871 78.77L72.8149 78.3593L73.2341 77.9444L73.6534 77.5295L73.833 77.2472C73.8758 77.183 74.141 77.2172 74.1496 77.1445L74.1881 76.7852C74.1966 76.6953 74.5132 76.7338 74.5645 76.7381C74.68 76.5029 74.7912 76.3318 74.9495 76.1949L75.403 75.8099L75.527 75.5703C75.5655 75.4976 75.7495 75.4377 75.8179 75.3993L76.1986 74.9501L76.3612 74.732C76.4125 74.6678 76.5922 74.625 76.7077 74.5865L76.7547 74.2058L77.144 74.1459C77.2381 73.9577 77.375 73.7481 77.5205 73.6283L77.9739 73.2391L78.098 73.0038C78.1365 72.9311 78.3204 72.8712 78.3846 72.8327L78.7739 72.3879L78.9279 72.1697C78.9749 72.1013 79.1974 72.0713 79.2615 72.02C79.3257 71.9687 79.2786 71.7206 79.33 71.6521C79.3813 71.5837 79.6294 71.5965 79.7107 71.5922C79.8091 71.3955 79.946 71.1859 80.0829 71.0661L80.5449 70.6726L80.6603 70.4416C80.6988 70.3689 80.8828 70.309 80.947 70.2748L81.3362 69.8256L81.4945 69.6032C81.5416 69.5347 81.6956 69.5134 81.8453 69.4834L81.918 69.0386L82.2816 68.9829C82.3501 68.9744 82.3586 68.6792 82.2902 68.6664L81.9351 68.598L81.7811 68.2001C81.6785 68.1959 81.5074 68.2001 81.4731 68.1531L81.2977 67.8879L80.8657 67.473L80.4293 67.058C80.2711 66.9083 80.1598 66.7543 80.0615 66.5362L79.8005 66.4335C79.7235 66.4036 79.6979 66.1683 79.6636 66.0742C79.3856 65.9801 78.7952 65.9758 78.53 66.0699L78.4316 66.395L78.0937 66.5405L77.9739 66.8656L77.6274 66.9511L77.5333 67.2249L77.2039 67.366L77.1098 67.7425C77.0542 67.7553 76.8403 67.751 76.8146 67.8109L76.6692 68.1403L76.3954 68.2429L76.2328 68.5381L75.9847 68.6578L75.835 68.9787L75.557 69.077L75.4072 69.4193L75.0821 69.5091L74.9324 69.8085L74.6672 69.9326C74.5945 69.9668 74.5774 70.1208 74.5303 70.3389L72.1262 70.3304C71.9936 70.1037 71.8353 69.9539 71.6556 69.8727L71.5401 69.6288C71.5059 69.5561 71.3519 69.5305 71.1851 69.492L71.0952 68.7477C70.8856 68.6236 70.7231 68.4568 70.7188 68.2943C70.706 67.982 70.8215 67.8194 71.1166 67.704L71.1893 66.9383C71.3006 66.9297 71.4888 66.934 71.5145 66.8741L71.6556 66.5319L71.9337 66.4378L72.1048 66.1427C72.2631 66.0186 72.3914 65.8903 72.5197 65.7235L72.8192 65.5695L72.9176 65.2358L73.1913 65.1631C73.2683 65.1417 73.3111 64.9877 73.3539 64.8423L73.6619 64.6583C73.756 64.4787 73.9057 64.3504 74.0854 64.2648L74.2009 63.9996C74.2351 63.9226 74.5003 63.9098 74.526 63.8499L74.6287 63.5847L74.9281 63.4179L75.0436 63.1655L75.4158 63.0072C75.4885 62.7634 75.4971 62.1688 75.373 61.9207L75.0436 61.7496L74.9538 61.416L74.6586 61.3219L74.5217 60.9925L74.2437 60.8984L74.0897 60.5733L73.7689 60.4664L73.5892 60.2054L73.1571 59.7905L72.7208 59.3756C72.5668 59.2259 72.4513 59.0719 72.3529 58.858L72.0962 58.7468C72.0192 58.7126 72.0192 58.4516 71.9508 58.4302L71.677 58.3319L71.5187 58.011L71.1979 57.8956L71.0054 57.6389L70.5862 57.1769C70.3637 57.0016 69.7563 57.0272 69.4825 57.117C69.4782 57.2582 69.4825 57.455 69.4226 57.4721L69.1061 57.5491L68.9692 57.9084L68.6954 57.9982C68.6184 58.0239 68.5799 58.2249 68.5457 58.3062L68.2847 58.4089C68.2077 58.4388 68.1949 58.7083 68.135 58.7254L67.8484 58.8195L67.6987 59.1617L67.395 59.2644L67.2281 59.5424L66.9843 59.6793C66.9159 59.7178 66.9158 59.983 66.8517 60.0044L66.5394 60.1284L66.3982 60.4578L66.1245 60.5519L65.9747 60.8642L65.701 60.9626L65.5769 61.3433L64.7513 61.3561L64.6957 61.694C64.6828 61.7838 64.4091 61.8052 64.3192 61.7967L63.9599 61.7539C63.8701 61.7453 63.8786 61.4844 63.8701 61.3561L63.0145 61.3433C63.0145 61.2406 63.0316 61.0353 62.9717 61.0096L62.6381 60.8599L62.5397 60.5904L62.1718 60.4706V59.243L62.5012 59.1745C62.5867 59.1574 62.6038 58.9051 62.6338 58.8238L62.9803 58.7425C63.0573 58.7254 63.0958 58.503 63.1428 58.4431L63.5578 58.0324L63.8187 57.9084C63.8957 57.8742 63.8957 57.6902 63.9171 57.5405L64.2337 57.4379C64.3107 57.4122 64.3321 57.1727 64.3877 57.1128C64.4305 57.07 64.6101 57.0614 64.6401 57.0058L64.7984 56.7107L65.0721 56.6037L65.2133 56.253L65.5427 56.1803C65.6197 56.1632 65.6625 55.9407 65.6967 55.8851L66.1202 55.4659L66.3768 55.3419C66.4496 55.3076 66.4581 55.1152 66.4795 54.9783L66.7961 54.8713C66.8731 54.8457 66.8816 54.5762 66.9501 54.5505L67.2025 54.4436L67.365 54.1399L67.6345 54.0372L67.7757 53.6907L68.1093 53.6095C68.1863 53.5923 68.2163 53.3656 68.2719 53.3058L68.6868 52.8908L68.9435 52.7668C69.0205 52.7326 69.0248 52.5444 69.0462 52.3989L69.3627 52.292C69.4397 52.2663 69.4526 51.9968 69.5125 51.9712L69.7691 51.8642L69.9274 51.5562L70.2097 51.4579L70.3295 51.0686L71.1295 51.0772C71.138 51.1927 71.1337 51.3851 71.1936 51.4108L71.5187 51.5648L71.6257 51.8214L71.9508 51.9797L72.0663 52.2877L72.3529 52.4502L72.4556 52.724L72.7807 52.878L72.8919 53.1218L73.2127 53.2501L73.3582 53.5496L73.6576 53.7036L73.7603 53.9731L74.0854 54.127L74.1923 54.3794C74.2266 54.4564 74.4875 54.4778 74.5089 54.542L74.6287 54.8499L74.8896 55.0296C74.9966 55.2007 75.1591 55.3504 75.3131 55.4574L75.4586 55.6798C75.5014 55.744 75.7452 55.7568 75.7708 55.8124L75.9163 56.1161L76.2157 56.2701L76.3184 56.5396L76.6392 56.6936L76.7505 56.9502L77.0756 57.1128L77.1868 57.4165L77.452 57.5919C77.5504 57.7715 77.713 57.9255 77.8755 58.0153L78.0167 58.2463C78.0552 58.3105 78.3033 58.319 78.3332 58.3789L78.4787 58.6826L78.7781 58.8409L78.8808 59.1147L79.2102 59.2686L79.3128 59.5167C79.3428 59.5937 79.6123 59.6108 79.6337 59.675L79.7492 59.9873L80.0401 60.1498L80.1342 60.4279L80.4593 60.5733L80.5748 60.8214L80.8956 60.9497L81.0411 61.2491L81.3405 61.4074L81.4432 61.6769L81.764 61.8309L81.8667 62.0875L82.1918 62.2458L82.3073 62.5538L82.5939 62.7163L82.6923 62.9858L83.0174 63.1355L83.1329 63.3836L83.458 63.512L83.5992 63.8114L83.9029 63.9697L84.0013 64.2392L84.3221 64.3931L84.4291 64.6498L84.7542 64.8081L84.8697 65.116L85.152 65.2786L85.259 65.5524L85.5841 65.7063L85.6953 65.9502L85.9947 66.087L86.4396 66.579L86.5466 67.6312L86.9487 67.7767V70.2534L86.6022 70.3004C86.5166 70.3133 86.5209 70.5571 86.5209 70.6555V71.1046C86.5124 71.1902 86.2642 71.1987 86.1487 71.2201L86.0332 71.9644C85.922 71.9815 85.7466 71.9943 85.721 72.0499L85.5798 72.3622L85.2975 72.4649L85.1563 72.7899L84.8782 72.8798L84.7841 73.2476L84.4761 73.3674C84.4034 73.3974 84.3777 73.6155 84.3221 73.6754C84.2794 73.7225 84.0783 73.7182 84.0484 73.7781L83.8944 74.0946L83.6334 74.2015L83.4837 74.5437L83.1457 74.6207L83.0174 74.933L82.7308 75.0314L82.5896 75.3608L82.3116 75.4463L82.2132 75.8056L81.9009 75.9339L81.7512 76.2462L81.4817 76.3403L81.332 76.6611L81.0667 76.7681L80.9213 77.106L80.5833 77.1873L80.4507 77.4995L80.1641 77.5979L80.023 77.9273L79.7406 78.0171L79.6465 78.385L79.3385 78.5047C79.2658 78.5347 79.2401 78.7528 79.1845 78.8127C79.1417 78.8598 78.9407 78.8555 78.915 78.9111L78.761 79.2276L78.5001 79.3303L78.3503 79.6682L78.0124 79.7495L77.8841 80.0618L77.5975 80.1602L77.4563 80.4895L77.1782 80.5794L77.0841 80.9472L76.7761 81.067C76.7034 81.0969 76.6777 81.3151 76.6264 81.3707C76.5836 81.4178 76.3826 81.4177 76.3526 81.4734L76.1986 81.7899L75.9377 81.8968L75.788 82.239L75.45 82.3203L75.3174 82.6326L75.0351 82.731L74.8939 83.0603L74.6116 83.1459L74.5175 83.518L74.2052 83.6335C74.1325 83.6592 74.094 83.8773 74.0597 83.9415L73.786 84.0442C73.709 84.0741 73.6705 84.288 73.632 84.3607L73.3753 84.4719C73.2983 84.5061 73.2641 84.6986 73.2213 84.8098L72.8791 84.8868L72.7507 85.2034L72.4684 85.3018L72.323 85.6226L72.0535 85.7252L71.9208 86.0931L71.1765 86.1958C71.1551 86.3113 71.1466 86.5551 71.061 86.5594L70.6332 86.5765L70.2953 86.5893C70.2311 86.5893 70.244 86.7946 70.2482 86.9871L67.7201 87.0042L67.5875 86.5893L66.5694 86.508C66.394 86.3326 66.24 86.1958 66.0731 86.076L65.9448 85.7894C65.9148 85.721 65.7138 85.6825 65.6625 85.6311C65.6197 85.5884 65.6068 85.3787 65.5512 85.3488L65.2304 85.1905L65.1235 84.951L64.8026 84.8227L64.6572 84.5232L64.3577 84.365L64.2551 84.0955L63.93 83.9458L63.8273 83.6806L63.4979 83.5223L63.3867 83.2143L63.0958 83.0518L62.9974 82.778L62.6808 82.6283L62.5611 82.3845L62.236 82.2519L62.0948 81.9524L61.7911 81.7942L61.6884 81.5247L61.3718 81.3707L61.2649 81.114L60.9398 80.9558L60.8243 80.6478L60.5377 80.4895L60.4307 80.2115L60.1099 80.0575L59.9944 79.8137L59.6693 79.6811L59.5324 79.3816L59.233 79.2234L59.126 78.9539L58.8052 78.7999L58.6982 78.5432L58.3688 78.385L58.2619 78.0813L57.9753 77.923L57.8683 77.645L57.5475 77.491L57.4277 77.2472L57.1069 77.1188L56.9657 76.8194L56.6663 76.6611L56.5636 76.3916L56.2428 76.2377L56.1358 75.981L55.8107 75.8227L55.6952 75.5147L55.4086 75.3565L55.3017 75.0784L54.9808 74.9244L54.8653 74.6806L54.536 74.5523L54.3991 74.2571C54.3648 74.1844 54.1595 74.1502 54.0996 74.0989C54.0526 74.0561 54.0483 73.8551 53.9927 73.8294L53.6761 73.6711L53.5649 73.4145L53.2355 73.2562L53.1243 72.9482L52.8334 72.7899L52.7307 72.5119L52.4099 72.3579L52.2987 72.1141L51.9736 71.9858L51.8324 71.6821L51.5287 71.5281L51.4303 71.2415L51.041 71.1174V70.3133C51.1693 70.3133 51.3576 70.3175 51.3832 70.2576L51.533 69.9069C51.5757 69.8941 51.7554 69.8727 51.7853 69.8171L51.9479 69.5091L52.2174 69.4107L52.3586 69.0642L52.688 68.9872C52.765 68.9701 52.8077 68.7434 52.8462 68.6878L53.2655 68.2771L53.535 68.1574C53.612 68.1232 53.6034 67.9563 53.6077 67.7425L54.3905 67.7168C54.536 67.9435 54.6515 68.0889 54.814 68.2344L55.2632 68.6365L55.3744 68.9402C55.4001 69.0172 55.6396 69.0257 55.6995 69.0813C55.7466 69.1241 55.7337 69.3423 55.7893 69.3636L56.1187 69.5048L56.2086 69.7828L56.538 69.9112L56.97 70.3774L57.3892 70.8009L57.8341 71.1987L57.9453 71.5067C57.971 71.5837 58.2106 71.5922 58.2662 71.6478C58.3132 71.6906 58.3004 71.9088 58.356 71.9302L58.6854 72.0713L58.7752 72.3494L59.1003 72.4777L59.126 72.482Z" fill="#4D6D89"/>
</svg>
