<svg width="103" height="117" viewBox="0 0 103 117" fill="none" xmlns="http://www.w3.org/2000/svg">
<path d="M21.1406 106.979L21.0881 100.844C20.9719 98.164 18.9394 95.9632 16.2166 95.9376L10 95.8793L10.017 25.3457C10.017 23.1364 11.922 21.2287 14.1203 21.2287L77.6938 21.2258C79.5491 21.2258 81.6851 22.9372 81.6851 24.8933L81.712 103.381C81.3619 105.621 79.4215 107.205 77.1651 106.979H21.1406ZM58.1439 32.3493C59.0397 32.3493 59.5131 31.5512 59.5358 30.9509C59.5585 30.3505 59.1715 29.514 58.3962 29.514H33.4023C32.617 29.514 32.1649 30.4601 32.223 31.0277C32.291 31.6963 32.9062 32.3536 33.7098 32.3536L58.1425 32.3493H58.1439ZM70.3532 43.4216C71.3283 43.3177 71.8188 42.8226 71.8769 41.9918C71.9151 41.447 71.4346 40.5678 70.6296 40.5678H21.1661C20.2901 40.5664 19.8536 41.4214 19.9131 42.1341C19.967 42.7643 20.524 43.4187 21.3588 43.4187L70.3518 43.4216H70.3532ZM70.4949 54.4896C71.3992 54.3274 71.8301 53.8167 71.8783 53.0527C71.9123 52.5306 71.3992 51.6386 70.6324 51.6386L21.2993 51.6358C20.4035 51.6358 19.9074 52.33 19.8975 53.0883C19.889 53.7583 20.4857 54.4867 21.356 54.4867L70.4949 54.4896ZM70.519 65.5575C71.4616 65.3883 71.9251 64.7922 71.8627 64.0154C71.8117 63.3866 71.3028 62.7095 70.4893 62.7095L21.1873 62.7123C20.3964 62.7123 19.9018 63.5559 19.8933 64.1435C19.8848 64.731 20.4149 65.5519 21.2199 65.5519L70.519 65.5575ZM70.4198 76.6341C71.3652 76.58 71.8684 75.9427 71.8698 75.1972C71.8698 74.5115 71.3368 73.7803 70.4935 73.7803H21.3092C20.4687 73.7803 19.8961 74.5158 19.8975 75.2029C19.8989 75.89 20.4645 76.6312 21.3106 76.6312H70.4198V76.6341ZM70.4198 87.6893C71.4148 87.6893 71.9222 86.8912 71.8641 86.15C71.806 85.4088 71.2263 84.8369 70.3603 84.8369H21.3106C20.4673 84.8383 19.8989 85.5753 19.9004 86.2638C19.9004 86.8755 20.3681 87.6879 21.1703 87.6879H70.4212L70.4198 87.6893ZM70.3192 98.763C71.2631 98.763 71.8655 98.1683 71.8698 97.3147C71.8726 96.6873 71.3057 95.9149 70.4822 95.9149H50.8459C50.0564 95.9163 49.4951 96.7286 49.505 97.3033C49.5178 98.036 49.9926 98.753 50.8204 98.753L70.3192 98.763Z" fill="#4D6D89"/>
<path d="M84.5524 102.327L84.5268 25.0286C84.5268 21.5645 81.5461 18.8828 78.2691 18.4418H19.1094L19.3517 14.366C19.4892 12.0628 20.9038 10.3229 23.2566 10L89.1121 14.5268C91.5159 14.6918 93.1487 16.8144 92.9886 19.1716L87.6252 97.9692C87.492 99.9353 86.66 101.776 84.5509 102.328L84.5524 102.327Z" fill="#4D6D89"/>
<path d="M18.2077 100.664L18.2347 105.035L12.0322 98.8157L16.2489 98.7716C17.2042 98.7616 18.2021 99.6152 18.2077 100.662V100.664Z" fill="#4D6D89"/>
</svg>
