<svg width="103" height="103" viewBox="0 0 103 103" fill="none" xmlns="http://www.w3.org/2000/svg">
<g clip-path="url(#clip0_85_1321)">
<path d="M81.2125 45.8307L82.8379 45.8194L82.9724 45.2754L84.3624 45.2131L84.6258 44.7257L86.1054 44.6861L86.3689 44.1704L87.8653 44.1081C88.1792 43.0314 89.4963 44.0967 89.7317 43.0541L91.7438 42.9861L91.7942 42.4194L93.4812 42.4421L93.5597 41.8867L95.1234 41.8301C95.3588 40.7987 96.6591 41.8301 96.9954 40.7817L98.475 40.7251L98.7496 40.2094L100.229 40.1471L100.498 39.6484L102.482 39.5974V75.1784C101.888 75.3314 101.871 75.8471 101.899 76.3004L101.423 76.4874C101.328 76.5271 101.311 76.8274 101.289 76.9521L100.487 77.1164C100.128 78.0061 99.3101 77.1674 99.0019 78.1421H40.287L40.2534 74.9404L39.7433 74.6571L39.7209 70.8151L39.1604 70.6847L39.138 68.5711C38.9811 68.5541 38.6168 68.5711 38.6112 68.4464L38.5888 67.8741L38.5719 67.4264C38.5719 67.3131 38.2357 67.3017 38.1068 67.2847L37.9554 65.7887C37.5855 65.6187 37.4902 65.4374 37.4118 65.1427L37.0194 64.9161C36.8513 64.8197 36.9634 64.0604 36.8569 64.0264L36.3749 63.8734L36.3301 62.8817C36.1843 62.8761 35.9265 62.8874 35.8929 62.8081L35.7023 62.3547L35.3548 62.2244L35.1419 61.8221C35.0914 61.7257 34.7664 61.7257 34.7383 61.6181L34.6374 61.1534L34.2731 61.0344C34.1723 61.0004 34.105 60.7341 34.0602 60.6434L33.4773 60.1504L33.2026 59.9181C33.1186 59.8501 33.0625 59.6121 33.0065 59.4534L32.5245 59.4024L32.3507 58.9434L31.9976 58.8131L31.7734 58.4277C31.51 58.2861 31.3587 58.1727 31.2298 57.8101L30.3218 57.6457L30.1761 57.2774C30.1369 57.1811 29.8678 57.1357 29.7614 57.0904C29.3578 56.3821 28.6236 56.7107 28.59 56.5747L28.4555 56.0364H27.3681L27.2897 55.5661C27.2673 55.4471 26.9198 55.4527 26.7853 55.4527H26.3313C26.2192 55.4471 26.2136 55.1184 26.2024 54.9427L24.2127 54.8691L23.9437 54.3421L21.7915 54.3251L21.528 53.7811L20.082 53.7471V39.6257H22.1838L22.4528 40.1584L23.9605 40.1471L24.1342 40.6967L25.569 40.7534L25.8381 41.2804L27.3177 41.3201L27.5811 41.8074L28.9767 41.8754L29.1056 42.4307H31.1906L31.297 42.9974L32.8215 43.0597L33.0905 43.5414L34.5646 43.5924C34.856 44.6974 36.1507 43.5471 36.4534 44.6747L37.9498 44.7257L38.2076 45.2131L39.7433 45.2697L39.8442 45.8251L41.8227 45.8364L41.9348 46.3974L43.448 46.4541L43.7227 46.9414L45.1911 46.9924C45.4825 48.1031 46.7997 46.9357 47.0743 48.0747L48.5707 48.1201L48.8342 48.6074L50.3699 48.6641L50.4707 49.2251L52.5557 49.2364L52.6846 49.7917L54.0746 49.8597L54.3492 50.3471H55.3636L55.4589 50.7834C55.4813 50.8911 55.7672 50.8967 55.9689 50.9081V59.3911L56.4117 59.4761C56.5182 59.4987 56.535 59.7651 56.5687 60.0087L63.681 60.0201C63.7595 60.3714 63.9556 60.6151 64.1126 60.5811C64.2975 60.5414 64.4937 60.2637 64.5441 60.0881C64.6282 60.0767 64.8916 60.0371 64.9084 60.0881L65.0318 60.4961C65.0318 60.4961 65.2952 60.5697 65.3176 60.5131L65.4633 60.0994L66.6459 59.9124V51.1291C66.8421 51.0497 67.0943 50.9761 67.1111 50.8684L67.1952 50.3471L68.2208 50.3357L68.4955 49.8484L70.4795 49.7577L70.558 49.2194H72.2002L72.3403 48.6697L73.7303 48.5961L73.9937 48.1031H75.4901L75.6695 47.5761L77.2332 47.4911C77.5695 46.4031 78.7801 47.4854 79.1276 46.4541L81.0052 46.3691C81.0388 46.3294 81.1229 46.0801 81.2013 45.8251L81.2125 45.8307Z" fill="#4D6D89"/>
<path d="M65.4631 39.0308L65.3622 38.4471H58.3171L58.1882 39.0308L56.5853 39.0195L56.5012 39.4785C56.4788 39.5861 56.1929 39.5918 55.9912 39.6031V46.9301L54.915 46.9528L54.6516 46.4258L52.7068 46.3748L52.5835 45.8251L51.0366 45.8138L50.9245 45.2585L49.4056 45.2075L49.1422 44.7598C49.0077 44.5275 47.7074 45.0998 47.5281 44.1421L46.026 44.1081L45.7514 43.5925L44.2717 43.5301L44.0083 43.0485L42.0803 42.9861L41.9458 42.4308H40.4101L40.3036 41.8641L38.7791 41.8131L38.5045 41.3258L37.0416 41.2691C36.6942 40.1528 35.4107 41.3145 35.1417 40.1868L33.6508 40.1415L33.3818 39.6541L31.8573 39.5918L31.7508 39.0365L29.7723 39.0251L29.6715 38.4698L28.1414 38.4131L27.8668 37.9258L26.4039 37.8748C26.0732 36.7698 24.8458 37.9031 24.4871 36.7981L23.0187 36.7415L22.7497 36.2598L21.2196 36.1918L21.1131 35.6365H20.0986V24.8471C20.3284 24.8131 20.6423 24.6545 20.6479 24.5071L20.6983 23.2151C20.8945 23.1755 21.1019 23.1585 21.1411 23.0848L21.3429 22.6768C21.3765 22.6088 21.6792 22.6145 21.7016 22.5351L21.8417 22.0365L22.8618 22.0138L22.9402 21.4528H41.9458L41.9514 16.4831L42.5231 16.4038V14.7265L43.0667 14.5905L43.1676 13.7518C43.4927 13.5478 43.6216 13.3438 43.6888 12.9981L44.0419 12.8735C44.1428 12.8395 44.1596 12.4881 44.2437 12.4598L44.5968 12.3238L44.7761 11.8535L45.2469 11.7911L45.4039 11.3435L45.7906 11.2131L45.9699 10.7485L46.8387 10.6351C47.0965 9.79079 47.9036 10.2838 48.0493 10.0571L48.3407 9.59246L50.2015 9.53012L50.4929 9.00879H69.2631L69.5657 9.53012L71.4097 9.59812L71.7067 10.0741L72.2896 10.1478L72.6932 10.1988C72.7772 10.2101 72.7828 10.4651 72.7941 10.6748L73.8253 10.7485C73.8421 10.9015 73.8421 11.1338 73.915 11.1678L74.3578 11.3548L74.453 11.7515L74.9631 11.8761L75.1144 12.2785C75.1536 12.3748 75.4058 12.4485 75.5011 12.5108C75.5908 12.5675 75.5348 12.9245 75.6356 12.9528L76.1232 13.0888L76.1681 14.0918L76.6109 14.1768C76.7286 14.1995 76.7117 14.5508 76.7173 14.6755L76.7342 15.1401C76.7342 15.2535 77.0312 15.2591 77.2498 15.2818L77.2834 20.7898C77.5973 20.9598 77.7598 21.1128 77.8887 21.4641H100.184L100.274 21.9571C100.296 22.0705 100.666 22.0308 100.806 22.0251L100.918 22.4898C100.946 22.5975 101.272 22.6031 101.35 22.6825C101.406 22.7391 101.4 22.9998 101.473 23.0338L101.894 23.2265L102.034 23.6855C102.067 23.7875 102.269 23.8555 102.488 23.9631L102.505 35.5911L102.09 35.7045C101.989 35.7328 101.967 35.9765 101.939 36.2088L100.38 36.2315L100.151 36.7415L98.2226 36.8208L97.9536 37.3365L96.4291 37.3761L96.2946 37.9315L94.843 37.9428L94.5795 38.4471L93.027 38.4981L92.9486 39.0478H91.2896L91.2223 39.5975L89.6698 39.6315L89.5801 40.1471L88.0108 40.1698L87.8259 40.6968L85.8418 40.7875L85.6232 41.3145L84.0707 41.3371L83.9362 41.8641L82.3893 41.8925L82.3108 42.4421H80.6687L80.5173 42.9975L78.9816 43.0315L78.7406 43.5358L76.9864 43.5981L76.6949 44.1195L75.1985 44.1705L75.0359 44.7088L73.4386 44.7258L73.3041 45.2528L71.8132 45.2698L71.6675 45.8308L70.0365 45.8421L69.8852 46.3975L68.3383 46.4315L68.2038 46.8395C68.1646 46.9471 67.8283 46.9811 67.7106 46.9698L67.2174 46.9358C67.038 46.9245 67.2958 46.0405 67.1389 45.9498L66.6681 45.6835L66.6345 43.7511L67.1837 43.3885V41.6205L66.7466 41.3485C66.6233 41.2691 66.6737 40.8385 66.6681 40.6798L66.6345 39.0421H65.4687L65.4631 39.0308ZM73.9094 21.4471L73.8982 15.9391C73.6628 15.8825 73.4554 15.8598 73.4274 15.7635L73.2873 15.2988C73.2536 15.1911 72.8333 15.2535 72.8221 15.1401L72.7772 14.7095L72.1103 14.2618C71.8581 14.0918 71.7236 13.9105 71.5722 13.5535L70.6026 13.4968L70.4737 12.9471H68.4784L68.1982 12.4088H51.1711L50.8909 12.9188L48.8283 13.0265C48.621 13.4005 48.4752 13.4855 48.195 13.6158C48.0885 13.7575 47.926 14.0521 47.7691 14.0748L47.1581 14.1598L46.5696 14.8738L46.4071 15.7465C46.295 15.7635 45.9083 15.7521 45.9083 15.8711V16.4775C45.8971 16.5965 45.9307 16.9535 45.8186 16.9648L45.3254 17.0271L45.3422 21.4471H73.915H73.9094Z" fill="#4D6D89"/>
<path d="M16.2429 94.0033L16.0915 93.4196H13.491L13.3901 92.8756L11.8095 92.7623C11.6806 92.4053 11.4733 92.2636 11.2435 92.2749L10.7278 92.2976C10.6101 92.2976 10.5933 91.9746 10.5765 91.8046L9.55646 91.6403C9.04643 90.5523 7.89746 90.5353 7.90307 90.5523L7.73493 90.0763L7.25292 89.9969L7.09599 89.5493L6.72608 89.4246L6.52992 89.0166L6.18243 88.8806L5.99747 88.4443L5.61075 88.3423L5.47623 87.8833C5.06149 87.6339 4.54585 87.1636 4.32727 86.7216L3.99099 86.5799C3.8901 86.5403 3.86768 86.2966 3.83406 86.0983L3.45854 85.9056C3.18951 85.7696 3.34645 85.0046 3.22875 84.9649L2.75235 84.8119L2.70751 83.8259L2.25353 83.7409C2.14144 83.7183 2.16385 83.3669 2.15825 83.2479L2.14704 82.7606C2.14704 82.6416 1.80515 82.6416 1.63141 82.6359L1.54734 81.1796L1.07654 80.9133L1.0261 78.8733L0.493652 78.5956V72.6173L1.04291 72.3339L1.07654 70.3053L1.54734 70.0219L1.64262 68.5883L2.09099 68.5033C2.20309 68.4806 2.17506 68.1576 2.17506 68.0273V67.4153C2.18627 67.2963 2.56179 67.3133 2.71311 67.3076L2.75795 66.2876L3.1671 66.1969C3.4081 66.1403 3.23435 65.3526 3.39689 65.2619L3.78922 65.0466C3.94054 64.8143 4.10869 64.6273 4.32727 64.4573L4.49541 64.0493C4.53464 63.9529 4.81488 63.9246 4.88774 63.8509C4.94379 63.7943 4.9606 63.5336 5.03346 63.4996L5.44821 63.3126L5.57151 62.9329L6.01428 62.7459C6.09836 62.4909 6.2665 62.2076 6.45706 62.0716L7.15204 61.5786L7.2249 61.2159C7.24732 61.1139 7.63965 61.1763 7.67888 61.0799L7.86384 60.6379C7.9423 60.4509 8.74938 60.6379 8.79422 60.5303L8.96796 60.0883L9.35469 59.9579L9.51722 59.4649L10.5821 59.4423L10.6606 58.9889C10.683 58.8699 11.0417 58.8869 11.165 58.8813L11.6134 58.8643C11.7255 58.8643 11.7255 58.5299 11.7479 58.3656L13.334 58.3259L13.5134 57.7876L16.0355 57.7253L16.2989 57.1813L20.5809 57.1699L20.8499 57.7479H23.288L23.557 58.2863L25.1039 58.3543L25.1936 58.8019C25.216 58.9153 25.5691 58.8699 25.6868 58.8699L26.2697 58.8926C26.3874 58.8926 26.3594 59.3063 26.3762 59.4196L27.3906 59.4536L27.4411 59.9183C27.4523 60.0089 27.7325 60.0089 27.8334 60.0146L28.3827 60.0486C28.4891 60.0543 28.4835 60.4226 28.59 60.4623L28.9599 60.6039C29.0608 60.6436 29.0945 60.8929 29.1337 61.0743L30.0865 61.2103C30.1089 61.3633 30.1257 61.5956 30.1986 61.6296L30.6245 61.8336L30.7759 62.1679L31.213 62.3379L31.3868 62.7403L31.7903 62.9443L31.9192 63.3126L32.3732 63.5053C32.4517 63.5393 32.4068 63.8226 32.4068 63.9076C32.4068 64.0209 32.6086 64.0379 32.9225 64.0663L33.0346 65.0069C33.2924 65.1259 33.5166 65.3583 33.623 65.6019L33.9705 65.7493C34.0714 65.7946 34.0826 66.0269 34.1051 66.1856L34.1835 66.6899C34.2003 66.7976 34.5254 66.8486 34.6543 66.8826L34.7384 67.8516C34.8785 67.8913 35.1924 67.9253 35.198 68.0329L35.2316 68.5656C35.2316 68.6506 35.1756 69.0076 35.2596 69.0246L35.7865 69.1323L35.8033 71.2573L36.3694 71.3423V79.8139L35.8033 79.9046L35.7921 82.0353C35.6351 82.0466 35.2652 82.0239 35.2596 82.1429L35.2372 82.7209L35.2204 83.1629C35.2204 83.2763 34.8953 83.2819 34.7328 83.3046L34.6767 84.3133L34.1891 84.4606C34.0826 84.4946 34.1275 84.8346 34.1219 84.9479L34.1051 85.3729C34.1051 85.4863 33.7856 85.5599 33.6959 85.6223L33.1018 86.3023L32.9561 87.1636C32.844 87.1749 32.5806 87.1806 32.5469 87.2543L32.3452 87.6793L32.0033 87.8096L31.7847 88.2346L31.3924 88.4273L31.2579 88.8749L30.8823 88.9429L30.6582 89.3623L30.2602 89.5549L30.1033 90.0366L29.1337 90.0763L29.044 90.5013C29.0216 90.6089 28.7133 90.6486 28.618 90.7109C28.5508 90.7563 28.5116 90.9829 28.4723 91.0566C28.3266 91.3456 27.5419 90.9149 27.357 91.6856L26.421 91.8556C26.3818 91.9916 26.3425 92.2976 26.2361 92.3033L25.7148 92.3486L25.2776 92.3883C25.1656 92.3996 25.1319 92.6716 25.0871 92.8699L23.5122 92.8983L23.3945 93.4649L21.1862 93.4423L21.1302 94.0316H16.2429V94.0033ZM11.0417 81.0209C11.2603 81.4573 11.434 81.5593 11.8039 81.5593C12.1122 81.5593 12.2803 81.3609 12.314 80.9586L13.3116 80.8963C13.3396 80.6923 13.3564 80.4599 13.4573 80.4316L13.9337 80.3126C14.0458 80.2843 13.9674 79.8253 14.0851 79.8309L14.5895 79.8423C14.7072 79.8423 15.0323 79.8479 15.0491 79.7346L15.1219 79.2813L16.1252 79.2303L16.2765 78.7543C16.3157 78.6296 17.0443 78.7316 17.1396 78.5843L17.3862 78.2103C17.6665 78.1026 17.8794 77.9326 18.0756 77.6323L18.9499 77.5076C18.9724 77.3149 18.9892 77.0543 19.0957 77.0373L19.5048 76.9636C19.6449 76.7143 19.8243 76.4876 20.0989 76.2836V62.3323L19.5721 62.1849C19.4936 62.1623 19.4936 61.8846 19.4768 61.7146L17.9635 61.7259C17.9019 61.9356 17.8682 62.1736 17.7673 62.2019L17.3806 62.3039C17.2909 62.5646 17.1901 62.8026 16.7417 62.9386L16.7193 74.7253C16.4727 74.7593 16.2485 74.7876 16.2204 74.8953L16.114 75.2976L15.1107 75.3713C15.0883 75.5186 15.0771 75.8473 14.9706 75.8529L14.5278 75.8756C14.4157 75.8813 14.0514 75.8529 14.0234 75.9606L13.9001 76.4253C13.7768 76.4423 13.3901 76.4139 13.3733 76.5273L13.306 76.9919L12.314 77.0259L12.1682 77.5303L11.2771 77.6776C11.1034 78.0176 10.9072 78.1309 10.6101 78.1933L10.4868 78.6409C10.4588 78.7429 10.1618 78.7543 9.97681 78.7826L10.0497 80.8906L11.0249 81.0379L11.0417 81.0209Z" fill="#4D6D89"/>
<path d="M63.2885 56.6542L59.3428 56.6428L59.3484 42.4195L63.2941 42.4138L63.2885 56.6542Z" fill="#4D6D89"/>
</g>
<defs>
<clipPath id="clip0_85_1321">
<rect width="102" height="85" fill="white" transform="translate(0.499023 9.00317)"/>
</clipPath>
</defs>
</svg>
