<svg width="103" height="103" viewBox="0 0 103 103" fill="none" xmlns="http://www.w3.org/2000/svg">
<g clip-path="url(#clip0_73_333)">
<path d="M10 67.6161V60.3416L10.1784 60.3624L10.2386 60.5351C10.249 60.5621 10.3444 60.5559 10.3734 60.56L10.5601 60.5913C10.5996 60.5975 10.6182 60.7119 10.6307 60.764L10.9792 60.7931L11.0207 60.9221C11.0477 61.0053 11.2219 60.9554 11.2323 61.0241L11.2613 61.1843L11.6327 61.1885L11.6742 61.3965L12.0538 61.4069C12.0787 61.4985 12.1078 61.5942 12.1576 61.5984L12.3713 61.6109C12.4293 61.615 12.4916 61.7357 12.5144 61.7898C12.6368 61.8189 12.7219 61.873 12.7882 61.9958L13.1119 62.0478C13.1202 62.1123 13.1285 62.2247 13.17 62.2247H13.3961C13.4334 62.2247 13.5143 62.2413 13.5164 62.2705L13.5289 62.4286L13.8587 62.4328L13.9396 62.5243C13.9562 62.593 13.9708 62.6409 13.9998 62.645L14.1346 62.6679L14.2156 62.8406L14.5371 62.8573L14.6097 63.0362C14.6222 63.0654 14.7259 63.0529 14.7591 63.0591L14.9417 63.082C14.9728 63.0862 14.9749 63.1944 14.979 63.2318C14.9915 63.3379 15.3524 63.2006 15.3794 63.3525C15.3856 63.392 15.396 63.4649 15.396 63.4628C15.396 63.4628 15.4479 63.469 15.4811 63.4732L15.5889 63.4857C15.6097 63.4878 15.6076 63.5627 15.6118 63.6168C15.618 63.6958 15.8171 63.6979 15.9375 63.6688L16.0267 63.7687C16.0267 63.8311 16.0267 63.8894 16.0474 63.8894H16.1802C16.2715 63.8852 16.4022 63.9039 16.4229 63.9643C16.4374 64.008 16.4831 64.0912 16.5121 64.0974L16.7797 64.1411C16.8669 64.2681 16.9146 64.293 17.0121 64.3742C17.2984 64.6156 17.4436 64.4824 17.4561 64.5635L17.4789 64.7134H17.7963L17.8772 64.8216C17.8938 64.8923 17.9042 64.936 17.9374 64.936H18.0784L18.2714 64.9547L18.3087 65.1275L18.4788 65.1524C18.5099 65.1566 18.5099 65.2148 18.5182 65.323L18.902 65.3522L18.9332 65.502C18.9539 65.6019 19.1593 65.502 19.3107 65.6185C19.3336 65.6373 19.3336 65.7621 19.3626 65.7642L19.5182 65.7704C19.5576 65.7704 19.6779 65.7767 19.6945 65.8141L19.763 65.9619C19.8294 65.9702 19.9352 65.9785 19.9435 66.0201L19.9767 66.1804L20.346 66.1928L20.3937 66.3843C20.3978 66.3968 20.8356 66.326 21.0243 66.7734L21.4102 66.8421C21.4828 67.1042 21.7608 66.9794 21.7919 67.0709L21.8417 67.2166L22.1923 67.2374L22.2006 67.3602L22.2732 67.4497L22.6197 67.4372L22.6716 67.6016C22.6819 67.6369 22.7794 67.6577 22.8313 67.6785C22.85 67.7035 22.8521 67.8346 22.8935 67.8367L23.1052 67.8471C23.157 67.8492 23.2545 67.8492 23.267 67.8866L23.3147 68.0406L23.6736 68.0843C23.6819 68.1488 23.6902 68.2591 23.7317 68.2653L23.8914 68.2924C23.9557 68.438 24.103 68.5088 24.3022 68.4672L24.3437 68.6836L24.7233 68.6898C24.7233 68.7523 24.7233 68.8813 24.7669 68.8854L24.9764 68.9062C25.0428 68.9125 25.1403 69.0082 25.2005 69.0769C25.2378 69.0914 25.3395 69.1081 25.354 69.1414L25.4059 69.2787L25.7295 69.3286C25.854 69.6387 26.1237 69.4472 26.1672 69.5763C26.1921 69.647 26.2316 69.724 26.2689 69.7261L26.578 69.7427C26.5842 69.8509 26.5822 69.9217 26.6133 69.9238L26.7398 69.93C26.8705 69.9362 26.7896 70.1318 26.8519 70.1339L27.0282 70.1422L27.19 70.1485C27.2191 70.1485 27.2191 70.2255 27.2232 70.3233L27.607 70.3503L27.6257 70.4481C27.6609 70.6396 27.9472 70.5085 27.9991 70.6042L28.08 70.7498C28.0966 70.7769 28.1983 70.7998 28.2294 70.8289C28.4638 71.0474 28.6277 70.9371 28.6401 70.985L28.6713 71.0994C28.6796 71.1306 28.7107 71.191 28.7418 71.1889L28.8787 71.1806C28.9202 71.1785 29.0468 71.1723 29.0592 71.2118L29.1132 71.3907C29.2833 71.3699 29.4679 71.4282 29.5218 71.5759C29.5737 71.5843 29.6878 71.5863 29.6982 71.6259L29.7335 71.7819L30.0903 71.8277L30.1629 72.0087C30.1774 72.0462 30.4845 71.9817 30.5073 72.0608L30.5529 72.2106L30.9077 72.2335C30.9118 72.2938 30.9077 72.4103 30.9492 72.4187L31.1379 72.454L31.194 72.6351L31.3641 72.6392C31.4097 72.6392 31.5404 72.6288 31.5487 72.6705L31.584 72.8348L31.9699 72.8536C31.9927 72.9347 32.0217 73.045 32.0715 73.0492L32.2603 73.0679L32.3682 73.0783C32.3889 73.0804 32.391 73.1615 32.3951 73.1844C32.4304 73.3322 32.586 73.1844 32.7105 73.4362L33.0279 73.4924C33.03 73.5506 33.03 73.6776 33.0756 73.6776H33.2603C33.308 73.6797 33.4221 73.6713 33.4304 73.7129L33.4573 73.8752L33.8017 73.9377C33.8826 74.05 33.949 74.0875 34.0465 74.1312L34.1295 74.2748C34.1544 74.3205 34.4345 74.2748 34.4531 74.333L34.5091 74.512L34.8764 74.5286C34.8826 74.5911 34.8867 74.7138 34.9282 74.7138H35.1004C35.1419 74.718 35.2643 74.7138 35.2767 74.7513L35.3245 74.9198C35.3888 74.9261 35.5174 74.9198 35.5215 74.9594L35.5423 75.1237L35.9282 75.1508C35.9323 75.2403 35.9344 75.3214 35.9676 75.3235L36.09 75.3339L36.3327 75.3547C36.3514 75.4546 36.3659 75.5441 36.4053 75.5441L36.5796 75.5482C36.6315 75.5482 36.7165 75.6065 36.7435 75.6752C36.8099 75.8354 36.9198 75.6856 37.0484 75.9332L37.3721 75.9831C37.3762 76.0268 37.3721 76.1683 37.4156 76.1704L37.592 76.1746C37.6355 76.1746 37.7663 76.1642 37.7745 76.2079L37.8036 76.3702L38.1252 76.4222C38.1915 76.5387 38.2849 76.5907 38.399 76.6115L38.4612 76.778C38.4716 76.8071 38.5795 76.7905 38.6085 76.7946L38.7911 76.8279C38.8305 76.8342 38.8471 76.9528 38.8596 77.0007L39.2081 77.0319L39.2765 77.2025C39.2931 77.2441 39.594 77.1754 39.6147 77.2524L39.6624 77.4231C39.7247 77.4272 39.8574 77.4189 39.8657 77.4605L39.8989 77.6332H40.1914C40.2412 77.6311 40.2806 77.731 40.2993 77.8247L40.6686 77.8455L40.7578 78.0265C40.7868 78.0848 41.069 78.0223 41.0814 78.0723L41.125 78.2325C41.2557 78.2595 41.3491 78.3053 41.4196 78.4302L41.7391 78.478L41.7619 78.6424C41.7661 78.6757 41.8698 78.6736 41.9071 78.6757H42.125C42.1685 78.6778 42.1623 78.8255 42.1685 78.863L42.5171 78.9296C42.5938 79.0399 42.6623 79.0794 42.766 79.1189C42.7805 79.1481 42.8075 79.2604 42.8469 79.2667L43.0295 79.2958C43.0647 79.302 43.1664 79.2916 43.1726 79.3229L43.212 79.4976L43.5855 79.5164L43.6207 79.7057L43.9942 79.7182C43.9983 79.7806 43.9962 79.9013 44.0377 79.9076L44.2265 79.9346L44.2493 80.1011L44.4049 80.1198L44.5979 80.1427C44.6373 80.1469 44.6497 80.2551 44.6622 80.3071L45.0128 80.3695C45.0646 80.4736 45.1435 80.5443 45.2078 80.5505L45.4132 80.5672C45.4526 80.5713 45.4443 80.7108 45.4796 80.7337C45.5148 80.7565 45.6289 80.7461 45.6517 80.7794L45.7513 80.9251L46.0833 80.9729C46.0874 81.0187 46.0833 81.1602 46.1289 81.1602L46.3052 81.1644C46.3488 81.1644 46.4795 81.154 46.4857 81.1977L46.5148 81.3579L46.8571 81.4203C46.9193 81.5473 47.0023 81.5785 47.1123 81.5972L47.1724 81.7657C47.1828 81.7949 47.2907 81.7782 47.3197 81.7845L47.5044 81.8157C47.5438 81.8219 47.55 81.9489 47.5541 81.9967L47.9234 82.0175L47.9649 82.1653C47.9877 82.2485 48.301 82.1549 48.3238 82.2402L48.3695 82.417H48.7657L48.8176 82.621L49.3736 82.6397L49.4752 82.8228L50.3735 82.8374L50.4772 83.0392L52.3796 83.0434C52.4937 83.0434 52.556 82.9705 52.6244 82.8457L53.4584 82.8249C53.502 82.8249 53.5725 82.725 53.6016 82.6647L54.1534 82.6106L54.1928 82.417H54.5974C54.5994 82.3484 54.5974 82.2256 54.6409 82.2214L54.811 82.209L55.004 82.1944C55.0434 82.1923 55.0558 82.0779 55.0683 82.0279L55.4168 81.9905C55.4376 81.8656 55.5185 81.7886 55.6284 81.7928C55.6907 81.7928 55.8027 81.8053 55.8151 81.7678L55.8732 81.5868L56.2384 81.5701L56.2902 81.3808C56.3794 81.3808 56.4749 81.3808 56.4811 81.3413L56.5101 81.181L56.8856 81.1623C56.8898 81.104 56.8919 80.9771 56.9354 80.9729L57.1118 80.9605C57.1532 80.9584 57.2756 80.9688 57.286 80.9292L57.3234 80.7753L57.674 80.7191C57.703 80.6421 57.7196 80.5713 57.7549 80.5589L57.8877 80.511C58.0246 80.2322 58.3005 80.3882 58.3254 80.2884L58.3627 80.1385L58.7403 80.1156C58.7465 80.0615 58.7403 79.9304 58.7818 79.9284L58.9436 79.9138L59.1407 79.8972L59.1843 79.7245L59.3731 79.6807C59.4021 79.6745 59.4 79.5684 59.4042 79.5247L59.7672 79.4997L59.8274 79.3208C59.8461 79.2667 60.1614 79.3249 60.1801 79.2417L60.2133 79.0877L60.5742 79.0648C60.595 78.9982 60.6095 78.9171 60.6448 78.9046L60.8045 78.8463C60.846 78.8318 60.8232 78.6736 60.8647 78.6736H61.0431C61.0867 78.6736 61.2236 78.682 61.2298 78.6383L61.2568 78.4718L61.6385 78.4447C61.6427 78.3698 61.6427 78.2762 61.6717 78.2741L61.8418 78.2595C61.9248 78.2533 62.0285 78.1555 62.0949 78.0952L62.348 77.8704L62.6654 77.808C62.6779 77.7622 62.6903 77.6457 62.7318 77.6436L62.9247 77.6311L63.0886 77.6207C63.1218 77.6187 63.1177 77.5271 63.1198 77.4376L63.5077 77.4106C63.5119 77.3586 63.5202 77.2441 63.5575 77.2337L63.7297 77.1838C63.7463 77.1463 63.7649 77.0339 63.8064 77.0319L63.9766 77.0173C64.0263 77.0131 64.1218 77.011 64.1342 76.9757L64.1819 76.8321L64.545 76.7676C64.5533 76.7072 64.5616 76.5907 64.6031 76.5907L64.7753 76.5845C64.8271 76.5845 64.9371 76.5845 64.9516 76.5449L65.0014 76.4139L65.1549 76.3348C65.1819 76.3202 65.1819 76.2307 65.1881 76.1808L65.5968 76.1704C65.601 76.108 65.6051 75.9852 65.6466 75.981L65.8541 75.9602C65.9246 75.954 66.0117 75.8645 66.0657 75.7771L66.3665 75.7168C66.4536 75.5961 66.493 75.5711 66.5781 75.5004C66.8955 75.2444 67.0283 75.3672 67.0386 75.2902L67.0573 75.1466L67.4536 75.1196C67.4536 75.0634 67.4494 74.9385 67.4909 74.9344L67.6818 74.9177C67.6921 74.8761 67.688 74.7305 67.7336 74.7284L67.9141 74.718C67.9556 74.7159 68.0739 74.7221 68.0822 74.6847L68.1174 74.5286L68.4763 74.5057L68.5365 74.3247C68.5552 74.2685 68.856 74.3309 68.8829 74.2415L68.9244 74.1083C69.0406 74.0896 69.1195 74.0542 69.1796 73.9356L69.524 73.8648C69.5282 73.8128 69.5281 73.6817 69.5717 73.6817H69.7481C69.7916 73.6776 69.9202 73.6859 69.9306 73.6464L69.9846 73.4653C70.1568 73.4861 70.3393 73.432 70.3912 73.2801C70.443 73.2718 70.5571 73.2718 70.5675 73.2323L70.609 73.0825L70.9347 73.0367C71.0322 72.7412 71.3559 72.8952 71.3787 72.7932L71.4098 72.6455L71.7749 72.6226L71.8185 72.4312C71.8268 72.3916 71.9845 72.4457 72.0094 72.4124C72.0363 72.3771 72.0177 72.2293 72.0633 72.2272L72.2376 72.221C72.2811 72.221 72.4035 72.2272 72.418 72.1898L72.4741 72.0275L72.833 72.0004L72.8682 71.8256C72.8724 71.8048 72.9491 71.809 72.9699 71.8069L73.1939 71.7715C73.2334 71.7653 73.2624 71.6508 73.2769 71.6259C73.3827 71.5801 73.4636 71.5198 73.5425 71.4261L73.8703 71.3679C73.8765 71.32 73.8765 71.1827 73.918 71.1827H74.1337C74.1877 71.1806 74.2976 71.1847 74.3059 71.1452L74.3412 70.9871L74.6607 70.9288C74.7478 70.8248 74.8121 70.779 74.9324 70.7249C74.9449 70.702 74.9739 70.5896 75.0134 70.5834L75.1938 70.5542L75.3328 70.5314C75.3702 70.5251 75.3079 70.342 75.4698 70.3378L75.7457 70.3274C75.7602 70.2504 75.7644 70.1464 75.8058 70.1443L75.9697 70.136L76.1419 70.1277C76.1647 70.1277 76.1627 70.0757 76.1627 70.007L76.2477 69.9175C76.3328 69.9279 76.3992 69.9342 76.4033 69.9029L76.4199 69.7323L76.7975 69.7074C76.8037 69.6532 76.8079 69.5346 76.8514 69.5305L77.0236 69.518C77.0651 69.5159 77.1896 69.5284 77.1979 69.4868L77.2352 69.3203L77.5962 69.2725C77.6087 69.2017 77.6149 69.1102 77.6543 69.1018L77.8057 69.0685C77.9406 68.7939 78.229 68.9478 78.2435 68.848L78.2684 68.6857L78.648 68.6732L78.6978 68.4776L79.0007 68.438C79.0795 68.3153 79.1439 68.2757 79.2828 68.2425C79.287 68.2258 79.3015 68.0885 79.343 68.0843L79.5318 68.0614C79.5837 68.0552 79.677 68.0427 79.6874 68.0032L79.7268 67.8533L80.067 67.8284C80.1023 67.8263 80.1106 67.7014 80.1293 67.6681C80.1625 67.6016 80.4861 67.6869 80.5006 67.6016L80.5276 67.433H80.6562C80.8035 67.4372 80.7247 67.2353 80.7807 67.2333L80.9591 67.2291C81.0027 67.2291 81.1313 67.2374 81.1396 67.1958L81.1769 67.0377L81.5524 67.0085L81.5898 66.8337C81.6002 66.7796 81.8761 66.8275 81.9113 66.7734L82.0006 66.634C82.0877 66.5903 82.1645 66.5341 82.2412 66.4509L82.4632 66.3947C82.5005 66.3864 82.5856 66.3822 82.5897 66.351L82.6167 66.1866L83.013 66.1804L83.071 65.9868C83.0876 65.9307 83.3864 66.0305 83.4528 65.8391L83.6561 65.7122C83.6872 65.6331 83.7785 65.5561 83.8386 65.5519L84.044 65.5374C84.0751 65.5353 84.0731 65.4146 84.0772 65.3647L84.3428 65.3397C84.3718 65.3376 84.4361 65.3439 84.4444 65.3251L84.4859 65.2357L84.5274 65.1462L84.8759 65.1254C84.8946 64.9984 84.9216 64.9319 84.961 64.9339C85.0149 64.936 85.1145 64.9402 85.1187 64.909L85.1353 64.7425L85.4859 64.7155C85.5045 64.6697 85.5211 64.5386 85.573 64.5365L85.7825 64.524L85.8945 64.5178C85.9132 64.5178 85.9174 64.4616 85.9277 64.4054C85.9589 64.2348 86.2804 64.3555 86.3136 64.2514L86.353 64.1245C86.6144 64.0954 86.548 63.9227 86.7348 63.9018L86.9339 63.881C86.9754 63.8769 86.9713 63.7416 86.9775 63.6938L87.3634 63.6771L87.3883 63.519C87.4049 63.4129 87.6932 63.5627 87.8281 63.2942C87.8696 63.2838 87.9878 63.2776 87.9982 63.2401L88.0376 63.0862L88.3965 63.0445L88.4235 62.8885C88.4255 62.8698 88.494 62.8448 88.5148 62.8448L88.8052 62.8344L88.8342 62.6742C88.8467 62.6034 89.1828 62.6887 89.2035 62.6055L89.2492 62.4286H89.4276C89.4608 62.4286 89.4566 62.3267 89.4608 62.285C89.4608 62.2622 89.5355 62.2309 89.5562 62.2289L89.8466 62.2081L89.9255 62.0125C90.1661 62.052 90.2284 61.9792 90.3217 61.8377C90.4337 61.8106 90.5001 61.744 90.5541 61.6317L90.8528 61.588C90.9607 61.3029 91.2843 61.4506 91.2989 61.3549L91.3237 61.1947L91.7075 61.1697C91.7221 61.0532 91.7304 60.9866 91.7698 60.9804L91.9212 60.9616L91.9855 60.7827L92.3341 60.7723L92.3901 60.5933C92.4129 60.5205 92.7262 60.662 92.7863 60.4019C92.7988 60.3436 92.9461 60.3353 92.9979 60.3873V67.3602C92.973 67.5266 92.9274 67.614 92.7842 67.6806L92.7718 68.232C92.5664 68.2737 92.5623 68.4464 92.554 68.6191C92.2656 68.7523 92.4233 69.0456 92.3258 69.0644L92.1743 69.0935L92.1287 69.3078C92.0332 69.3203 91.9772 69.3224 91.9689 69.3536L91.9357 69.4639L91.7884 69.5555L91.7075 69.699C91.693 69.724 91.5893 69.7302 91.5685 69.749C91.5374 69.776 91.554 69.9113 91.5146 69.9134L91.3424 69.9258L91.2947 70.0985L91.1329 70.1651C91.1059 70.1755 91.1038 70.2692 91.0976 70.3191L90.7263 70.3378L90.6723 70.5189C90.664 70.548 90.5665 70.5438 90.5354 70.548L90.3466 70.573C90.3051 70.5792 90.2927 70.7145 90.2865 70.7332C90.1537 70.7644 90.1018 70.7894 90.0209 70.9101L89.6869 70.9829C89.6724 71.012 89.6724 71.1619 89.6288 71.1619L89.4628 71.1681L89.2948 71.1743C89.2367 71.1764 89.3031 71.3679 89.1724 71.3762L89.0562 71.3845C89.0168 71.3866 89.0272 71.5593 88.9857 71.5635L88.8654 71.5718L88.66 71.5843C88.6185 71.5863 88.6164 71.707 88.6081 71.7653L88.2326 71.8173C88.2222 71.8756 88.216 71.9817 88.1766 71.9921L88.0231 72.0275C87.8841 72.3084 87.6185 72.1253 87.5833 72.2688L87.5459 72.4103C87.5376 72.4436 87.2161 72.3708 87.1912 72.4457L87.1352 72.6122L86.8157 72.6746C86.741 72.7745 86.6642 72.8244 86.5729 72.8619C86.5584 72.8889 86.5314 73.0096 86.492 73.0138L86.3012 73.0388C86.2493 73.045 86.1601 73.0575 86.1518 73.0949L86.1165 73.2489L85.7493 73.2635L85.6975 73.4528C85.6083 73.4528 85.5128 73.4528 85.5066 73.4924L85.4776 73.6547L85.1124 73.6692L85.0585 73.8586C85.0585 73.8586 84.7411 73.8211 84.4257 74.2123C84.376 74.2748 84.1934 74.2831 84.0917 74.306L84.0316 74.4745C84.0212 74.5016 83.9341 74.4995 83.8967 74.5016L83.683 74.512C83.6416 74.5141 83.6395 74.6452 83.6312 74.6909L83.2557 74.7138C83.2453 74.7762 83.2391 74.8761 83.2017 74.8907L83.0648 74.9427C83.0254 74.9573 83.0441 75.1071 83.0026 75.1092L82.7868 75.1196C82.737 75.1217 82.6375 75.1217 82.6271 75.1591L82.5814 75.3048L82.2184 75.3547C82.2059 75.4213 82.1956 75.5191 82.1562 75.5274L82.0047 75.5607C81.8802 75.8479 81.5815 75.6918 81.569 75.7917L81.5545 75.929L81.1935 75.9748L81.1707 76.1579C81.1686 76.1787 81.0981 76.1621 81.0234 76.1454L80.9446 76.2474C80.928 76.3223 80.9155 76.3702 80.8844 76.3702L80.7454 76.366C80.706 76.366 80.5815 76.3577 80.5691 76.3951L80.511 76.5595L80.1604 76.5824L80.0173 76.7718L79.8658 76.9507L79.5318 77.0194L79.4592 77.1838C79.4405 77.2254 79.1293 77.165 79.1148 77.2399L79.0858 77.4085L78.7206 77.4168L78.6708 77.6249C78.6045 77.6187 78.4862 77.6083 78.4758 77.6499L78.4406 77.8101L78.0651 77.8371C78.0505 77.9349 78.036 78.0265 77.9945 78.0286L77.8348 78.0411C77.7912 78.0452 77.6958 78.0619 77.6771 78.0952L77.6128 78.2096C77.5215 78.2554 77.4344 78.3199 77.3556 78.4115L77.0361 78.4718L76.9842 78.6549C76.9738 78.6924 76.646 78.6237 76.6274 78.6903L76.5797 78.8609C76.5423 78.8713 76.4096 78.8651 76.395 78.9004L76.3369 79.0586L75.9801 79.0836C75.9739 79.1647 75.9718 79.2604 75.9386 79.2646L75.7934 79.2854L75.6108 79.3124C75.5714 79.3187 75.5548 79.4519 75.5507 79.4685C75.4179 79.5018 75.3453 79.5497 75.2706 79.6579L74.9449 79.7161C74.9407 79.7702 74.9407 79.9013 74.8972 79.9013L74.7208 79.9055C74.6752 79.9055 74.5424 79.8951 74.5341 79.9388L74.503 80.1011L74.1835 80.1489C74.1109 80.2696 74.0404 80.3133 73.9035 80.3425C73.8993 80.3612 73.8869 80.5006 73.8474 80.5048L73.6628 80.5318L73.5176 80.5526C73.4865 80.5568 73.4823 80.6546 73.4761 80.7316L73.0964 80.7628C73.0798 80.8502 73.0487 80.9459 73.0031 80.948C72.9305 80.9521 72.8537 80.9563 72.8516 80.9875L72.8454 81.1415L72.4554 81.1623L72.4305 81.3246C72.4263 81.3558 72.3413 81.36 72.3039 81.3683L72.0799 81.4245L71.8475 81.618C71.8019 81.6763 71.6982 81.7824 71.6276 81.7824C71.5571 81.7824 71.443 81.7678 71.4305 81.8074L71.3725 81.9863L71.0053 82.0071C70.999 82.0654 70.997 82.1882 70.9555 82.1902L70.7916 82.1986L70.6194 82.2069C70.5986 82.2069 70.5986 82.2568 70.5986 82.3255L70.5157 82.415C70.4327 82.415 70.3621 82.417 70.3601 82.4483C70.3559 82.5107 70.3538 82.6043 70.3206 82.6064L70.1941 82.6168L69.9991 82.6314C69.9597 82.6334 69.9472 82.7521 69.9327 82.802L69.5904 82.8603C69.495 82.9685 69.4431 83.0122 69.3622 83.0787C69.2979 83.1474 69.1941 83.241 69.1091 83.2473L68.939 83.2619C68.9078 83.2639 68.9058 83.3555 68.8996 83.4304L68.5158 83.4616C68.5116 83.5157 68.5137 83.6406 68.4722 83.6447L68.2793 83.6655C68.2606 83.6967 68.2689 83.8507 68.2232 83.8528L68.0427 83.8632C67.993 83.8653 67.8975 83.8674 67.8872 83.9048L67.8457 84.0505L67.5054 84.0838C67.4453 84.2107 67.383 84.2565 67.2731 84.3168L67.2171 84.4542C67.2046 84.4833 67.1113 84.4729 67.0801 84.4791L66.8955 84.5124C66.8561 84.5187 66.8374 84.6269 66.8229 84.6831L66.4308 84.7101C66.4266 84.7684 66.4246 84.8995 66.381 84.9015L66.2026 84.9078C66.1487 84.9078 66.0428 84.9015 66.0304 84.9411L65.9827 85.0826L65.8271 85.1554L65.7669 85.3094L65.4142 85.3323L65.3748 85.5071C65.3645 85.5549 65.0927 85.505 65.0533 85.5674L64.9661 85.7047C64.8666 85.7547 64.7877 85.813 64.7027 85.9087L64.379 85.9711C64.3707 86.0127 64.3728 86.15 64.3313 86.1521L64.1633 86.1604C64.1218 86.1604 63.9952 86.1521 63.9807 86.1917L63.9205 86.356L63.7359 86.3977L63.7089 86.5558L63.3251 86.5849C63.3106 86.6827 63.2961 86.7743 63.2546 86.7764L63.0949 86.7868C63.0534 86.7889 62.9455 86.8034 62.933 86.8409L62.8833 86.9845L62.5409 87.0198C62.5223 87.0739 62.5057 87.1634 62.4704 87.1738L62.3044 87.23C62.265 87.2425 62.2858 87.4027 62.2443 87.4027H62.0721C62.0285 87.4048 61.8978 87.3985 61.8895 87.4402L61.8563 87.6004L61.5348 87.6524C61.4663 87.7668 61.3813 87.8189 61.263 87.8418L61.2008 88.0082C61.1842 88.0519 60.8937 87.9916 60.8502 88.0852L60.7796 88.2371L60.4518 88.2662C60.4332 88.3224 60.4145 88.4098 60.3792 88.4223L60.2174 88.4785C60.178 88.4931 60.1987 88.6512 60.1572 88.6512H59.9768C59.9311 88.6512 59.8108 88.645 59.8025 88.6866L59.7693 88.8572L59.4726 88.8614L59.3814 88.9404C59.3648 89.0153 59.3502 89.0632 59.3191 89.0632H59.1801L59.1096 89.2567L58.7652 89.3004C58.7569 89.3712 58.7528 89.4877 58.7092 89.4877L58.5349 89.4919C58.4914 89.4919 58.3669 89.4918 58.3565 89.5335L58.3212 89.6874L57.9457 89.7083C57.9416 89.7582 57.9499 89.8872 57.9084 89.8934L57.7217 89.9247C57.703 89.9538 57.7092 90.1036 57.6657 90.1057L57.4914 90.114C57.4458 90.1161 57.3234 90.1036 57.3151 90.1452L57.2798 90.3013L56.9707 90.3512L56.7176 90.5801C56.423 90.8444 56.2985 90.705 56.2778 90.7882L56.2404 90.938L55.8649 90.9588C55.8608 91.0109 55.8649 91.1399 55.8234 91.144L55.6326 91.1607C55.6222 91.2044 55.6243 91.35 55.5807 91.3521L55.4002 91.3646C55.3587 91.3667 55.2384 91.3563 55.2322 91.3958L55.199 91.556L54.8297 91.5748C54.8214 91.6247 54.8131 91.7391 54.7737 91.7495L54.6077 91.7995C54.5185 92.1179 54.2302 91.8473 54.1161 92.1657L53.7841 92.2136C53.78 92.2698 53.78 92.3988 53.7364 92.4008L53.5601 92.4071C53.5165 92.4071 53.3796 92.3946 53.3734 92.4362L53.3464 92.6068L52.9605 92.6318C52.9398 92.7005 52.8775 92.8108 52.8319 92.8128L52.1825 92.8337L52.0664 93.0064H50.9046L50.8237 92.8253L50.0478 92.8087C50.0416 92.7359 50.0395 92.6214 49.998 92.6214H49.8258C49.7802 92.6172 49.6495 92.6214 49.6432 92.5777L49.6163 92.4133L49.2221 92.3925C49.2221 92.3093 49.2304 92.2115 49.1993 92.2094L49.0292 92.1969C48.9503 92.1907 48.8404 92.0991 48.7781 92.018L48.6039 91.9701L48.5416 91.7974L48.2637 91.7704C48.2056 91.7641 48.1682 91.6351 48.1433 91.5748L47.774 91.556C47.7533 91.4749 47.7409 91.402 47.7035 91.3875L47.5728 91.3313C47.5334 91.3147 47.5541 91.1628 47.5106 91.1628H47.3384C47.2907 91.1628 47.1537 91.1711 47.1475 91.1274L47.1206 90.9567L46.7409 90.9318C46.7368 90.8569 46.7388 90.7653 46.7077 90.7612L46.5542 90.7403C46.5106 90.7341 46.4069 90.7341 46.3862 90.7008L46.299 90.5593C46.1911 90.5302 46.104 90.4615 46.0418 90.3429L45.7119 90.3013C45.6995 90.2576 45.6891 90.1348 45.6497 90.1327L45.4443 90.1182C45.4069 90.1161 45.3032 90.1182 45.2991 90.0849L45.2783 89.9143L45.0875 89.8997C45.046 89.8976 45.0501 89.7748 45.0501 89.7103L44.6601 89.6874L44.6228 89.5168C44.6165 89.4877 44.49 89.5813 44.1809 89.3358C44.0875 89.2609 44.0502 89.2484 43.9651 89.1111L43.6249 89.0507C43.6187 89.007 43.6145 88.878 43.573 88.8759L43.407 88.8697C43.3593 88.8697 43.2266 88.8759 43.2203 88.8322L43.1954 88.6658L42.8033 88.6429C42.7971 88.5284 42.793 88.4514 42.7515 88.4494L42.5959 88.439L42.5357 88.26C42.5212 88.2163 42.1934 88.2871 42.1789 88.2225L42.1395 88.0519L41.7806 88.0082C41.7723 87.9562 41.7702 87.8418 41.7308 87.8334L41.5793 87.8001C41.4258 87.5192 41.154 87.6753 41.1374 87.5837L41.1084 87.4152L40.7391 87.4027L40.6914 87.2154L40.5109 87.1821L40.4425 87.0136C40.4238 86.9678 40.1105 87.0386 40.096 86.972L40.0628 86.8055L39.6915 86.7618C39.6811 86.7056 39.6769 86.5933 39.6375 86.5849L39.4799 86.5537C39.4321 86.4122 39.2392 86.3519 39.0732 86.3706L39.0172 86.1917C38.9923 86.1126 38.6604 86.2125 38.6459 86.1334L38.6148 85.9711L38.2787 85.9066C38.1978 85.7984 38.1314 85.7609 38.0339 85.7151L37.9467 85.5695C37.9094 85.5071 37.6293 85.582 37.6086 85.4863L37.5754 85.3323L37.202 85.3156C37.1937 85.2553 37.1895 85.1492 37.1522 85.1408L36.9758 85.1013C36.9572 85.0639 36.9634 84.9203 36.9198 84.9203H36.7331C36.6875 84.9203 36.5692 84.9265 36.5609 84.8849L36.5319 84.7247L36.1916 84.6602C36.1107 84.5499 36.0443 84.5103 35.9468 84.4667L35.8597 84.3231C35.8244 84.2669 35.5464 84.3148 35.5361 84.2648L35.4987 84.09L35.1232 84.0609C35.1149 83.9964 35.1087 83.8861 35.0672 83.884L34.9012 83.8715L34.7104 83.8487L34.6751 83.6947L34.5071 83.6281C34.478 83.6156 34.4822 83.5282 34.4801 83.4658L34.0901 83.445C34.0652 83.2889 33.9822 83.2369 33.8328 83.239C33.7789 83.239 33.6897 83.2244 33.6772 83.1869L33.6316 83.06C33.5113 83.0455 33.4158 82.9789 33.3598 82.8644L33.0694 82.802L33.0072 82.6439C32.9906 82.6022 32.6877 82.6626 32.669 82.5918L32.6254 82.415C32.5777 82.415 32.4221 82.4337 32.4159 82.39L32.391 82.2152L32.03 82.2048L31.9699 82.0279C31.947 81.9613 31.7271 82.1028 31.5217 81.8677L31.3039 81.6159L30.9782 81.5639C30.9637 81.5223 30.9512 81.3954 30.9118 81.3933L30.7085 81.3808C30.6732 81.3787 30.5695 81.3808 30.5654 81.3454L30.5467 81.1769L30.167 81.1519C30.1546 81.0354 30.1463 80.9667 30.1048 80.9605C30.0737 80.9563 29.9596 80.9709 29.9471 80.9417L29.8828 80.7711C29.8662 80.7274 29.5467 80.7982 29.5322 80.7337L29.4928 80.5672L29.1567 80.511C28.9202 80.1115 28.4887 80.126 28.4825 80.0907L28.4555 79.9242L28.0821 79.9117L28.0406 79.7245L27.856 79.6891L27.7916 79.5226C27.775 79.4789 27.4576 79.5476 27.4431 79.4831L27.4078 79.3124L27.0448 79.2729C27.0365 79.2126 27.0303 79.1044 26.9909 79.096L26.8373 79.0627C26.7025 78.7943 26.4162 78.9421 26.3996 78.8401L26.3747 78.6757L25.9992 78.6674L25.9515 78.478C25.937 78.4198 25.659 78.5384 25.5303 78.2804C25.4868 78.272 25.3685 78.27 25.3582 78.2283L25.3229 78.066L24.9578 78.0286C24.9515 77.9682 24.9495 77.8392 24.908 77.8392L24.7358 77.833C24.6964 77.833 24.574 77.8351 24.5615 77.7976L24.5097 77.6415C24.4391 77.6332 24.3229 77.6332 24.3167 77.5916L24.2918 77.4272L23.9246 77.4189L23.8707 77.2254C23.8562 77.1713 23.5802 77.294 23.4392 77.036C23.3977 77.0215 23.2981 77.0027 23.2856 76.9674L23.2317 76.8259L22.8728 76.7738C22.8666 76.7114 22.8604 76.5886 22.8189 76.5886L22.6446 76.5845C22.599 76.5845 22.4786 76.5886 22.4703 76.547L22.4371 76.3889L22.0741 76.3722L22.0243 76.1829L21.8397 76.1558L21.7816 75.9727C21.7691 75.9353 21.4683 76.0039 21.4413 75.929L21.3895 75.7854L21.0347 75.7251C21.016 75.6752 20.9953 75.5732 20.958 75.5628L20.8231 75.5212C20.6945 75.234 20.402 75.3901 20.3833 75.2923L20.3522 75.1404L19.9829 75.1258C19.9767 75.0613 19.9746 74.949 19.9331 74.9406L19.7506 74.9032L19.6904 74.7263L19.512 74.7138C19.4497 74.7097 19.3564 74.7076 19.3481 74.6847L19.2983 74.5411L18.9933 74.4745L18.7402 74.2519L18.678 74.1291C18.6489 74.0708 18.3751 74.1333 18.3357 74.0459L18.2672 73.894L17.8959 73.8752C17.8896 73.8066 17.8896 73.688 17.8461 73.6838L17.6739 73.6692L17.4913 73.6526C17.4602 73.6505 17.483 73.5111 17.454 73.4986L17.288 73.4279C17.261 73.4154 17.259 73.3384 17.2507 73.2739L16.8876 73.2552L16.8378 73.0741C16.8254 73.0263 16.5515 73.0741 16.5183 73.0159L16.4354 72.8723C16.3254 72.8328 16.2466 72.7807 16.1698 72.6725L15.8503 72.6163L15.8026 72.4312C15.7943 72.3979 15.4562 72.4624 15.4396 72.3979L15.396 72.2231C15.3587 72.2147 15.2134 72.2272 15.2051 72.1856L15.174 72.0192L14.8068 72.0087L14.7508 71.8277C14.7321 71.7695 14.423 71.8319 14.3981 71.7486L14.3546 71.5988L14.0081 71.5655C13.9915 71.5093 13.9749 71.4178 13.9396 71.4074L13.7674 71.3554C13.728 71.3429 13.755 71.1785 13.7114 71.1764H13.5392C13.4936 71.1764 13.3588 71.1868 13.3525 71.1431L13.3235 70.9787L12.9999 70.933C12.9355 70.8123 12.8484 70.7603 12.726 70.7436L12.6679 70.573C12.6575 70.5438 12.5538 70.5584 12.5206 70.5542L12.3339 70.5314C12.2924 70.5272 12.28 70.4023 12.2696 70.3503L11.9148 70.3233L11.8651 70.1464L11.6908 70.1152L11.6223 69.9466L11.4896 69.8946L11.419 69.7406C11.4066 69.7136 11.3049 69.7136 11.2862 69.6907C11.2613 69.6616 11.2448 69.5617 11.2095 69.545L11.0892 69.4868C11.0373 69.3931 10.9647 69.3245 10.863 69.2704C10.8568 69.2392 10.8568 69.1081 10.8174 69.0998L10.6556 69.0644L10.612 68.6981C10.556 68.6919 10.4294 68.6877 10.4274 68.6461L10.4232 68.4755C10.4232 68.4318 10.4232 68.307 10.3817 68.2945L10.2303 68.2466L10.2158 67.6348L10 67.6161Z" fill="#4D6D89"/>
<path d="M52.3502 10.0021L52.3191 10.1977L52.8564 10.2372C52.9913 10.5618 53.2796 10.2809 53.3585 10.6138C53.3896 10.6201 53.5058 10.6159 53.5223 10.6534L53.595 10.8053C53.7443 10.8823 53.931 11.0695 54.0057 11.2173L54.1592 11.2901C54.1945 11.3068 54.1883 11.417 54.1924 11.4607C54.5244 11.519 54.2464 11.8186 54.5679 11.9539L54.6094 12.4658L54.8086 12.5199V64.0661L54.6094 64.1202L54.5659 64.6487C54.2879 64.7174 54.4372 65.0483 54.3563 65.094L54.209 65.1773L54.1281 65.325L53.9912 65.3645L53.9518 65.5393C53.9435 65.5768 53.8273 65.5747 53.8086 65.608L53.7236 65.7578L53.5929 65.8119C53.5597 65.8244 53.5618 65.9555 53.5223 65.9638L53.346 66.0013C53.3253 66.0346 53.3273 66.1782 53.2838 66.1782L53.1033 66.1844C53.0556 66.1844 52.9415 66.1761 52.9352 66.2177L52.9103 66.3862L52.373 66.4174L52.2672 66.6006L50.6968 66.5943C50.6739 66.5277 50.6138 66.4133 50.5744 66.4112L50.0868 66.3883L50.0495 66.1802L49.6429 66.1844L49.591 66.0013C49.5827 65.9721 49.4769 65.9721 49.4562 65.9493C49.4313 65.9201 49.4167 65.8223 49.3815 65.8057L49.2383 65.7391C49.1719 65.6579 49.0973 65.583 49.0205 65.5164L48.9458 65.3625L48.8193 65.3104C48.7881 65.298 48.7798 65.1669 48.7404 65.1585L48.5828 65.1232V64.7195L48.3815 64.68L48.3525 64.1452L48.1699 64.0224V12.5636L48.3546 12.4387L48.3795 11.9123L48.5848 11.8707V11.5107L48.7736 11.4628L48.811 11.2797L48.9666 11.209C48.9935 11.1965 48.9935 11.0945 49.0164 11.0737C49.0433 11.0467 49.1471 11.0321 49.1636 10.9988L49.2342 10.8531C49.2757 10.8427 49.3856 10.8407 49.4043 10.8053L49.4686 10.6804L49.6864 10.4411C49.8337 10.4287 50.0329 10.437 50.0765 10.2331L50.6698 10.1998L50.6739 10H52.3461L52.3502 10.0021Z" fill="#4D6D89"/>
<path d="M72.2372 10.0021V10.1977L72.7745 10.2351C72.9031 10.5618 73.1956 10.2788 73.2766 10.6138C73.3077 10.6201 73.4238 10.6159 73.4404 10.6534L73.5131 10.8053C73.6603 10.8802 73.8471 11.0675 73.9259 11.2173L74.0773 11.2922C74.1126 11.3088 74.1105 11.4212 74.1168 11.4566C74.4404 11.5377 74.1665 11.8166 74.4923 11.9622L74.5275 12.4679L74.7288 12.522V52.4322L74.5275 52.4863L74.486 53.0128C74.2101 53.0835 74.374 53.3811 74.2495 53.4393L74.1251 53.4997L74.0815 53.6641L73.93 53.7369L73.7454 53.9595L73.6417 54.0865C73.623 54.1094 73.5255 54.1114 73.5131 54.1385L73.4404 54.3008C73.4238 54.3382 73.3118 54.3341 73.2766 54.3403C73.1956 54.6712 72.8782 54.3944 72.7952 54.7107L72.2683 54.7565L72.2185 54.95H70.6024L70.5588 54.7461L70.0443 54.719C69.9365 54.409 69.6253 54.5942 69.5589 54.4714C69.5444 54.4444 69.534 54.3591 69.507 54.3445L69.3556 54.2696L69.312 54.1343L69.144 54.0927C69.1066 54.0823 69.1066 53.9658 69.0714 53.9471L68.922 53.8638L68.8701 53.7327L68.7125 53.6661L68.6959 53.4997L68.5257 53.4435C68.449 53.4185 68.5465 53.0856 68.4656 53.0731L68.2975 53.0461L68.2685 52.5134L68.0859 52.3906V12.5636L68.2727 12.4387L68.2913 11.931L68.4946 11.8748L68.5029 11.5107L68.6896 11.4607C68.7291 11.4503 68.6959 11.3026 68.7291 11.2776C68.7623 11.2527 68.866 11.2423 68.8826 11.2048L68.9407 11.0799C69.034 11.03 69.1046 10.9572 69.1564 10.8552C69.2021 10.8469 69.3016 10.8407 69.3203 10.8032L69.3846 10.6804L69.6025 10.4411C69.7518 10.4266 69.951 10.437 69.9925 10.2331L70.5858 10.1998L70.59 10H72.233L72.2372 10.0021Z" fill="#4D6D89"/>
<path d="M31.5885 10.0022L31.5636 10.1999L32.0947 10.2457C32.2316 10.5286 32.5013 10.3747 32.5594 10.4579L32.6569 10.5973C32.6797 10.6306 32.7772 10.6514 32.7897 10.6889L32.8332 10.8262L33.0075 10.8616C33.0449 10.8699 33.0407 10.9948 33.076 11.0114L33.2274 11.0926L33.2772 11.2236C33.2876 11.2528 33.4183 11.2569 33.4266 11.2944L33.4681 11.4671C33.4784 11.5087 33.6444 11.4879 33.6444 11.5316V11.7126C33.6444 11.7647 33.6382 11.8749 33.6797 11.8812L33.8456 11.9103L33.8851 12.4409L34.0635 12.5679V52.3907L33.8809 52.5156L33.8539 53.0524C33.8 53.0566 33.6589 53.0483 33.6589 53.0899L33.6548 53.2605C33.6548 53.3042 33.6631 53.427 33.6237 53.4415L33.4598 53.504L33.4141 53.6871L33.2834 53.7391C33.2336 53.8306 33.1527 53.9139 33.0739 53.968L32.9826 54.1116L32.8395 54.1344L32.771 54.2926L32.6445 54.3404L32.5677 54.4965C32.5304 54.5714 32.1818 54.4258 32.1258 54.7067L31.5947 54.7545L31.5491 54.948H29.9309L29.8853 54.7462L29.3728 54.7171C29.265 54.4216 28.989 54.5881 28.933 54.4674L28.8729 54.3404L28.7069 54.3009L28.6405 54.1448C28.5534 54.0907 28.4642 54.0346 28.4082 53.9638L28.2235 53.7349L28.0742 53.6579C28.0389 53.6392 28.041 53.5289 28.0347 53.4956C27.7049 53.4124 27.9849 53.1294 27.6592 52.99L27.624 52.4844L27.4248 52.4302V12.5221L27.624 12.468L27.6634 11.9374C27.9476 11.8749 27.7816 11.5711 27.904 11.5129L28.0285 11.4546L28.0721 11.2881L28.2235 11.2174C28.2982 11.0717 28.487 10.8865 28.6343 10.8033L28.709 10.6535C28.7276 10.6181 28.8376 10.6223 28.877 10.616C28.9434 10.2873 29.2401 10.564 29.3687 10.2415L29.9122 10.1957V10.0022H31.5864H31.5885Z" fill="#4D6D89"/>
<path d="M56.9045 77.2129L56.7302 77.2212C56.6846 77.2233 56.6887 77.3648 56.6763 77.4044L56.4896 77.4314C56.4501 77.4376 56.4522 77.5604 56.446 77.6166L56.0746 77.6353L56.0415 77.7914C56.0332 77.833 55.9128 77.833 55.8672 77.833H55.6929C55.6514 77.833 55.6431 77.9558 55.6348 78.0161L55.2925 78.0785C55.0664 78.4552 54.639 78.4822 54.6432 78.4718L54.5851 78.6612L54.2179 78.6716L54.1909 78.836C54.1743 78.9358 53.9088 78.786 53.7553 79.0524L53.6059 79.0898C53.5665 79.1002 53.5582 79.2001 53.5478 79.2709L53.0146 79.3083L52.9316 79.4977L52.3715 79.5081L52.2699 79.6995L50.7367 79.6953L50.633 79.4997H50.0542L49.9961 79.2958L49.4567 79.2709L49.4194 79.1044C49.4111 79.0649 49.2928 79.0649 49.241 79.0586C49.187 78.9067 49.0045 78.8505 48.8343 78.8713L48.7804 78.6924C48.768 78.6528 48.6414 78.6612 48.5999 78.6612H48.4215C48.3779 78.6591 48.3779 78.528 48.3738 78.4718L48.0481 78.4136C47.9858 78.3074 47.8904 78.2492 47.7722 78.2284L47.7327 78.0889C47.7058 77.9953 47.3967 78.0744 47.3801 78.0182L47.324 77.8288L46.9589 77.8122L46.9278 77.652C46.9195 77.6124 46.8013 77.6249 46.7556 77.6208L46.5772 77.6104C46.5316 77.6083 46.5357 77.4605 46.5274 77.4168L46.3324 77.4044C46.2909 77.4023 46.2951 77.2691 46.2909 77.215L45.9154 77.1984L45.8801 77.0465C45.8552 76.9424 45.5503 77.111 45.4486 76.8051L45.125 76.7614L45.0731 76.6199C45.0607 76.5845 44.9569 76.5699 44.9134 76.5554C44.764 76.2828 44.4777 76.4264 44.4632 76.3348L44.4362 76.1683L44.0338 76.1621L43.9985 75.9998C43.986 75.9436 43.5649 75.9998 43.3616 75.5691L43.0193 75.5129C43.0068 75.4713 42.9985 75.3443 42.957 75.3423L42.762 75.3256C42.7309 75.3235 42.6106 75.3464 42.6023 75.3152L42.5504 75.1342L42.1791 75.1196L42.1521 74.9573L41.9882 74.8866L41.9405 74.7492C41.9281 74.7097 41.8326 74.7076 41.7745 74.7055L41.5691 74.6972C41.5297 74.6972 41.5173 74.5703 41.5028 74.5287L41.1833 74.4725C41.1003 74.3788 41.0194 74.3102 40.9281 74.2498C40.7767 73.9606 40.5339 74.2144 40.424 73.9065L40.0983 73.8607L40.0692 73.6984C40.0609 73.6547 39.9282 73.663 39.8846 73.663H39.7041C39.6626 73.6651 39.6854 73.5049 39.6439 73.4903L39.4821 73.4341C39.4468 73.4217 39.4323 73.3405 39.4116 73.2718L39.0485 73.2489L39.0153 73.095C38.9967 73.0076 38.6772 73.0679 38.6627 73.0201L38.6066 72.8349L38.2457 72.8161L38.2104 72.658C38.2021 72.6185 38.0901 72.6268 38.0175 72.6309L37.9739 72.4208H37.6005L37.5756 72.246C37.5693 72.2023 37.4386 72.2085 37.3909 72.2065H37.2187C37.1772 72.2023 37.171 72.0837 37.1648 72.0275L36.8412 71.9776C36.7706 71.8631 36.6959 71.8048 36.5818 71.7674L36.4968 71.6259C36.476 71.5926 36.3785 71.5905 36.3329 71.5864L36.1752 71.5697C36.1337 71.5656 36.1296 71.4407 36.1254 71.3887L35.752 71.3741L35.7271 71.2035C35.7209 71.1619 35.6026 71.1681 35.5549 71.1681H35.3682C35.3226 71.1681 35.3267 71.0225 35.3143 70.9808L35.1338 70.9496C35.0944 70.9434 35.0923 70.8352 35.084 70.7728L34.7126 70.754L34.6566 70.5751C34.6442 70.5376 34.5218 70.5522 34.4824 70.546L34.3288 70.5251C34.2874 70.5189 34.2749 70.4045 34.2645 70.3504L33.916 70.3171L33.8683 70.1756C33.8558 70.1402 33.7625 70.1381 33.6899 70.1235L33.6276 69.9279L33.2604 69.9217L33.2355 69.7532C33.2293 69.7115 33.1173 69.7136 33.0654 69.7115L32.8621 69.7032C32.8227 69.7032 32.8082 69.5763 32.7937 69.5367L32.4783 69.4764L32.2273 69.2517C32.1588 69.1913 32.0551 69.0894 31.9742 69.0831L31.802 69.0706C31.7709 69.0686 31.7709 68.977 31.7688 68.9L31.3871 68.875L31.3601 68.7065C31.3539 68.6628 31.219 68.6711 31.1734 68.6711H30.9971C30.9535 68.6711 30.9784 68.5109 30.9369 68.4963L30.7751 68.4402C30.7398 68.4277 30.7253 68.3465 30.7045 68.2779L30.3373 68.2529C30.3311 68.2113 30.3228 68.0802 30.2834 68.0739L30.1008 68.0469L29.9535 68.0261C29.9224 68.0219 29.9204 67.9283 29.9162 67.8471L29.5345 67.8201L29.5075 67.6619L29.3187 67.6203L29.2627 67.4538C29.2503 67.4143 29.1216 67.4247 29.0822 67.4247L28.91 67.4206C28.8685 67.4206 28.8727 67.2791 28.8685 67.225L28.493 67.2083L28.4578 67.0585C28.437 66.9711 28.157 67.0377 28.1175 66.9711L28.0325 66.8275C27.9184 66.7942 27.8437 66.736 27.7732 66.6153L27.4474 66.5737L27.4143 66.4155C27.406 66.376 27.2856 66.3864 27.24 66.3843L27.0616 66.376C27.018 66.376 27.0201 66.2428 27.018 66.1804L26.6301 66.17L26.601 65.9661L26.4226 65.9577C26.3811 65.9577 26.379 65.8391 26.3728 65.7809L26.0015 65.758L25.9454 65.579C25.9289 65.5249 25.6322 65.5665 25.6156 65.527L25.543 65.3522L25.2007 65.3168C25.1841 65.2648 25.1696 65.167 25.1343 65.1587L24.96 65.115L24.9268 64.9506L24.7443 64.9319L24.57 64.9215C24.5264 64.9194 24.5285 64.7987 24.5244 64.73L24.1323 64.7072L24.0825 64.5636C24.0513 64.472 23.7609 64.5261 23.7381 64.4762L23.6676 64.3222C23.5555 64.3056 23.4788 64.2639 23.4124 64.137L23.0929 64.0767L23.0369 63.9185C23.0141 63.854 22.6966 63.9185 22.6863 63.879L22.6406 63.6875L22.2589 63.6709C22.2527 63.621 22.2506 63.5024 22.2133 63.4899L22.0452 63.442L21.9934 63.3109C21.9768 63.2714 21.8585 63.2672 21.8149 63.2651L21.6552 63.2589L21.5805 63.0904L21.232 63.0238L21.1926 62.8677C21.176 62.8011 20.8648 62.8656 20.8461 62.824L20.7777 62.6617L20.5972 62.6201C20.5577 62.6118 20.5619 62.4911 20.5557 62.437L20.1802 62.4266L20.1511 62.2622C20.1325 62.1602 19.7943 62.308 19.7258 62.0437L19.3877 61.9771L19.3317 61.8419C19.3171 61.8065 19.2134 61.794 19.174 61.7794C19.035 61.4964 18.7632 61.6296 18.7487 61.5818L18.6927 61.3986L18.3276 61.3841L18.3027 61.2176C18.2965 61.176 18.1637 61.1822 18.1056 61.1781L18.0599 61.0074C18.0496 60.9679 17.9189 60.9741 17.8774 60.9721L17.7093 60.9679C17.6699 60.9679 17.6679 60.8389 17.6616 60.7827L17.2882 60.764L17.2322 60.585C17.2156 60.5309 16.9293 60.5746 16.9065 60.533L16.8256 60.3832C16.7239 60.3395 16.643 60.2833 16.5621 60.1814L16.2426 60.1293L16.2136 59.965C16.2053 59.9233 16.0849 59.9317 16.0393 59.9317H15.8588C15.8152 59.9296 15.8132 59.7964 15.8111 59.7423L15.4792 59.6903L15.3837 59.5446C15.3609 59.5113 15.224 59.5405 15.2136 59.5009L15.168 59.3594C15.1555 59.3199 15.0705 59.3199 15.0082 59.3116L14.8236 59.2845C14.7842 59.2783 14.7676 59.1659 14.7531 59.1056L14.3962 59.0806L14.3547 58.9308C14.3319 58.8475 14.0145 58.9308 13.9979 58.8559L13.9606 58.679L13.7697 58.6748C13.7261 58.6748 13.7282 58.5479 13.7261 58.4813L13.3548 58.4668L13.3216 58.3149C13.3133 58.2753 13.2033 58.2732 13.1515 58.2712L12.9461 58.2649C12.9046 58.2649 12.8922 58.1276 12.8756 58.088L12.5229 58.0339L12.4793 57.88C12.4689 57.8404 12.3486 57.8363 12.305 57.8259C12.1329 57.5241 11.8756 57.7801 11.8632 57.4534L11.6868 57.4263C11.6474 57.4201 11.6536 57.2911 11.6267 57.264C11.6059 57.2432 11.5084 57.2411 11.496 57.2141L11.4234 57.0684L11.2906 57.0185L11.218 56.852L11.0873 56.8146L11.0105 56.6606L10.8051 56.4317L10.6806 56.3734C10.6433 56.3568 10.6371 56.2756 10.6288 56.2132L10.6039 56.0259C10.5977 55.9864 10.4794 55.9677 10.4255 55.9552L10.4006 55.4079L10.2139 55.3309L10.218 52.8797L10.4089 52.8048L10.4441 52.3054C10.5603 52.2201 10.6184 52.1514 10.6599 52.0453L10.7989 51.9558C10.8321 51.935 10.8342 51.8331 10.8404 51.7873L10.8611 51.6375C10.8653 51.6084 10.9669 51.5896 10.9939 51.5792C11.0479 51.4897 11.1267 51.4107 11.2138 51.3649L11.274 51.238C11.2906 51.2005 11.4171 51.1943 11.4296 51.1631L11.4794 51.0361L11.6225 50.9508C11.6474 50.9362 11.6619 50.8572 11.6764 50.8301C11.7304 50.7365 11.9731 50.8072 12.0125 50.7406L12.0997 50.5929L12.2615 50.543L12.3175 50.3682L12.6888 50.3495L12.72 50.1892C12.7283 50.1497 12.8465 50.1601 12.888 50.158L13.0706 50.1497C13.1162 50.1497 13.11 50.002 13.1245 49.9666L13.3091 49.9374C13.3486 49.9312 13.3465 49.8105 13.3506 49.7543L13.722 49.7356L13.7552 49.5795C13.7635 49.5379 13.8859 49.5421 13.9294 49.5421L14.1037 49.5359C14.1452 49.5359 14.1535 49.4152 14.1618 49.3527L14.5041 49.2924C14.5892 49.1259 14.8589 48.9303 15.0331 48.9158L15.1949 48.9012C15.2261 48.8991 15.2219 48.8034 15.224 48.7222L15.6099 48.6952L15.6348 48.5329C15.6389 48.5017 15.7364 48.4975 15.7738 48.4934L15.975 48.4788C16.0144 48.4767 16.031 48.3602 16.0455 48.3082L16.4044 48.2561L16.4604 48.1126C16.475 48.0772 16.5725 48.0626 16.6119 48.0481C16.6721 47.9627 16.7841 47.8691 16.8712 47.8629L17.0372 47.8504C17.0683 47.8483 17.0704 47.7547 17.0766 47.6798L17.4583 47.6569L17.4874 47.4862C17.4936 47.4446 17.6201 47.4488 17.6637 47.4488H17.8463C17.8898 47.4488 17.8629 47.2823 17.9044 47.2719L18.0807 47.2282C18.118 47.2199 18.1243 47.12 18.1346 47.0597L18.4977 47.0368L18.5288 46.8807C18.5454 46.7975 18.8545 46.8641 18.8815 46.8016L18.9603 46.6269L19.3068 46.5998L19.3503 46.4541C19.3607 46.4167 19.4603 46.4167 19.508 46.4125L19.6864 46.4021C19.7321 46.4 19.7279 46.2544 19.7383 46.2128L19.9312 46.194C19.9727 46.1899 19.9727 46.065 19.9769 46.0088L20.3482 45.9901L20.3835 45.8361C20.3918 45.7966 20.5038 45.8008 20.5536 45.7966L20.7569 45.7841C20.7984 45.782 20.8129 45.6634 20.8274 45.6072L21.1863 45.5573L21.2258 45.4012C21.2361 45.3617 21.3565 45.3596 21.398 45.3513C21.539 45.087 21.8046 45.2057 21.8191 45.1557L21.8689 44.9705L22.2361 44.9559L22.2672 44.7916C22.288 44.6854 22.6178 44.8498 22.7091 44.5585L23.0348 44.5086C23.0473 44.4586 23.0597 44.3796 23.0867 44.3692L23.2402 44.3067C23.3833 44.0321 23.651 44.1611 23.6676 44.1111L23.7236 43.9259L24.1115 43.9218V52.6071L24.3107 52.7549L24.3376 53.6809L24.5119 53.7121C24.6032 53.7287 24.3999 54.1074 24.7069 54.1948L24.7505 54.5298L24.9165 54.559C24.9579 54.5652 24.9413 54.7005 24.9434 54.7442L24.9517 54.9189C24.9538 54.9626 25.0866 54.9606 25.1426 54.9626L25.1633 55.3289L25.3355 55.3871L25.3874 55.5515L25.516 55.6056C25.5969 55.6389 25.5451 55.8844 25.6011 55.9136L25.7546 55.9947L25.8044 56.157L25.962 56.2257L26.0056 56.361L26.1674 56.4296L26.211 56.5628L26.379 56.6273C26.4122 56.6398 26.433 56.7313 26.4558 56.7605C26.5222 56.852 26.7276 56.8021 26.7545 56.85L26.8375 57.0019L27.0014 57.0539L27.0595 57.2245L27.4184 57.2349L27.4454 57.4097C27.4516 57.4534 27.5823 57.443 27.6279 57.4451H27.8043C27.8478 57.4472 27.8437 57.5803 27.8478 57.6323L28.1839 57.6823L28.2814 57.8321C28.3043 57.8675 28.4349 57.8508 28.4764 57.8529H28.6466C28.688 57.8571 28.6901 57.9715 28.6943 58.0527L29.6299 58.0693L29.7357 58.2753H31.7232L31.8518 58.086L32.7708 58.0506L32.8414 57.855L33.2127 57.8446C33.3123 57.5595 33.6131 57.6906 33.6297 57.6365L33.6816 57.4451H34.0799L34.1131 57.2432L34.4699 57.2183C34.4844 57.16 34.4927 57.0913 34.5176 57.0788L34.6691 57.0019L34.7189 56.8666C34.7479 56.7854 35.0508 56.8375 35.0715 56.7896L35.14 56.6252L35.2686 56.5774L35.3412 56.4296L35.4761 56.3797L35.5487 56.2195L35.7001 56.1508L35.7499 55.9885C35.835 55.9531 35.9366 55.8636 35.9408 55.795L35.9532 55.6202L36.1296 55.5619L36.1669 55.383C36.1752 55.3434 36.2935 55.3414 36.3453 55.3351L36.3931 55.0001C36.7105 54.8773 36.4366 54.6089 36.7603 54.4945L36.7997 54.1615L36.949 54.1157C37.059 54.0825 36.8453 53.7266 37.1669 53.6413L37.1918 52.732L37.3951 52.68V36.231L37.783 36.2082L37.8121 36.0542C37.8204 36.0146 37.9179 36.0063 37.9884 35.9938L38.0569 35.8503C38.0921 35.7753 38.3743 35.8398 38.3909 35.7962L38.4635 35.6193L38.8245 35.5714L38.8577 35.4091C38.866 35.3696 38.9821 35.38 39.0278 35.3779L39.2041 35.3696C39.2477 35.3696 39.229 35.2135 39.2705 35.2031L39.4468 35.1615C39.4863 35.1532 39.4863 35.0304 39.4925 34.9805L39.8701 34.9638L39.897 34.7953C39.9033 34.7537 40.0257 34.7599 40.0713 34.7578L40.2435 34.7537C40.285 34.7537 40.2933 34.633 40.3016 34.5789L40.6252 34.5248C40.6937 34.4228 40.7829 34.3521 40.8783 34.3167L40.9447 34.2002C41.0069 34.0899 41.2912 34.2418 41.3658 33.9733L41.7434 33.9172L41.7766 33.7549C41.7911 33.6841 42.1251 33.7486 42.1355 33.7132L42.1894 33.5322L42.5089 33.4719C42.5898 33.3824 42.6749 33.3179 42.7683 33.2721L42.8326 33.1577C42.8824 33.0661 43.1604 33.1306 43.179 33.0724L43.2371 32.8934L43.5981 32.8768L43.6313 32.7144C43.6396 32.6749 43.7641 32.6853 43.8055 32.6832L43.986 32.6791C44.0317 32.6791 44.0006 32.5064 44.0441 32.498L44.2288 32.4647C44.2682 32.4564 44.262 32.3337 44.2661 32.2796L44.6416 32.2608L44.6707 32.1027C44.6769 32.0715 44.7536 32.0694 44.8615 32.0611V64.2868L45.0586 64.3534L45.0897 65.2835L45.2536 65.3813C45.291 65.4022 45.2702 65.5374 45.2723 65.5853L45.2764 65.7476C45.2764 65.7892 45.4009 65.7933 45.459 65.8038L45.5067 66.3677L45.6665 66.403C45.7059 66.4113 45.7059 66.53 45.7142 66.5799C45.8635 66.6382 45.9216 66.8129 45.8967 66.9877L46.0689 67.0439L46.1395 67.2L46.2743 67.2478C46.3801 67.2853 46.2224 67.587 46.5025 67.6744C46.5191 67.7098 46.5378 67.7785 46.5627 67.793L46.712 67.8679L46.7618 67.999L46.9071 68.0781L47.0938 68.2987C47.1477 68.3632 47.2411 68.4526 47.3116 68.461L47.517 68.4818C47.5585 68.4859 47.544 68.6337 47.5834 68.6482L47.7161 68.7003C47.7535 68.7148 47.7639 68.8022 47.7763 68.873L48.1394 68.9208C48.2597 69.235 48.5294 68.9645 48.6476 69.2912L48.9754 69.3245L49.0107 69.491C49.0294 69.5846 49.4007 69.3724 49.4982 69.697L50.4235 69.7261L50.4484 69.8967C50.4525 69.9279 50.5355 69.9279 50.5832 69.9279L52.5644 69.9321L52.5893 69.7344L53.5416 69.6949C53.5872 69.5555 53.664 69.5118 53.7594 69.5097H53.9689C54.0084 69.5097 54.0229 69.3828 54.0353 69.3391L54.3756 69.2912C54.4689 68.9728 54.7635 69.2329 54.8589 68.9396L55.222 68.8626L55.2365 68.7148C55.2386 68.6836 55.307 68.6878 55.4066 68.6919L55.4564 68.565C55.4502 68.5504 55.5373 68.4714 55.5747 68.4734C55.6805 68.4797 55.8568 68.3944 55.8693 68.257C55.9253 68.257 56.0166 68.2674 56.029 68.2383L56.0954 68.0677L56.2323 68.0261L56.3029 67.8679L56.4294 67.818L56.5062 67.6661C56.5207 67.637 56.614 67.6328 56.641 67.6182C56.7385 67.5725 56.6555 67.2978 56.7157 67.2707L56.8734 67.1958C56.9211 67.1022 56.9709 67.0418 57.0912 66.9836L57.114 66.609L57.2841 66.5799C57.3277 66.5716 57.3173 66.4342 57.3173 66.3885V66.2178C57.3194 66.1762 57.4501 66.1783 57.5082 66.1741L57.56 65.835L57.7073 65.7372C57.7426 65.7143 57.7281 65.5832 57.7281 65.5395V65.3709C57.7302 65.3293 57.8422 65.3293 57.9272 65.321L57.9459 64.3825L58.1513 64.2681V32.1401L58.3007 32.0486L58.3691 32.2546L58.7509 32.2754L58.7758 32.4481C58.782 32.4918 58.9231 32.4731 58.9811 32.4668L59.0123 32.6541C59.0206 32.6978 59.1616 32.6853 59.2073 32.6874L59.3732 32.6936C59.4127 32.6936 59.4127 32.8206 59.4189 32.8747L59.7902 32.8955L59.8213 33.0536C59.84 33.1514 60.1595 33.0744 60.174 33.1244L60.2321 33.3075L60.5827 33.3325L60.6574 33.4968L60.8234 33.5447L60.8607 33.6966C60.8711 33.7382 60.9976 33.7257 61.0412 33.7257L61.2217 33.732C61.2653 33.732 61.2632 33.8631 61.2673 33.9255L61.6345 33.9442L61.6698 34.0961C61.6926 34.196 61.9561 34.0399 62.1075 34.3084C62.1947 34.3729 62.2486 34.4124 62.3482 34.5248L62.649 34.581L62.7278 34.7349C62.7631 34.8057 63.095 34.7349 63.1054 34.7786L63.1531 34.9742H63.4415C63.5805 34.9742 63.5203 35.1719 63.5722 35.174L63.7382 35.1865C63.8191 35.1927 63.9373 35.2884 63.9975 35.3592L64.1323 35.407C64.1676 35.4195 64.1821 35.5173 64.1987 35.5714L64.5369 35.6151L64.6012 35.7795C64.6157 35.817 64.7153 35.8232 64.7838 35.8398V52.6612L64.9808 52.7216L65.0161 53.6434C65.124 53.7017 65.207 53.7974 65.207 53.8744L65.2028 54.0949C65.2028 54.1345 65.3314 54.149 65.3709 54.1615L65.4227 54.4965C65.7381 54.6131 65.4767 54.9085 65.7775 54.9814L65.8356 55.3393L65.9953 55.3642C66.0617 55.3746 65.9829 55.5723 66.0824 55.5869C66.1219 55.5931 66.2235 55.5973 66.2256 55.6285L66.2401 55.8054C66.2463 55.8657 66.3169 55.9427 66.4248 55.9843L66.4766 56.182C66.516 56.1862 66.6177 56.1862 66.6281 56.2153L66.6924 56.3776L66.8293 56.4234L66.8998 56.5753L67.0326 56.6231L67.0928 56.8021L67.4517 56.8458C67.46 56.8999 67.4641 56.9873 67.4911 57.0019L67.6446 57.0809L67.7006 57.2058C67.7151 57.237 67.7981 57.237 67.8604 57.2411L68.0429 57.2516C68.0886 57.2536 68.0865 57.3764 68.0844 57.4492L68.4993 57.4576C68.5035 57.5096 68.5076 57.6448 68.5491 57.649L68.7607 57.6698C68.8188 57.676 68.8935 57.7405 68.9516 57.8488L69.3416 57.8696L69.3727 58.0215C69.379 58.0527 69.4619 58.0672 69.5117 58.0672L70.2939 58.0839L70.4411 58.2857H72.4307L72.5157 58.1338C72.5365 58.0964 72.6319 58.0839 72.6921 58.0839L73.4555 58.0652L73.5157 57.8675L73.8891 57.8592C73.9493 57.7405 74.0385 57.6719 74.1401 57.6636L74.3061 57.649C74.3372 57.6469 74.3351 57.5574 74.3393 57.4659L74.6629 57.4596L74.7542 57.3681C74.7542 57.3036 74.7501 57.2516 74.7708 57.2495L74.9388 57.2411L75.1048 57.2328C75.1463 57.2328 75.1546 57.1163 75.1608 57.0664L75.3496 57.0102L75.3932 56.877C75.4243 56.7834 75.723 56.9186 75.7832 56.6377L75.9471 56.5878C75.9844 56.5774 75.9886 56.4608 76.0176 56.4317C76.0384 56.4109 76.138 56.4109 76.1504 56.3838L76.2272 56.2278C76.2396 56.2007 76.3247 56.1924 76.3516 56.1799C76.3786 56.1674 76.3848 56.1092 76.4014 56.0426C76.4118 55.9989 76.4989 55.9614 76.5778 55.9261L76.6442 55.6243C76.7168 55.5931 76.8122 55.5515 76.8205 55.5057C76.8267 55.4724 76.8246 55.3892 76.8433 55.3851L77.0114 55.3455L77.03 54.9689L77.2022 54.9418C77.2458 54.9356 77.2375 54.8045 77.2375 54.7587V54.5798C77.2375 54.5361 77.3744 54.5382 77.4263 54.5361L77.4761 54.199L77.6254 54.1012C77.6607 54.0783 77.6462 53.9493 77.6462 53.9056V53.7329C77.6462 53.6913 77.7624 53.6871 77.8453 53.6829L77.8723 52.7216C77.9366 52.7049 78.0383 52.6883 78.0424 52.6571L78.0694 52.4657V43.3308C78.1109 43.3183 78.2022 43.2913 78.2084 43.3121L78.2561 43.4661L78.476 43.541L78.4905 43.6804C78.4926 43.7116 78.5777 43.7116 78.6192 43.7116L78.8474 43.7158C78.893 43.7158 78.893 43.8427 78.8972 43.9114L79.2727 43.928L79.339 44.0882C79.3702 44.1652 79.6814 44.0945 79.6917 44.1278L79.7374 44.2755C79.7519 44.3255 79.8764 44.3442 79.9344 44.3442H80.0589C80.09 44.3442 80.1046 44.4066 80.1191 44.4919L80.2477 44.5439C80.2934 44.5627 80.3452 44.6189 80.4116 44.7104L80.7456 44.7687L80.7747 44.931C80.783 44.9747 80.9157 44.9622 80.9634 44.9622L81.1377 44.9664C81.1813 44.9664 81.1833 45.1078 81.1896 45.1474L81.5298 45.2223C81.592 45.3243 81.646 45.368 81.7725 45.3888L81.8036 45.4429C81.814 45.4595 81.8389 45.5552 81.8597 45.5573L82.1771 45.6177C82.231 45.8861 82.5609 45.7571 82.5816 45.8174L82.6439 45.9984L82.9716 45.9943C83.0007 45.9943 83.0339 46.0754 83.0463 46.1337C83.0629 46.2044 83.204 46.2211 83.3015 46.2169L83.4239 46.2128C83.455 46.2128 83.4467 46.3959 83.4903 46.4042L83.6189 46.4271C83.6542 46.4333 83.6708 46.4854 83.7081 46.5915L84.0525 46.6352C84.0649 46.6643 84.0857 46.8079 84.1355 46.8141L84.3678 46.8412C84.3948 46.8453 84.457 46.8412 84.4612 46.862L84.4882 46.9743C84.4985 47.016 84.5919 47.0576 84.6375 47.0576H84.8782L84.9176 47.2199C84.928 47.2594 85.0504 47.2511 85.1126 47.2553L85.1313 47.3968C85.1375 47.4363 85.2371 47.4633 85.2807 47.4633H85.401L85.513 47.4613C85.5421 47.4613 85.5317 47.6631 85.5711 47.6631H85.7018C85.7889 47.6631 85.9321 47.6735 85.9404 47.7359C85.9466 47.7775 85.9528 47.8629 85.9736 47.8629H86.096C86.1582 47.867 86.2951 47.9107 86.3242 47.9669C86.4466 48.2 86.6374 47.9752 86.7536 48.2041C86.8242 48.3477 86.9548 48.2457 87.0275 48.4538L87.3698 48.5121L87.3884 48.614C87.3926 48.6349 87.3967 48.7035 87.4175 48.7035H87.5357L87.7536 48.7118C87.7992 48.7118 87.7992 48.8409 87.8013 48.897L88.127 48.9532C88.1768 49.0427 88.2888 49.1197 88.3635 49.1322C88.4776 49.153 88.3988 49.3382 88.5149 49.3298L88.6207 49.3215C88.6622 49.3174 88.7867 49.334 88.8033 49.3735L88.8572 49.5067C88.8676 49.5317 88.9361 49.5504 88.9651 49.5483L89.0813 49.5421C89.1124 49.5421 89.2265 49.5275 89.2369 49.5567L89.2908 49.7356L89.6414 49.7481L89.685 49.927C89.6954 49.9687 89.8198 49.9499 89.8945 49.9416L89.9298 50.1476L90.2825 50.1726L90.3032 50.2766C90.3115 50.3182 90.4132 50.3682 90.4609 50.3661L90.6414 50.3619C90.6829 50.3619 90.7015 50.4348 90.7223 50.5014C90.7264 50.5118 90.7638 50.57 90.7742 50.57L90.9878 50.5783C91.019 50.5783 91.0791 50.5783 91.0853 50.5971L91.1227 50.7115C91.1372 50.7552 91.2368 50.7989 91.2949 50.8301L91.3426 50.9591C91.3571 50.9966 91.4546 50.9945 91.5252 51.0028C91.5376 51.0195 91.5376 51.1422 91.5708 51.1589L91.7451 51.2442C91.7451 51.2442 91.7741 51.3441 91.7783 51.3545C91.8799 51.4148 91.9422 51.471 91.994 51.5771L92.1289 51.6208L92.1662 51.6937L92.1807 52.0058L92.382 52.0578C92.3799 52.1681 92.3737 52.2264 92.4027 52.2347L92.5562 52.2701L92.6039 52.7986C92.6724 52.8464 92.772 52.9318 92.7948 52.99L92.7865 55.3705C92.6226 55.4017 92.579 55.4912 92.577 55.6035L92.5728 55.9781L92.4048 56.0051C92.3757 56.0093 92.382 56.105 92.3799 56.1383L92.3612 56.3797C92.3591 56.4109 92.216 56.3838 92.2056 56.4109L92.133 56.5774C92.1206 56.6044 92.0293 56.6086 92.0002 56.6169C91.9712 56.6252 91.967 56.696 91.9608 56.7584C91.9567 56.7959 91.8861 56.8312 91.8177 56.852L91.6973 57.0497C91.6434 57.056 91.5853 57.0601 91.5832 57.0705L91.5438 57.2037C91.5355 57.2307 91.4857 57.2287 91.3841 57.2287L91.3011 57.418L91.1642 57.4576C91.1351 57.4659 91.1331 57.5304 91.1227 57.6199L90.7679 57.701C90.6953 57.7884 90.6331 57.8363 90.5439 57.88L90.4339 58.0319C90.4049 58.0714 90.2742 58.0589 90.1933 58.0589C90.1352 58.0589 90.0812 58.1692 90.0605 58.2691L89.8157 58.2795C89.7763 58.2795 89.7037 58.2899 89.6933 58.3169C89.6829 58.344 89.685 58.4522 89.656 58.4564L89.5004 58.4772C89.4713 58.4813 89.4547 58.5479 89.4444 58.6041C89.434 58.6603 89.3074 58.6977 89.2473 58.6915L89.0979 58.6811C89.0668 58.679 89.0605 58.7227 89.0522 58.8059L88.9568 58.9079L88.7182 58.8996C88.6664 58.8996 88.6477 58.9932 88.6166 59.0848L88.3614 59.116C88.3116 59.1222 88.239 59.2054 88.1975 59.272L88.0067 59.3511C87.9672 59.6632 87.5959 59.3657 87.5668 59.7194L87.2806 59.7277C87.2515 59.7277 87.1913 59.7964 87.1872 59.8276L87.1706 59.9379H86.847C86.847 59.9379 86.793 59.9837 86.791 59.992L86.7764 60.1064C86.7723 60.1377 86.6976 60.1397 86.6229 60.1439C86.5773 60.146 86.5462 60.2479 86.5275 60.327L86.1582 60.3603L86.1395 60.508C86.1354 60.5393 86.0565 60.5434 86.013 60.5517L85.7495 60.6017C85.7329 60.6953 85.7288 60.764 85.6976 60.764L85.4757 60.7702C85.4155 60.7702 85.3367 60.8659 85.3035 60.9429L85.1396 60.995C85.1022 61.0074 85.1022 61.1219 85.096 61.1718L84.8491 61.1843L84.735 61.1906C84.7039 61.1906 84.7039 61.28 84.7018 61.3757L84.3139 61.407C84.3097 61.4465 84.3056 61.5755 84.2662 61.5797L84.0629 61.6005C84.0048 61.6067 83.9176 61.7274 83.8596 61.7545L83.7143 61.8252C83.6812 61.8419 83.6563 61.9292 83.6314 61.9896C83.5048 62 83.2994 62.0146 83.2559 62.104C83.1335 62.3496 82.8762 62.1269 82.8492 62.3059C82.8389 62.3766 82.8223 62.4411 82.7932 62.4391L82.6542 62.4286C82.5982 62.4245 82.4468 62.4765 82.4551 62.489L82.4115 62.6451L82.2518 62.6492C82.2206 62.6492 82.2165 62.7158 82.204 62.8198L81.8991 62.8407C81.8514 62.8448 81.812 62.9301 81.7829 63.0362L81.5049 63.0612C81.4779 63.0633 81.4074 63.0612 81.4053 63.082L81.3784 63.2402L81.0215 63.286L80.9531 63.4462L80.7664 63.4815C80.7664 63.4815 80.7581 63.5128 80.7477 63.5544C80.7373 63.596 80.6854 63.6834 80.646 63.6834H80.4718H80.3577C80.3369 63.6834 80.339 63.7562 80.3348 63.777L80.3183 63.8831L79.9635 63.904L79.9178 64.0517C79.8847 64.162 79.5527 64.0059 79.4946 64.2577L79.3204 64.3305C79.281 64.497 79.1171 64.5469 78.9304 64.5095L78.9013 64.5906L78.866 64.6863C78.8557 64.7155 78.7747 64.7196 78.7436 64.7217H78.6254L78.5113 64.7259C78.4905 64.7259 78.4843 64.7966 78.4802 64.8216L78.4636 64.9277H78.1794C78.1565 64.9277 78.0818 64.961 78.0798 64.9797C78.0756 65.0151 78.0777 65.1192 78.0445 65.1233L77.864 65.1441C77.8516 65.1774 77.8453 65.321 77.7935 65.3231L77.5321 65.3356C77.3931 65.3418 77.4615 65.5228 77.4055 65.5291L77.2167 65.552L77.0674 65.5707C77.0363 65.5749 77.0321 65.6664 77.0259 65.7517L76.7334 65.7705C76.7126 65.7725 76.6462 65.8058 76.6421 65.8266L76.6255 65.9203C76.6234 65.9369 76.5653 65.964 76.5466 65.964L76.4284 65.9744C76.4077 65.9744 76.4077 66.0576 76.4035 66.0971C76.3931 66.2428 76.0384 66.1346 76.0259 66.1804L75.972 66.3781L75.6089 66.3947C75.6006 66.4363 75.5965 66.5653 75.5571 66.5716L75.3206 66.6007C75.1546 66.6215 75.2251 66.8192 75.0343 66.815C74.833 67.1604 74.5654 66.8608 74.5115 67.2021L74.1567 67.2291L74.1401 67.3332C74.136 67.354 74.1401 67.4247 74.1173 67.4247L74.0032 67.4289L73.7833 67.4372C73.7397 67.4372 73.7356 67.5745 73.7231 67.6182L73.5406 67.6494C73.5012 67.6557 73.4949 67.7639 73.4866 67.8242L73.1153 67.845C73.1091 67.8804 73.1049 68.024 73.0634 68.0281L72.8435 68.0573L72.6941 68.076C72.663 68.0802 72.663 68.1717 72.6589 68.2487L72.2813 68.2779C72.2709 68.3236 72.2564 68.4235 72.2274 68.4339L72.0946 68.488C72.0572 68.5047 72.0469 68.59 72.0344 68.6628L71.6257 68.6815L71.6112 68.8397C71.6029 68.9354 71.2606 68.7773 71.1631 69.0748L70.8353 69.1123L70.7814 69.26C70.7689 69.2954 70.6652 69.3079 70.6279 69.3224C70.5781 69.3932 70.4806 69.4972 70.4038 69.5035L70.2067 69.5222C70.1673 69.5263 70.1632 69.6554 70.1549 69.7011H69.8312L69.7628 69.8073C69.7586 69.8655 69.7586 69.9092 69.7379 69.9113L69.5532 69.9155L69.5138 70.0965L69.3188 70.1235L69.1694 70.1444C69.1404 70.1485 69.1383 70.2151 69.1259 70.3025L68.7607 70.3358L68.7089 70.496C68.6798 70.5876 68.3728 70.521 68.3562 70.5668L68.2919 70.7291C68.1882 70.7582 68.1135 70.7936 68.0388 70.9059L67.7193 70.9704L67.6819 71.1015C67.6716 71.139 67.5865 71.1702 67.545 71.1702H67.3127C67.2691 71.1702 67.2691 71.3096 67.265 71.3596L66.9392 71.4074C66.8231 71.6675 66.6073 71.4927 66.6198 71.7487L66.2775 71.8069L66.2194 71.9776C66.1965 72.0421 65.8895 71.9734 65.8688 72.0171L65.792 72.1877L65.4289 72.2293C65.4165 72.3438 65.3999 72.4187 65.3626 72.4187H65.2194C65.1842 72.4208 65.1987 72.6164 65.1572 72.6164H64.9746C64.9103 72.6164 64.792 72.6434 64.7858 72.6954C64.7796 72.735 64.7775 72.8161 64.7547 72.8161L64.5908 72.8224L64.4249 72.8307C64.3834 72.8307 64.3751 72.9451 64.3668 73.0138L64.0431 73.0658C63.9539 73.172 63.9104 73.2177 63.817 73.2989C63.5183 73.5611 63.3315 73.328 63.3191 73.6526L62.9519 73.6693L62.9208 73.8295C62.9021 73.9252 62.649 73.7775 62.483 74.0459L62.3378 74.0834C62.2984 74.0938 62.286 74.2103 62.2735 74.254L61.9291 74.3164C61.8814 74.41 61.8316 74.5099 61.7756 74.5078L61.4935 74.5037L61.4333 74.6743C61.4063 74.7471 61.0765 74.6577 61.064 74.7409L61.0412 74.899L60.9478 74.9032L60.8337 74.9094C60.813 74.9094 60.8171 75.001 60.8171 75.0301C60.8109 75.1862 60.4728 75.0884 60.4562 75.1363L60.396 75.3048L60.0371 75.3464C60.0101 75.465 59.9458 75.5441 59.8898 75.5441H59.6761C59.6243 75.5441 59.5931 75.6793 59.5828 75.7272C59.4707 75.7459 59.3878 75.7896 59.3297 75.8999L59.0475 75.954C59.006 75.9623 58.9811 76.031 58.9583 76.1455L58.5807 76.1704L58.5517 76.3348C58.5351 76.4326 58.2218 76.2828 58.1347 76.5387L57.9438 76.5928L57.9065 76.7281C57.8961 76.7676 57.7924 76.778 57.7468 76.7801L57.587 76.7905C57.5455 76.7926 57.5289 76.8904 57.5165 76.9799L57.1161 77.0236C57.1119 77.113 57.1119 77.1921 57.0808 77.1921L56.9211 77.2004L56.9045 77.2129Z" fill="#4D6D89"/>
</g>
<defs>
<clipPath id="clip0_73_333">
<rect width="82.9979" height="83.0064" fill="white" transform="translate(10 10)"/>
</clipPath>
</defs>
</svg>
