<svg width="103" height="123" viewBox="0 0 103 123" fill="none" xmlns="http://www.w3.org/2000/svg">
<g clip-path="url(#clip0_85_1371)">
<path d="M99.9739 10V10.0724C99.9784 10.0883 100.18 10.077 100.524 10.2037C101.416 10.5319 102.165 11.1181 102.588 11.9759C102.715 12.234 102.839 12.4943 102.905 12.7659L103.002 13.0759V14.4657L102.939 14.4521C102.939 14.4521 102.615 16.6114 100.336 17.2813C99.838 17.4284 99.3673 17.2994 99.3673 17.519L99.3627 21.0363L99.8539 21.068L100.282 21.1676L100.619 21.2717C101.25 21.4663 101.821 21.9032 102.217 22.4215L102.617 23.0507C102.839 23.4015 102.86 23.775 103.002 24.0692V25.4318C102.62 26.9731 101.536 28.1343 99.8629 28.4081H3.29323C2.57574 28.4081 1.92614 28.0234 1.39425 27.6227C0.368932 26.8555 0.0905355 25.5585 0.12675 25.5766L0 25.5246V23.9447C0.151647 23.9017 0.178808 23.5396 0.362142 23.1639C0.823873 22.211 1.66359 21.4867 2.69343 21.1789C2.99673 21.0883 3.44488 21.0861 3.71875 20.9752V17.4828C3.47204 17.3945 3.2457 17.3696 2.98541 17.3379L2.6708 17.2587C2.25433 17.1546 1.88314 16.9373 1.52779 16.6906C0.812556 16.1949 0.330455 15.4502 0.129013 14.6037L0.0973257 14.4702C0.0905355 14.443 0.0226339 14.434 0 14.4249V12.9017C0.0882721 12.9107 0.115433 12.7908 0.156174 12.6685C0.943833 10.292 2.99899 10.1245 3.0171 10.0679L3.02615 10H99.9739ZM14.7347 17.4714L14.2186 17.4171L11.8669 17.4217L11.3464 17.4149C11.2898 17.4149 11.154 17.4352 11.1404 17.485L11.0929 17.6661L11.1042 21.0453H14.7369V17.4737L14.7347 17.4714ZM25.6329 21.0499L25.7777 20.9435L25.7709 17.4375L23.1001 17.4081L22.1088 17.4556V21.0385L25.6306 21.0476L25.6329 21.0499ZM36.8163 17.5439C36.8163 17.4601 36.6171 17.4465 36.5582 17.442L36.3138 17.4171H33.5502L33.1428 17.4647V21.0431L36.5741 21.0476C36.7144 21.0476 36.8231 20.9367 36.8208 20.7986L36.8163 17.5439ZM47.8231 20.8416L47.8186 17.4896C47.5674 17.3922 47.3659 17.4194 47.1351 17.4194L44.6974 17.4149L44.1836 17.4714V21.0453H47.7462L47.8209 20.8416H47.8231ZM58.873 21.0453V17.4714L58.3343 17.4217L55.6431 17.4171L55.2244 17.4805V21.0499H58.873V21.0453ZM69.9138 21.0476V17.4217L66.6817 17.4103L66.2313 17.4873V21.0431L69.9138 21.0453V21.0476ZM80.9569 20.819V17.4805L80.597 17.4149L77.2766 17.4217V21.0476H80.7577C80.8663 21.0431 80.9569 20.9548 80.9569 20.819ZM91.9615 20.8167V17.4782L91.502 17.4194L88.9511 17.4262C88.7316 17.4262 88.5098 17.4262 88.3151 17.4941V21.0499H91.8822C91.9049 21.0046 91.9592 20.8711 91.9592 20.8213L91.9615 20.8167Z" fill="#4D6D89"/>
<path d="M103 97.5659V98.9783L102.907 99.1843L102.674 99.8701L102.366 100.413C102.217 100.678 101.986 100.918 101.739 101.099L101.359 101.375C101.072 101.583 100.719 101.744 100.374 101.837L100.003 101.937L99.365 101.982V105.621L100.039 105.682C101.441 105.988 102.572 106.997 102.903 108.412L103 108.666V110.049C102.823 110.488 102.753 110.877 102.414 111.357L102.183 111.68C101.997 111.941 101.755 112.178 101.474 112.337L100.954 112.631L100.164 112.939C100.144 112.946 100.067 112.993 100.073 113.005H2.96957C2.94467 112.959 2.8564 112.925 2.76812 112.903C0.54774 112.332 0.0837454 110.146 0.104116 110.153L0 110.112V108.489C0.0226339 108.518 0.101852 108.521 0.108643 108.494L0.151647 108.312L0.39383 107.695L0.860087 106.952C1.00947 106.715 1.22449 106.536 1.45536 106.384L1.91256 106.083C2.2317 105.873 3.04426 105.63 3.43356 105.642C3.50599 105.642 3.71875 105.603 3.71875 105.531V101.993L3.03294 101.95L1.99631 101.583C1.06153 101.07 0.40741 100.273 0.135803 99.2363C0.135803 99.2092 0.135803 99.1367 0.117696 99.1367L0 99.1209V97.4369C0.0430044 97.4822 0.11996 97.4098 0.13354 97.3645L0.226339 97.0499C0.362142 96.5927 0.783132 95.9567 1.13622 95.6285C1.66133 95.1396 2.25207 94.8137 2.95598 94.6688L3.30002 94.5986H99.8403C100.714 94.7865 101.47 95.1486 102.061 95.7869C102.285 96.0291 102.45 96.2962 102.624 96.5949C102.839 96.9639 102.848 97.3147 103.002 97.5705L103 97.5659ZM14.7347 105.63V101.968H11.0974L11.0929 105.433C11.12 105.504 11.1608 105.59 11.197 105.639L14.7347 105.633V105.63ZM25.7755 105.628V101.97L22.111 101.968V105.633L25.7755 105.628ZM36.8185 105.409V102.253C36.8185 102.172 36.7914 102.045 36.7438 102.007C36.7031 101.975 36.5945 101.966 36.5198 101.966L33.1405 101.975V105.635L36.6194 105.637C36.7257 105.637 36.8163 105.54 36.8163 105.409H36.8185ZM47.8209 105.406V102.509C47.8231 102.317 47.7937 102.113 47.7371 101.966H44.1813V105.635H47.7462L47.8186 105.406H47.8209ZM58.873 105.635V101.966H55.2244V105.635H58.873ZM69.9161 105.635V101.975L66.2358 101.966V105.637H69.9161V105.635ZM80.9569 105.409V102.154C80.9569 102.023 80.8392 101.937 80.7079 101.966L77.2766 101.973V105.635H80.7577C80.8686 105.63 80.9591 105.542 80.9591 105.409H80.9569ZM91.9637 105.431L91.9569 101.97H88.3174V105.637H91.8845L91.9637 105.431Z" fill="#4D6D89"/>
<path d="M103 49.7474V51.2095L102.914 51.3204C102.792 51.9994 102.429 52.5608 101.986 53.0678L101.341 53.74L100.786 54.29L100.483 54.5933L99.5731 55.4964L98.7379 56.3248L98.3848 56.6779L98.086 56.988L97.4817 57.5923L96.4926 58.5655L96.1395 58.9231L95.7389 59.3306L95.4673 59.6157L94.9376 60.1431L94.4714 60.589L93.6226 61.4446L92.6652 62.4133L92.2646 62.8184L91.8051 63.2666L91.228 63.8528L90.8341 64.2082C90.4109 64.5884 89.9763 64.8759 89.4308 65.0275L88.8967 65.1746L88.272 65.2108C88.0705 65.2222 87.7876 65.1837 87.602 65.1497C86.6944 64.98 86.0131 64.5137 85.3975 63.8845L84.9176 63.3956L83.6569 62.1394L82.3985 60.8787L81.5837 60.0707L80.3297 58.81L79.8725 58.3528L79.0622 57.5493L78.3108 56.7865L77.376 55.8585L76.5159 54.9984L75.2824 53.7626C74.5966 53.0768 74.0262 52.5676 73.7365 51.5807L73.6233 51.1959C73.5894 50.7229 73.5486 50.1819 73.6414 49.7406C73.7885 49.0367 74.0896 48.4391 74.5762 47.9525L75.1602 47.3686L76.4435 46.083L77.6816 44.8494L78.9672 43.5638L80.203 42.328L81.5904 40.9405L82.7267 39.8066L84.0123 38.5187L85.273 37.258L86.0991 36.4771C86.4069 36.1852 86.8234 35.986 87.2376 35.9L87.7763 35.7891L88.8808 35.7959C89.2746 35.7981 90.3203 36.2576 90.6327 36.5722L102.221 48.154L102.448 48.4912C102.665 48.8149 102.803 49.1725 102.916 49.5437L103.011 49.7496L103 49.7474ZM90.9201 53.6359L92.1718 52.3865L93.5524 51.0013L94.0685 50.4852L91.6648 48.0702L90.6304 47.0358L89.974 46.3795L89.7228 46.1282L88.8672 45.2704L88.2742 44.691L87.7106 45.2545L86.4001 46.5651L85.1643 47.8009L83.8538 49.1114L82.4845 50.4649L88.2946 56.2727L90.9201 53.6336V53.6359Z" fill="#4D6D89"/>
<path d="M-0.000223792 51.2955V35.0014C0.0269369 35.0195 0.0857849 35.0104 0.0925751 34.9833L0.131053 34.8497C0.273646 34.3563 0.481878 33.8606 0.812332 33.4623C1.29217 32.8828 1.96666 32.4166 2.69094 32.2219L3.18663 32.0884H18.9534L19.4513 32.2242C20.7007 32.5614 21.7125 33.6116 22.0022 34.8588C22.061 35.11 22.1063 35.3205 22.1063 35.5876V50.7455C22.1063 50.9469 22.0814 51.0986 22.0429 51.2638C21.7011 52.7916 20.4812 53.9482 18.9059 54.1542L3.12551 54.136C2.49403 54.136 1.47098 53.5408 0.939082 52.9455C0.708217 52.6852 0.477351 52.3842 0.359655 52.0718L0.137843 51.4698L0.0925751 51.3385C0.0835216 51.3113 0.0178833 51.3091 -0.00927734 51.2978L-0.000223792 51.2955ZM14.7344 46.8117V39.4534H7.40558V46.814H14.7344V46.8117Z" fill="#4D6D89"/>
<path d="M85.4769 76.2472L84.9473 76.3219H82.9691C82.874 76.3265 82.745 76.3717 82.659 76.4193L81.1222 76.451L80.5314 76.5121L79.6102 76.5619C79.3793 76.5754 79.1756 76.6049 78.9402 76.6343L78.3767 76.7022L77.2246 76.8221L76.5162 76.9149L75.8869 77.0055L73.1912 77.4853L71.2696 77.9403L70.62 78.1145L69.142 78.5808L67.8361 79.0425L65.5025 80.0882L65.2264 80.2263C64.0042 80.8329 62.8611 81.5413 61.7611 82.3493L61.1183 82.8224L60.7222 83.1257L59.9097 83.7889L59.3574 84.2913L58.864 84.7101L56.879 86.7041L55.8107 87.8992L54.722 89.1893L54.4527 89.5243C53.8845 90.2282 53.1603 90.7012 52.2685 90.8778C51.7751 90.9774 51.2658 90.9955 50.7769 90.88C50.2088 90.7465 49.6973 90.5496 49.2423 90.1852C48.4343 89.5356 48.2306 89.0082 47.8458 88.0961C47.0401 86.1948 46.1257 84.3841 45.0913 82.5938L44.1701 81.0818L42.9501 79.2802L42.2666 78.3499L41.1371 76.9127L40.9131 76.6298L40.2522 75.8828L40.0122 75.6135L39.177 74.7285L37.1536 72.7752L36.6647 72.352L35.4674 71.381L34.0799 70.3534L32.9233 69.5816L32.2941 69.1968C29.8157 67.6849 27.1245 66.5871 24.3066 65.9058L23.116 65.6636L22.6045 65.5708L21.8961 65.4667L21.2306 65.3966L20.7802 65.3151L19.6395 65.254L11.1088 65.2291L10.5859 65.1838C9.56062 65.0955 8.63263 64.4663 8.02378 63.6334C7.72727 63.2305 7.56884 62.7891 7.46019 62.3116C7.09805 60.7113 7.84271 59.0115 9.32296 58.2714C9.72132 58.0722 10.1468 57.8459 10.6154 57.8459L19.8024 57.8391L20.5018 57.9047L21.5204 57.9681L21.9391 58.027L22.7222 58.0994L24.5918 58.405L25.0173 58.491L26.063 58.715L26.4138 58.8124L26.8325 58.912L27.2716 59.0206C29.0303 59.5344 30.7459 60.107 32.3959 60.8856L33.7042 61.5035L35.5058 62.47L36.0739 62.8163L37.3188 63.5904C38.541 64.3509 39.6818 65.1906 40.7818 66.1231L41.712 66.913L42.4929 67.5943L43.6789 68.7215L44.6884 69.7491C46.1415 71.2293 47.4588 72.7933 48.6516 74.4999L50.0458 76.4962L52.4133 80.4707C52.4337 80.5047 52.4677 80.5884 52.4948 80.5794C52.531 80.5681 52.608 80.5273 52.6374 80.4934L53.1738 79.9298L54.4911 78.7234L55.3354 78.0014L55.9171 77.5215L56.6821 76.9263L57.1416 76.58L57.4335 76.3649L58.9613 75.3238L60.1541 74.5882C63.1961 72.7096 67.191 71.2587 70.6698 70.4484L71.0388 70.3624L71.4779 70.2628L71.9939 70.161L72.4986 70.0591L73.0419 69.955L73.6484 69.8532L74.2618 69.7513L74.9635 69.6427L76.5252 69.4412L77.2246 69.3598L78.1843 69.276L78.6686 69.2172L79.6464 69.1696L79.8977 69.0949L81.1335 69.0542L81.7378 68.9953L83.7228 68.9705L83.9446 68.8777H88.8652L89.2794 68.9863C90.5514 69.3213 91.5292 70.3579 91.8778 71.6277C92.0385 72.2139 92.0362 72.7299 91.914 73.3184C91.6967 74.3573 91.0788 75.2174 90.1599 75.7584L89.4922 76.0571C89.2998 76.1431 89.0055 76.2223 88.7792 76.2246L85.4792 76.2563L85.4769 76.2472Z" fill="#4D6D89"/>
</g>
<defs>
<clipPath id="clip0_85_1371">
<rect width="103" height="103" fill="white" transform="translate(0 10)"/>
</clipPath>
</defs>
</svg>
