<svg width="204" height="205" viewBox="0 0 204 205" fill="none" xmlns="http://www.w3.org/2000/svg">
<g clip-path="url(#clip0_129_121)">
<path d="M92.1227 204.307L90.7947 204.124C90.4194 204.073 90.0597 204.039 89.7044 203.981L88.3298 203.756L87.0574 203.54L85.8827 203.317L84.819 203.11L83.8375 202.896L81.2061 202.285L79.4473 201.808L74.5064 200.257L72.5412 199.562L70.718 198.844L69.1281 198.175L67.5381 197.511L65.071 196.352L62.3929 194.957L57.4987 192.193C53.3017 194.823 48.7538 196.653 43.9107 197.502L42.0897 197.776L40.9128 197.91L39.3117 198.01L35.3168 197.995L33.0518 197.848L32.1791 197.7L31.2886 197.56C26.2256 196.764 21.2492 194.709 16.9389 191.921L15.0025 190.532L13.0528 188.97L11.7627 187.82L9.89067 185.948L8.90693 184.809L7.43688 182.934L4.97642 179.212L4.25916 177.89C3.1222 175.799 2.22507 173.669 1.58775 171.382L1.02371 169.36L0.242048 165.005L0.0821632 163.364L0 162.397L0.00444125 158.887L0.0843838 157.589L0.235386 156.06L0.74613 152.777L1.48116 149.889L2.88459 145.937L3.26876 145.052L4.25472 143.044C5.3073 140.902 6.59082 138.916 8.11195 137.092L9.18229 135.809L10.1905 134.774C12.149 132.764 14.1476 130.898 16.4682 129.323L17.4697 128.741L17.2631 126.146L17.1499 124.537L17.0455 123.146V115.769L17.1543 114.05L17.2498 112.662L17.503 110.105L17.725 108.277L17.9338 106.78L18.1558 105.393L18.3757 104.107L18.58 103.057L18.822 101.809L19.5215 98.8001L19.6903 98.1114L21.2869 92.7264C22.6548 88.623 24.2626 84.6734 26.2434 80.8486L26.8385 79.7008L28.6261 76.4711L29.3433 75.263L32.2835 70.7451L34.7706 67.3483L35.7987 66.0354L37.9483 63.4834L38.8498 62.4558L40.2333 60.9647L43.6486 57.5501L45.3696 55.9319C50.4038 51.4384 55.8909 47.5847 61.8466 44.3795L64.4825 43.0177C64.6535 42.9285 64.8933 42.7279 64.9577 42.583C65.0221 42.4382 64.8401 42.0749 64.8245 41.9144L64.6158 39.8616L64.5847 35.6423L64.6757 34.6794L64.9133 32.5241L65.1376 31.0129L65.3441 29.9207L65.5884 28.8843C66.3079 25.8196 67.3782 22.9331 68.8505 20.1537L70.3783 17.5103L72.1681 14.9069L74.5575 12.0718L76.9158 9.72474L77.9573 8.84655L78.7567 8.16228L79.736 7.41338L81.1639 6.38809L82.6095 5.48316C85.8694 3.44149 89.378 1.96597 93.1375 1.12122L94.0169 0.925076L95.0828 0.699958L96.2219 0.4949L97.8385 0.265324L99.504 0.173939L100.077 0.0112305L103.874 0.062495L105.293 0.200686L106.686 0.370082L108.375 0.601887L109.557 0.813631L110.432 1.01423C112.823 1.56477 115.111 2.2691 117.318 3.32782L119.354 4.30407L121.921 5.7952C124.142 7.08573 125.989 8.75517 127.895 10.4759L128.69 11.1958L129.265 11.9001L130.608 13.3578C134.563 18.0229 137.37 23.5572 138.607 29.5574L138.867 30.8145L139.198 33.0701L139.446 36.1705C139.522 37.1223 139.52 38.0004 139.446 38.9566L139.253 41.4552L139.089 42.7926L140.59 43.5504L141.938 44.2413C146.004 46.3298 149.786 48.844 153.425 51.6034L155.626 53.3642L156.694 54.229L157.496 54.9177L159.152 56.3665L159.659 56.8234L163.876 61.0204L165.155 62.4313L166.554 64.0138L167.089 64.658L167.862 65.5963L169.698 67.9233L170.44 68.8906L171.499 70.3907L173.951 74.0305L174.708 75.3076L176.287 78.0135L176.82 78.963L179.029 83.3695L179.471 84.2945L180.213 86.0464C181.774 89.7352 183.066 93.4463 184.125 97.2979L185.147 101.533L185.418 102.886L185.604 103.773L185.831 105.166L185.977 106.142L186.144 106.985L186.364 108.603L186.575 110.511L186.875 113.633L186.941 116.299L187.085 117.735L187.123 121.392C187.085 121.521 186.966 121.851 186.963 122.001L186.886 125.248C186.879 125.565 186.686 125.901 186.77 126.229C186.808 126.376 186.701 126.677 186.692 126.822L186.599 128.402C186.593 128.531 186.706 128.781 186.797 128.841C188.274 129.777 189.57 130.789 190.918 131.884L192.257 133.107L193.816 134.67C197.311 138.416 200.05 142.754 201.795 147.604C202.492 149.541 203.041 151.397 203.4 153.428L203.625 154.694L203.807 156.1L204 159.196V161.662L203.816 164.655L203.616 166.253L203.378 167.666C202.121 174.063 199.239 179.985 195.009 184.927L193.767 186.275L192.106 187.931L188.806 190.713C184.176 194.141 178.472 196.689 172.8 197.544L171.681 197.714L170.995 197.852L168.75 197.995L164.77 198.017L163.278 197.921L161.684 197.747L160.294 197.524L160.078 197.489C157.889 197.123 155.799 196.544 153.736 195.764L153.567 195.701L153.392 195.637C151.031 194.752 148.871 193.588 146.715 192.289L146.588 192.213C146.588 192.213 146.501 192.229 146.428 192.242C142.771 194.444 139.049 196.432 135.121 198.106L132.363 199.234L127.719 200.863L123.616 202.091L122.865 202.294L120.08 202.927L119.263 203.11L118.199 203.324L116.92 203.562L116.061 203.712L114.988 203.872L113.7 204.095L112.737 204.144C112.452 204.16 111.931 204.496 110.738 204.392L110.199 204.568L108.691 204.586L107.729 204.737L102.999 204.86C102.657 204.869 102.275 205.074 101.907 204.987C101.325 204.846 100.772 204.811 100.175 204.802L96.5484 204.739L94.0946 204.525L92.1249 204.318L92.1227 204.307ZM111.809 45.7191L112.532 45.913L116.088 47.1523C118.322 48.0572 120.378 49.136 122.385 50.4488C123.86 51.4139 125.272 52.3367 126.531 53.5648L127.431 54.4407C127.904 53.8612 128.35 53.1569 128.687 52.4704L130.029 49.7578L130.782 47.8254L131.401 45.864L131.656 44.959L131.874 43.9962L132.096 42.7926C132.143 42.5429 132.201 42.222 132.247 41.9411L132.427 40.8534L132.438 34.4699C132.209 34.033 132.294 33.5137 132.098 32.5218L131.825 31.1288L131.479 29.6622C131.095 28.0373 130.517 26.5707 129.809 25.0261C128.543 22.2667 126.918 19.7124 124.912 17.4545L124.155 16.6009L123.043 15.4641L121.735 14.3163L120.076 12.9967L118.95 12.1899C114.702 9.34805 109.872 7.63404 104.78 7.15928L103.148 7.00772L100.93 6.98543L99.9792 7.13477L97.5921 7.33759C91.0101 8.30716 84.8967 11.461 80.2423 16.2554C77.34 19.2443 75.1526 22.7325 73.5827 26.593L73.1763 27.5893L72.2259 31.0129L71.986 32.1786L71.8106 33.2663L71.6352 35.3258L71.462 36.0992C71.3865 37.1 71.3509 38.1364 71.4731 39.135L71.6463 40.5503L72.1592 43.9739C72.65 46.3788 73.3628 48.6523 74.482 50.8322L74.9106 51.668L76.5361 54.3984L78.226 52.9585L81.6791 50.4354L85.2143 48.4071C88.0989 46.9115 91.1034 45.8194 94.2944 45.2042L95.8933 44.8966L97.2923 44.6938L98.8889 44.5244L103.146 44.4709H104.327L106.785 44.6916L108.184 44.8966L109.679 45.1908L111.804 45.7191H111.809ZM115.726 196.697L116.905 196.492L117.937 196.265L118.817 196.058L119.867 195.83L120.891 195.587L125.035 194.411L127.773 193.503C131.41 192.3 134.859 190.773 138.207 188.934L140.499 187.675C140.566 187.637 140.679 187.494 140.628 187.454L140.401 187.28L139.7 186.583C137.621 184.514 135.942 182.118 134.408 179.615L133.842 178.69L132.705 176.39C131.599 174.15 130.73 171.828 130.2 169.371L129.967 168.295L129.736 167.033L129.578 165.923L129.434 165.248L129.298 163.634L129.149 162.408V158.55L129.3 157.436L129.434 155.706L129.58 155.042L129.749 153.731L129.967 152.543L130.18 151.692L130.433 150.626L131.445 147.468L132.631 144.613L133.371 143.093L134.001 141.911L134.979 140.298L136.642 137.902L137.192 137.186L138.243 135.887L139.702 134.36L141.634 132.434C145.085 129.367 148.968 126.978 153.281 125.319L155.397 124.582L157.68 123.946L158.61 123.741L159.881 123.498L160.922 123.302L162.565 123.077L164.413 122.981L165.095 122.816L167.968 122.821L168.728 122.988L170.702 123.091L171.703 123.224L172.663 123.391L173.942 123.623L175.019 123.842L175.76 124.056L177.961 124.673L179.742 125.268C179.915 125.083 179.995 124.787 179.995 124.542L180.006 120.213C180.29 119.667 180.335 118.998 180.011 118.421L179.997 115.33L179.811 112.552L179.618 110.611L179.367 108.705L179.098 106.96L178.891 105.681L178.703 104.711L178.467 103.537L178.261 102.576L178.032 101.606C176.418 94.7725 173.908 88.2352 170.551 82.0567L169.42 80.0663L168.583 78.6576C167.195 76.3218 165.712 74.1174 164.033 71.9977L162.516 70.0831L160.156 67.3059L159.157 66.1825L158.333 65.291L156.09 63.0554L155.037 62.0836C154.729 61.7983 154.445 61.5331 154.143 61.2634L153.17 60.4008C148.511 56.2684 143.357 52.8248 137.848 49.9473C137.741 49.8916 137.534 49.8492 137.455 49.8737C137.395 49.8916 137.335 50.0298 137.301 50.1256C136.02 53.7632 134.255 57.1444 131.932 60.2136L129.522 63.0666L128.41 64.2924L127.455 65.155L125.223 67.1053C120.618 70.7651 115.248 73.393 109.464 74.4829L108.069 74.7459L107.099 74.8908L106.108 75.0268L103.939 75.1271C103.841 75.185 103.581 75.321 103.459 75.321H100.619C100.483 75.321 100.221 75.1873 100.126 75.1271L97.8741 75.0246L96.8615 74.8886L95.7867 74.7348L94.5009 74.4785C89.6422 73.5111 85.1166 71.5363 81.0284 68.7591L79.0432 67.3081L77.4576 66.0198L76.294 64.9455L74.8373 63.5123L73.9868 62.5695L73.2385 61.6735C70.3716 58.241 68.211 54.3248 66.6943 50.0944C66.661 50.0008 66.3745 49.8359 66.2901 49.8827L62.8348 51.775L62.1087 52.2208L60.6564 53.1257C56.9657 55.4259 53.4838 57.9134 50.2994 60.88L47.5303 63.4588L46.4377 64.551L42.747 68.5987L42.2097 69.2562L41.3236 70.2636L40.8151 70.9479L40.12 71.8462L39.234 72.994L38.7277 73.6738L36.114 77.5722L35.4634 78.6131L34.2598 80.6369L32.6854 83.5322L31.4507 86.033L30.6135 87.8697L29.3478 90.8987C28.3618 93.2547 27.5735 95.6084 26.914 98.0713L26.0502 101.299L25.8237 102.364L25.5949 103.43L25.3995 104.312L25.1886 105.378L24.9421 106.858L24.7622 107.93L24.5268 109.746L24.3136 111.679L24.1271 113.038L24.0694 115.664C24.0627 115.954 24.0094 116.259 23.8873 116.526L23.8806 122.264L24.0516 123.026L24.0893 125.061C24.0893 125.108 24.1182 125.23 24.156 125.244C24.1937 125.257 24.3469 125.255 24.3914 125.239L26.4876 124.544L27.911 124.147L28.6749 123.94L29.5166 123.739L30.7845 123.503L31.9259 123.293L33.3716 123.073L35.1969 122.986L35.812 122.816L39.1807 122.836C39.3562 122.872 39.747 123.006 39.9269 123.013L41.4324 123.064L43.0313 123.3L44.3192 123.507L45.2763 123.683L48.9581 124.673L50.8545 125.335L54.0989 126.791L56.2529 127.95L58.5401 129.398L60.2167 130.606L62.5262 132.554L64.3759 134.342L65.5951 135.682L66.6321 136.907L68.1688 138.994C69.51 140.812 70.5271 142.72 71.4819 144.771C72.3635 146.668 73.0186 148.567 73.5649 150.575L73.7892 151.402L74.0068 152.363L74.2178 153.334L74.4554 154.805L74.6552 156.328L74.7396 158.307L74.9284 158.873L74.9239 162.072L74.7374 162.624L74.6619 164.61L74.4531 166.128L74.2333 167.544L74.0068 168.46L73.8136 169.34L73.3006 171.252L72.6678 173.178L72.0749 174.703L71.4242 176.212L70.2784 178.507C69.2125 180.38 68.1377 182.201 66.7453 183.828L65.5573 185.216L64.0762 186.826L63.3722 187.563L64.5047 188.232L69.0481 190.53C72.2658 191.992 75.428 193.352 78.8011 194.337L82.4918 195.414L83.2557 195.614L84.0796 195.824L85.0655 196.038L86.1092 196.263L87.1795 196.49L88.241 196.689L89.6289 196.914L91.2211 197.152L93.8992 197.462L94.6519 197.62L95.7934 197.674L97.2989 197.774L99.1043 197.879H105.076L106.779 197.776L108.073 197.685L108.995 197.625L111.26 197.348L112.957 197.132L114.444 196.911L115.728 196.691L115.726 196.697ZM34.8905 167.321L35.9097 167.234L39.2673 167.258L41.6123 167.405L42.314 167.557C47.3526 168.203 52.1025 169.877 56.4905 172.447C58.8066 173.805 60.8274 175.409 62.9303 177.221C63.9118 175.697 64.88 174.161 65.5129 172.447L66.5011 169.772L67.4915 165.743L67.6913 164.546L67.9245 161.871L67.9201 159.196L67.6891 156.417L67.4959 155.184C66.4456 149.302 63.7764 143.946 59.7082 139.591L58.0472 137.922L55.902 136.13L54.6563 135.216C51.2787 132.735 45.2808 130.388 41.1637 130.067L38.459 129.855H36.2273L33.356 130.116C27.2138 130.939 21.5401 133.647 16.9478 137.81L14.796 139.941C13.1839 141.867 11.7271 143.81 10.5435 146.035C9.57312 147.858 8.75593 149.643 8.22298 151.627L7.71001 153.533L7.49905 154.498L7.2992 155.552L7.07047 157.072L7.0194 158.757C7.01496 158.871 6.88172 159.132 6.82176 159.234L6.85285 161.637L7.0305 162.393L7.07491 163.792L7.30142 165.406L7.50571 166.454L7.70335 167.323C8.50944 170.869 9.90621 174.143 11.9137 177.215L12.773 176.533C17.5119 172.391 23.1012 169.538 29.2368 168.136L32.8208 167.524L34.8949 167.327L34.8905 167.321ZM191.127 176.417L191.862 177.052C191.906 177.09 192.062 177.204 192.104 177.163C192.146 177.123 192.251 177.007 192.282 176.954L193.208 175.418L193.63 174.672C194.72 172.735 195.464 170.686 196.041 168.529L196.272 167.671L196.483 166.706L196.712 165.535L196.865 164.537L197.018 163.554L197.023 157.398L196.872 156.531L196.701 155.447L196.488 154.246L196.261 153.183L196.072 152.501C195.177 149.256 193.485 145.422 191.485 142.758L190.936 142.029C190.094 140.911 189.18 139.896 188.185 138.907L186.684 137.416L185.857 136.743L184.536 135.708C183.028 134.527 181.39 133.606 179.653 132.802L178.485 132.26C175.871 131.05 173.118 130.433 170.264 130.049L167.757 129.849H165.417L163.101 130.031C159.472 130.486 155.995 131.485 152.752 133.199C151.069 134.088 149.488 134.968 148.042 136.192L146.128 137.815L143.945 139.992L143.39 140.639C140.259 144.278 138.072 148.614 136.944 153.29L136.382 156.363L136.158 158.483L136.167 162.673C136.604 167.972 138.161 172.721 141.11 177.237C143.426 175.198 145.746 173.419 148.393 171.97C150.094 171.038 151.769 170.225 153.581 169.581L154.771 169.157C156.672 168.482 158.593 168.014 160.609 167.722L162.199 167.492L163.813 167.325L165.108 167.24L168.246 167.256L170.704 167.394L171.386 167.546C173.471 167.771 175.469 168.154 177.432 168.825L179.753 169.616L182.715 170.88L184.372 171.721C186.786 173.056 189.022 174.585 191.136 176.412L191.127 176.417Z" fill="#4D6D89"/>
<path d="M113.185 144.771C103.228 148.698 91.9004 147.105 83.4353 140.596L81.9186 139.33C81.0348 138.593 80.2265 137.837 79.4737 136.974L79.074 136.515C77.9459 135.22 76.9467 133.948 76.0362 132.476C74.2886 129.65 72.9073 126.639 72.2167 123.374L71.988 122.293L71.7682 121.116L71.6305 120.026C71.5905 119.716 71.515 119.337 71.4195 119.056L71.4106 112.989C71.5328 112.724 71.5927 112.423 71.6327 112.124L71.7682 111.146L71.9969 109.858L72.1901 108.977L72.6542 107.176L72.8629 106.539L74.2708 102.997C75.4766 100.412 77.0399 98.0512 78.8875 95.8937L80.0866 94.6277L81.7144 93.0362L82.7669 92.1647L85.4072 90.2278L87.2304 89.1513C89.5554 87.7783 92.1002 86.8734 94.7339 86.198L96.0174 85.9461L97.0633 85.7366C97.5718 85.6363 98.0604 85.6363 98.5889 85.5605L99.6592 85.4067L104.318 85.4112L105.502 85.5628L107.027 85.7277L108.071 85.9372L109.252 86.1958C113.922 87.2188 118.173 89.5458 121.832 92.6061L123.284 93.9501L124.019 94.6945L125.359 96.1455L125.943 96.841L126.547 97.6456C128.374 100.08 129.793 102.725 130.839 105.609L131.807 108.792L132.005 109.757L132.196 110.722L132.433 112.022L132.505 113.457C132.509 113.567 132.642 113.85 132.684 113.95V118.296L132.498 118.664L132.431 120.124L132.203 121.414L131.985 122.594L131.803 123.438L130.786 126.788C129.444 130.292 127.626 133.506 125.13 136.288L124.544 136.999L122.616 138.9L121.406 139.943L119.638 141.285C118.424 142.208 117.162 142.988 115.777 143.605L113.185 144.76V144.771ZM87.5812 118.468L96.839 127.733C97.2521 128.148 97.8383 128.335 98.3824 128.485C99.4594 128.779 100.705 128.308 101.458 127.41L106.077 121.9L106.552 121.299L108.009 119.556L108.686 118.733L110.236 116.868L111.493 115.354L113.043 113.491L114.597 111.61L117.009 108.585C117.577 107.872 117.633 105.757 116.432 104.631C115.936 104.167 115.081 103.759 114.366 103.688C112.952 103.548 111.897 104.401 111.091 105.413L110.041 106.728L109.257 107.644L107.331 109.987L105.182 112.559L103.641 114.414L102.959 115.238L101.465 117.046L99.7525 119.083L99.2306 119.734C99.1107 119.883 98.8176 120.345 98.6066 120.131L96.7413 118.243L95.7176 117.231L93.5236 115.042L92.0514 113.573C91.1742 112.893 90.206 112.568 89.1979 112.851C88.1897 113.134 87.3681 113.691 86.9661 114.712L86.6508 115.51C86.3732 116.212 86.844 117.73 87.5812 118.468Z" fill="#4D6D89"/>
<path d="M102.731 41.0319C102.124 41.1991 101.916 41.2726 101.389 41.0297L99.6729 40.9316L98.6336 40.6931C97.3057 40.39 96.031 39.9397 94.9563 39.1641L93.1398 37.8513C92.5558 37.4278 92.1205 36.9419 91.6498 36.3713C89.7067 34.0087 88.3521 31.013 88.4321 27.9171L88.5009 25.2647L88.8562 23.6265C89.2626 22.3337 89.7045 21.1101 90.4928 20.0291L91.632 18.4688C92.4248 17.3834 94.3323 15.9145 95.6669 15.2459C97.4745 14.3387 99.2976 13.728 101.352 13.7948C101.74 13.5095 102.242 13.4627 102.649 13.7948L104.092 13.8461L105.082 14.0356C107.034 14.4078 108.775 15.3328 110.356 16.5342C112.91 18.4755 114.74 21.4288 115.406 24.6027L115.573 25.3918C115.679 26.7113 115.69 27.9751 115.575 29.3012L115.324 30.4848C115.182 31.1534 115.051 31.7642 114.766 32.3637L113.863 34.2672L112.914 35.7071L111.666 37.0979C110.239 38.6916 107.425 40.2763 105.378 40.7065L104.301 40.9338L102.733 41.0319H102.731Z" fill="#4D6D89"/>
<path d="M37.4574 164.031C36.9733 164.024 36.678 163.895 36.2805 163.859L35.0769 163.752L34.0221 163.522C32.0946 163.101 30.3514 162.181 28.8702 160.912L27.9886 160.159C26.3076 158.721 24.5911 155.708 24.1425 153.468L23.916 152.333L23.9227 148L24.0981 147.111C24.6777 144.9 25.6681 142.843 27.1959 141.158C28.9257 139.25 30.9154 137.886 33.3936 137.115L34.3174 136.889L35.279 136.669L39.6336 136.646L40.5463 136.894C42.8357 137.511 44.8965 138.499 46.6175 140.088C48.1786 141.53 49.3266 143.177 50.1238 145.143L50.5924 146.509L50.7945 147.405C50.9077 147.909 51.021 148.393 51.0387 148.925L51.0854 150.281L50.9299 152.463C50.4569 154.961 49.4443 157.333 47.7567 159.21L46.4554 160.513C44.7166 162.259 42.3938 163.213 40.0022 163.73L38.561 163.855C38.2191 163.884 37.8571 164.04 37.453 164.035L37.4574 164.031Z" fill="#4D6D89"/>
<path d="M169.11 163.708L167.688 163.832C166.864 164.176 166.112 163.966 165.301 163.853L163.8 163.645L162.734 163.409C161.65 163.168 160.633 162.749 159.741 162.114L157.8 160.732L157.047 160.092C156.077 159.031 155.088 157.982 154.509 156.662L153.789 155.024C153.125 153.51 152.828 150.925 152.972 149.191C153.143 147.171 153.689 145.286 154.678 143.492L155.99 141.599L156.747 140.672L158.733 139.02C160.083 137.897 161.688 137.248 163.429 136.899L164.571 136.669L168.781 136.633C169.007 136.747 169.207 136.787 169.463 136.838C171.637 137.257 173.586 138.247 175.303 139.645L176.355 140.607L176.946 141.283L177.663 142.192C178.287 142.983 178.82 143.891 179.167 144.842L179.735 146.403L179.944 147.328L180.162 148.513C180.359 149.597 180.257 150.707 180.168 151.825L179.993 152.773C179.72 155.481 177.581 159 175.432 160.701L174.654 161.316C173.033 162.6 171.161 163.311 169.107 163.708H169.11Z" fill="#4D6D89"/>
</g>
<defs>
<clipPath id="clip0_129_121">
<rect width="204" height="205" fill="white"/>
</clipPath>
</defs>
</svg>
