<svg width="113" height="113" viewBox="0 0 113 113" fill="none" xmlns="http://www.w3.org/2000/svg">
<g clip-path="url(#clip0_85_1336)">
<path d="M0.500048 90.2399V88.273L0.887605 88.2849L0.927152 87.5603C1.16048 87.4607 1.26725 87.3373 1.37798 87.1501C1.46103 87.1143 1.65481 87.0586 1.67063 86.9829L1.71808 86.6923H13.9538C13.9775 86.5091 13.9775 86.3499 13.9064 86.326L13.6493 86.2384L13.2538 85.8004C13.1115 85.6451 13.0126 85.5456 12.7793 85.3744V36.9381C12.9335 36.9023 13.1154 36.8784 13.1233 36.7948L13.155 36.4683C13.1668 36.3648 13.1945 36.1657 13.2262 36.1418C13.3685 36.1179 13.5465 36.102 13.5663 36.0303L13.6374 35.7357H27.111L27.3799 35.8551C27.4353 35.879 27.3799 36.0861 27.3206 36.094L27.0358 36.1219L27.0082 37.6867L26.6206 37.7424L26.6048 38.913H16.3424V83.9051H96.2108V38.913H86.3439L86.3202 38.1326L85.9366 38.0808L85.9287 36.5917L85.5174 36.5121L85.5569 35.7317H98.5796C98.5836 36.3249 99.3468 35.9626 99.3706 36.4086L99.418 37.2805C99.6118 37.3403 99.766 37.4438 99.766 37.6389V84.6059L99.4062 84.8169L99.3389 85.8322L98.987 85.9557L98.8921 86.2145L98.5678 86.326C98.5124 86.3459 98.5678 86.5688 98.5955 86.6883H111.242C111.254 86.8675 111.254 86.9949 111.302 87.0267L111.515 87.174L112.033 87.5204L112.049 88.2491L112.413 88.3207L112.421 90.2359L112.033 90.3315V91.0243L111.674 91.088C111.602 91.0999 111.567 91.3348 111.531 91.4224L110.61 91.522L110.404 91.8285C110.365 91.8883 110.147 91.9002 110.017 91.9002H2.90844C2.73443 91.9002 2.55252 91.8484 2.47343 91.8007C2.41411 91.7609 2.3706 91.518 2.29942 91.51L1.35821 91.4224C1.2198 91.1596 1.16048 91.088 0.958789 90.9128L0.867832 90.2677L0.496094 90.2359L0.500048 90.2399ZM60.1878 90.2797C60.2194 90.0846 60.2313 89.9333 60.2866 89.9174L60.5753 89.8417L60.6781 89.1967C60.864 89.1091 61.0182 88.9976 61.0301 88.8941C61.042 88.7906 60.8403 88.6592 60.6663 88.5955L60.5793 87.4766H52.3259L52.2943 88.269C52.0412 88.3327 51.8909 88.4641 51.8909 88.699C51.8909 88.9578 52.0016 89.1051 52.231 89.2285L52.3338 89.8457C52.4604 89.8656 52.6581 89.8815 52.6739 89.9612L52.7332 90.2797H60.1878Z" fill="#4D6D89"/>
<path d="M61.3903 20.9998C61.3389 21.0635 61.3151 21.3541 61.4061 21.37L61.7897 21.4377L61.8015 24.5872H74.4802C74.3972 24.189 74.5474 23.8864 74.8084 23.767L74.8915 23.4166L75.2158 23.3569C75.2514 23.2454 75.283 23.0662 75.3581 23.0344L75.6112 22.9348L75.7457 22.6282C75.7813 22.5526 76.3824 22.68 76.4101 22.5486L76.4813 22.2181L77.4897 22.1664L77.6874 21.7921L79.0913 21.808L79.2733 22.1465C79.3405 22.2699 79.9337 22.0987 79.9851 22.242L80.0879 22.5327L80.7365 22.6322L80.8749 22.9547L81.128 23.0463L81.2664 23.3489C81.2901 23.4007 81.4879 23.4007 81.5274 23.4405C81.5788 23.4922 81.5946 23.7112 81.6619 23.7391L81.9664 23.8546L81.9743 24.5115L82.3777 24.6151V27.7446C82.1839 27.7565 81.9822 27.7645 81.9822 27.8441V28.1786C81.9822 28.2821 81.9782 28.4852 81.8991 28.513L81.646 28.6086L81.5037 28.9112L81.2348 28.9908L81.1557 29.3094C81.1398 29.381 80.9105 29.393 80.8551 29.4408C80.7997 29.4925 80.78 29.7394 80.7009 29.7434L80.3173 29.7712C80.254 29.7752 80.0602 29.7832 80.0484 29.8429L79.9811 30.1535L76.4536 30.1415C76.4417 29.9743 76.4338 29.8071 76.3784 29.7951L76.1016 29.7473L75.7576 29.6876C75.6824 29.6757 75.6864 29.4169 75.6191 29.385L75.3146 29.2496L75.2316 28.9908L74.931 28.8515C74.8045 28.7918 74.9192 28.2264 74.7689 28.1945L74.4762 28.1268L74.4446 27.3783H68.1725L68.1567 27.7287C68.3426 27.7565 68.4968 27.7764 68.5126 27.8481L68.5798 28.1507L69.268 28.1706L69.3787 28.525L69.6516 28.6126L69.786 28.9032C69.8256 28.9869 70.308 28.9032 70.3832 29.0307L70.5493 29.3094L70.8459 29.4169L71.0001 29.6836C71.1464 29.8071 71.269 29.9305 71.3916 30.0659L71.6605 30.2371L71.7594 30.4879C71.7831 30.5516 72.0243 30.5596 72.052 30.6273L72.1746 30.902L72.4831 31.0254L72.5859 31.2564L72.8825 31.3997L72.9616 31.6545L73.2701 31.778L73.3492 32.0925L73.6418 32.2438L73.7446 32.4708L74.0333 32.6221L74.1243 32.8809L74.4288 33.0123L74.5277 33.3228L74.8084 33.4861C74.8954 33.5378 74.7966 33.9599 74.9824 34.0554L75.2079 34.1749L75.3067 34.4855L75.6468 34.5969L75.6745 35.2659L76.0107 35.3933L76.1016 35.676L76.4259 35.7835C76.4931 35.8073 76.3587 36.4444 76.4971 36.4683L76.8134 36.5201L76.8965 37.1452C77.466 37.3482 77.1219 37.9853 77.3473 38.0689L77.6162 38.1684L77.6716 38.8413C77.7784 38.8652 78.0157 38.8891 78.0157 38.9648V39.3749C78.0157 39.5501 78.0987 39.6854 78.3479 39.785L78.4388 40.9038L78.8066 40.9795L78.8185 42.4606L79.2139 42.5562V44.105C79.2179 44.2722 79.4156 44.4793 79.5936 44.4793H81.5353L81.6105 44.8814L82.3737 44.8974V52.3947C82.2076 52.4186 82.0178 52.4345 81.9901 52.5022L81.8754 52.8327H74.9468L74.8282 52.4783C74.8124 52.4266 74.6186 52.4385 74.4683 52.4345V44.8774L75.1841 44.8735L75.2672 44.4634L76.8372 44.4873V43.3485L76.4259 43.3087L76.4457 42.0465L76.0542 41.9948L76.0225 40.9357L75.6785 40.7844L75.6033 39.777C75.022 39.6655 75.3463 39.0325 75.1485 38.9687L74.8678 38.8772L74.8163 38.1366C74.6819 38.1207 74.4762 38.1047 74.4762 38.0251L74.4644 37.6946C74.4644 37.5951 74.4723 37.3761 74.3932 37.3522L74.1243 37.2646L73.9938 36.958L73.6774 36.8665L73.6418 36.1856C73.4045 36.0781 73.3136 35.9666 73.2266 35.7755L72.9379 35.6361L72.8588 35.3734L72.5424 35.242C72.4435 35.2021 72.5622 34.6567 72.3882 34.585L72.1469 34.4855L72.0125 34.1789L71.7159 34.0913C71.6961 33.944 71.6922 33.7807 71.6249 33.7449L71.3877 33.6334L71.0238 33.2233C70.8894 33.072 70.747 32.9486 70.5611 32.8132C70.5295 32.7335 70.482 32.5544 70.4108 32.5385L70.1657 32.4907L70.0154 32.1921C69.9917 32.1403 69.8137 32.1323 69.7741 32.0885C69.7227 32.0328 69.703 31.8178 69.6318 31.7939L69.3233 31.6864C69.3154 31.6028 69.3391 31.332 69.26 31.332H68.9239C68.825 31.3241 68.6194 31.3241 68.5917 31.2484L68.4968 30.9976L68.1883 30.8582L68.0974 30.5476C67.9906 30.5397 67.7415 30.5556 67.7296 30.476L67.6782 30.1495L66.9861 30.1256L66.8793 29.7792C66.8477 29.6797 66.2743 29.9424 66.0884 29.3771L65.4477 29.2855C65.424 29.1979 65.4003 28.9669 65.3252 28.963L64.9376 28.9391C64.8506 28.9351 64.6212 28.9431 64.6054 28.8634L64.5421 28.5608H63.7828L63.7275 28.1547L62.6281 28.1666L62.5529 27.7526L61.8095 27.7605L61.7739 30.9498L52.3539 30.9578C52.3262 30.8025 52.3143 30.6153 52.2471 30.5835L51.9307 30.4362V27.7764C51.7251 27.7526 51.5273 27.7406 51.5155 27.8202L51.4601 28.1428L50.3726 28.1666L50.2777 28.533L49.2494 28.6285C49.115 29.2138 48.5297 28.6882 48.328 29.3293L47.6043 29.393C47.5845 29.5045 47.5766 29.7155 47.5015 29.7314L47.2207 29.8031C46.9241 30.3167 46.4772 30.0221 46.4021 30.2212L46.3032 30.476C46.2755 30.5476 46.0145 30.5397 45.9987 30.6153L45.9394 30.9179L45.2632 30.9617C45.1564 31.2126 45.0575 31.2962 44.8519 31.4276C44.8123 31.5072 44.749 31.6744 44.6818 31.7023L44.4564 31.7859L44.0886 32.1841L43.6496 32.5942C43.6259 32.6738 43.5982 32.8649 43.5231 32.8888L43.2581 32.9764L43.1355 33.291L42.8429 33.3945L42.4712 33.8086L42.0638 34.1829C42.0441 34.2306 42.0124 34.4218 41.9531 34.4616L41.696 34.6248C41.5734 34.7682 41.4429 34.8956 41.3085 35.015C41.2689 35.0747 41.2215 35.2778 41.1463 35.2977L40.8458 35.3694L40.8379 36.0622L40.4385 36.1577C40.4424 36.3011 40.4582 36.5041 40.3831 36.5201L40.0786 36.5838L40.039 37.2487L39.7029 37.4C39.5803 37.4557 39.7345 38.0211 39.5605 38.0729L39.2956 38.1446C39.2442 38.3874 39.1492 38.5268 38.9199 38.69L38.8289 39.6098C38.7617 39.6257 38.469 39.6177 38.469 39.6974V40.1154C38.4651 40.203 38.4888 40.4618 38.4058 40.4738L38.0815 40.5256L38.0261 41.5329L37.686 41.724L37.6465 42.7752L37.2905 42.9663L37.247 44.4673L38.7973 44.4793L38.9001 44.8456C38.9159 44.9013 39.1571 44.8814 39.1809 44.9372L39.3074 45.2358C39.3312 45.2876 39.4814 45.2915 39.6396 45.3114V52.0125C39.4498 52.0404 39.2758 52.0483 39.26 52.124L39.1967 52.4106C39.0464 52.5062 38.8724 52.6575 38.734 52.8327H32.1495C32.1179 52.6575 32.0981 52.5022 32.0269 52.4823L31.7461 52.3947L31.7263 51.7139L31.3388 51.6342V45.6738L31.7184 45.5941C31.7896 45.5782 31.6907 44.8974 31.7817 44.8934L32.1099 44.8814C32.1969 44.8814 32.454 44.9013 32.4659 44.8217L32.5133 44.4793L34.4788 44.4912L34.5223 43.7507L34.898 43.5595L34.9059 42.1262L35.2816 41.9271L35.333 40.6131C35.4437 40.5853 35.6612 40.5654 35.6652 40.4897L35.685 40.1115L35.7047 39.7093C35.7087 39.6257 35.9816 39.6416 36.0725 39.6257L36.0962 38.6064L36.4561 38.5069C36.5827 38.471 36.2979 37.822 36.8555 37.6309L36.8793 36.9899L37.2233 36.8824C37.342 36.8465 37.2035 36.3051 37.3776 36.2175L37.603 36.098C37.6821 35.9149 37.8007 35.7436 37.9866 35.5963L38.0815 34.9951L38.4216 34.8796L38.5086 34.6009L38.821 34.4855C38.9278 34.4456 38.6945 33.9878 39.1769 33.6812L39.3153 33.3905C39.3391 33.3427 39.5289 33.3188 39.5684 33.279C39.6238 33.2273 39.6159 32.9844 39.6871 32.9685L39.9916 32.9048C40.043 32.5345 40.5255 32.1363 40.4701 32.1483L40.8102 32.0885L40.8616 31.3718C41.0633 31.3718 41.1978 31.3838 41.2333 31.3161L41.3559 31.0812C41.3876 31.0175 41.609 30.9936 41.6249 30.9219L41.6881 30.5875L42.3525 30.5078C42.3842 30.3167 42.396 30.1893 42.4474 30.1455L42.657 29.9783C42.7875 29.8748 42.9932 29.7673 43.1672 29.6956L43.2581 29.3571C43.274 29.3014 43.5073 29.3293 43.531 29.2775L43.6813 28.9869C43.705 28.9391 43.8711 28.9232 43.9423 28.9032C44.053 28.6444 44.3892 28.521 44.7095 28.5608L44.8281 28.2423C44.8558 28.1706 45.0694 28.1547 45.1287 28.1029C45.188 28.0512 45.1841 27.8043 45.2592 27.7924L45.6072 27.7366L45.9038 27.6889C45.9631 27.6809 45.9434 27.4738 45.9157 27.3743H38.469L38.4414 28.1268L38.0775 28.2224C38.0222 28.2383 38.0578 28.4215 38.0617 28.5568C38.0657 28.7042 37.8482 28.9072 37.7335 29.0307C37.5713 29.1979 37.5081 29.2934 37.255 29.3492C37.0651 29.389 36.9465 29.5244 36.8081 29.6558L36.3454 30.0977C35.2974 30.1614 34.1189 30.1535 33.0591 30.1137C32.8653 29.5403 32.371 29.8588 32.2128 29.6319C32.1811 29.5841 32.1574 29.4129 32.106 29.393L31.8094 29.2855C31.7382 29.2616 31.7303 29.0386 31.671 28.9908C31.6037 28.9391 31.4021 28.9192 31.3783 28.8475L31.2834 28.5768C31.2122 28.5568 30.967 28.5568 30.9591 28.4732L30.9394 28.1547L30.9156 27.7844C30.9117 27.7088 30.71 27.6928 30.5676 27.6689L30.5479 24.6589L30.9235 24.4837L30.9591 23.8148C31.1134 23.7869 31.2676 23.767 31.2992 23.6953L31.406 23.4325L31.6947 23.2971L31.8015 23.0622C31.9597 22.9507 32.0902 22.8114 32.2128 22.6402L32.5054 22.5287C32.5568 22.5088 32.5647 22.242 32.6201 22.238L33.6404 22.1504L33.7511 21.7802H35.6335L35.7838 22.1664L36.8041 22.2221C36.8318 22.3734 36.8437 22.5645 36.9188 22.5805L37.2035 22.6362C37.3064 22.8233 37.4329 22.9547 37.6148 23.0662L37.7651 23.3489C37.7928 23.4007 38.0143 23.3847 38.0222 23.4405L38.0894 23.7909C38.1013 23.8466 38.2515 23.8426 38.4255 23.8466L38.4493 24.5832H51.9109V21.812C52.0929 21.7762 52.2234 21.7602 52.255 21.6926L52.3618 21.4497C52.3934 21.378 52.6821 21.3979 52.6861 21.3223L52.694 21.0037H61.3784L61.3903 20.9998Z" fill="#4D6D89"/>
<path d="M66.5349 63.1532V63.5434C66.5349 63.623 66.2857 63.627 66.175 63.6429L66.1552 64.7339L65.8547 64.7976C65.7756 64.8135 65.7439 65.0246 65.7558 65.1082C65.7993 65.4147 65.7637 65.5979 65.4038 65.6775L65.3366 66.6928L64.9807 66.8441L64.9609 67.9033L64.5694 67.955L64.5575 68.7792H57.1544L57.0279 68.3771H49.6049L49.5219 68.0944C49.5021 68.0227 49.3479 68.0028 49.1818 67.963L49.162 67.5688C49.1502 67.3259 49.1067 67.2144 48.8022 67.083L48.7072 66.0399L48.4146 65.9682C48.3395 65.9483 48.3632 65.7333 48.3592 65.6417L48.3434 65.2196C48.3434 65.136 48.0626 65.1559 47.9756 65.148L47.9479 64.0331L47.6355 63.9774C47.5525 63.9615 47.5564 63.7305 47.5525 63.639V63.3045C47.5525 63.2249 47.3192 63.2089 47.2084 63.197L47.1135 62.1498C46.5401 62.0344 46.8565 61.3575 46.722 61.2978L46.3859 61.1544L46.3384 60.1073C46.2316 60.0794 46.0181 60.0555 46.0102 59.9799L45.9825 59.6096L45.9587 59.291C45.9508 59.2074 45.7254 59.2154 45.587 59.2074L45.5791 57.6387L45.9152 57.5909C45.9983 57.5789 45.9943 57.3201 45.9943 57.2325V56.9021C45.9943 56.8224 46.2316 56.8185 46.3503 56.8105L46.3819 56.1018L46.726 55.9943C46.8288 55.9624 46.7378 55.397 46.8288 55.3612L47.1649 55.2179L47.1886 54.4852L47.505 54.4215C47.5841 54.4056 47.5604 54.1627 47.5604 54.0791L47.5723 53.7407C47.5723 53.6571 47.8372 53.665 47.944 53.661L47.9677 52.9125L48.2762 52.8767C48.4858 52.8528 48.1694 52.1361 48.6954 52.0007L48.7942 51.3915L49.0869 51.2044C49.2293 51.1128 49.0829 50.5235 49.1858 50.5036L49.5259 50.432L49.5654 49.7113L49.8778 49.6436C49.9569 49.6277 49.9292 49.3848 49.9332 49.3012L49.953 48.9667C49.9569 48.8831 50.214 48.8831 50.3207 48.8752L50.3366 48.0788L50.6608 48.0271C50.7439 48.0151 50.736 47.7683 50.736 47.6807V47.3462C50.736 47.2666 50.9733 47.2546 51.0998 47.2387L51.1235 46.1597L51.4755 46.0522C51.6179 46.0084 51.2778 45.3156 51.8591 45.2081L51.958 44.1649L52.2546 44.0933C52.3297 44.0733 52.302 43.8464 52.306 43.7628L52.3258 43.3367C52.3258 43.2531 52.5947 43.2611 52.7015 43.2531L52.7133 42.1462L53.1088 42.0586L53.1167 40.9478L53.4805 40.8005L53.524 39.821L53.8878 39.6299L53.8997 38.5787L54.2715 38.3876L54.307 37.3086L56.2646 37.3285V56.0022C56.0431 56.062 55.8889 56.1496 55.7545 56.261L55.5567 56.4283C55.5014 56.4721 55.4855 56.5955 55.4579 56.7627L55.0663 56.8901L55.094 58.7774C55.268 58.7694 55.4381 58.7495 55.4499 58.8093L55.5053 59.1835L55.8652 59.2273C55.9443 59.2353 55.9205 59.5021 55.9285 59.6175H57.8069L57.8662 59.2831C57.8781 59.2034 58.1391 59.2194 58.1984 59.2194C58.3131 58.9964 58.4001 58.877 58.6097 58.7057L58.6967 58.1085L58.9775 58.0169C59.0487 57.993 59.0685 57.782 59.0605 57.7064L59.025 57.3082C59.017 57.2286 58.7995 57.2047 58.6888 57.1768L58.6058 56.48L58.3013 56.4004C58.2261 56.3805 58.2103 56.1894 58.1866 56.0699L57.455 55.9903V37.7227L59.8278 37.7147L59.8159 38.5509L60.2034 38.5907L60.2628 40.0041L60.6068 40.1953V41.2583L60.9786 41.3858L61.03 42.4329L61.4096 42.5285L61.4294 43.6075L61.7972 43.7389L61.8051 44.8498L62.1373 44.9055C62.2203 44.9174 62.2006 45.1643 62.2045 45.2519V45.5903C62.2124 45.6739 62.4655 45.67 62.5723 45.6739L62.6395 46.7092L62.9796 46.9043L62.9875 47.6249L63.3355 47.7324C63.47 47.7723 63.1615 48.477 63.731 48.5845L63.822 49.6197L64.1225 49.6914C64.2016 49.7113 64.1739 49.9462 64.1779 50.0338L64.1897 50.3683C64.1897 50.4519 64.4587 50.4479 64.5654 50.4559L64.5813 51.2442L64.8976 51.3039C64.9807 51.3199 64.9767 51.5667 64.9767 51.6583V51.9808C64.9767 52.0604 65.2219 52.0604 65.3287 52.0724L65.3643 52.7851L65.7083 52.8926C65.7835 52.9165 65.7518 53.1594 65.7558 53.235L65.7677 53.5456C65.7677 53.6252 65.9456 53.6531 66.1354 53.681L66.1789 54.4056L66.4914 54.4693C66.5665 54.4852 66.5428 54.7281 66.5467 54.8078L66.5586 55.1462C66.5586 55.2298 66.8196 55.2258 66.9303 55.2298L66.958 55.9704L67.3258 56.0381L67.3614 56.3685C67.3693 56.4482 67.5868 56.4522 67.6936 56.4681L67.7371 57.1768L68.0693 57.2923C68.1602 57.3241 68.093 57.8935 68.1721 57.9253L68.532 58.0727C68.5399 58.1762 68.4964 58.5664 68.441 58.6779C67.8122 58.873 68.4529 59.5459 67.7727 59.6653L67.6896 60.7284C67.5868 60.7563 67.3653 60.7762 67.3614 60.8518L67.3377 61.2261C67.3377 61.2898 67.3772 61.5327 67.3179 61.5486L66.9461 61.6442L66.9303 62.7431L66.61 62.7909C66.5309 62.8028 66.527 63.0337 66.527 63.1492L66.5349 63.1532Z" fill="#4D6D89"/>
<path d="M64.1662 73.1508L49.5537 73.1548V70.3796H64.1583L64.1662 73.1508Z" fill="#4D6D89"/>
</g>
<defs>
<clipPath id="clip0_85_1336">
<rect width="112" height="71" fill="white" transform="translate(0.5 20.9998)"/>
</clipPath>
</defs>
</svg>
