<svg width="103" height="117" viewBox="0 0 103 117" fill="none" xmlns="http://www.w3.org/2000/svg">
<g clip-path="url(#clip0_85_1398)">
<path d="M51.9224 92.0001L53.0619 91.9923C53.1719 91.9923 53.346 91.8621 53.4515 91.753L56.4366 91.7474C56.5309 91.7474 56.7106 91.6049 56.7959 91.5437L57.8984 91.5336L58.2295 91.3778L59.5026 91.3755L59.6901 91.2163L60.3244 91.1952L60.7555 91.0059C60.9992 91.0794 61.2663 91.0738 61.4774 90.8946L62.0096 90.8924C62.1095 90.8924 62.2936 90.7409 62.3901 90.6986L63.2142 90.6686C63.4522 90.3702 63.7777 90.6819 64.1067 90.3513L64.4121 90.3134C64.6186 90.1431 64.8342 90.1542 65.0733 90.1765C65.2058 90.0908 65.4034 89.9494 65.6099 89.9939C65.7873 90.0318 65.9265 89.9149 66.0612 89.8725C66.2454 89.8147 66.3879 89.7924 66.5384 89.6777L66.9964 89.6566C67.3052 89.3315 67.4994 89.5475 67.9417 89.366C68.1034 89.3003 68.2471 89.2235 68.2471 89.0153V79.0955C68.2471 78.953 68.091 78.805 68.0618 78.707L68.0001 77.8876L67.8238 77.2329L67.6812 76.7442L67.3759 76.0617L67.1659 75.5062L66.7573 74.7302L66.434 74.1958L66.187 73.9286C66.0983 73.6814 65.9759 73.5189 65.7918 73.3441L65.3046 72.8798C65.1912 72.5982 65.0542 72.4078 64.75 72.3488C64.4547 72.0582 64.1729 71.6819 63.835 71.4559L63.2782 71.0829L62.6113 70.7333C62.3531 70.5975 62.1869 70.3971 61.8984 70.2925L61.4235 70.121L60.8375 69.9095L60.2256 69.7102L59.8013 69.6089C59.4802 69.4374 59.1557 69.3127 58.7763 69.4853C58.5035 69.1702 58.1858 69.3005 57.8422 69.3005H49.3583C49.0203 69.2994 48.7655 69.178 48.4601 69.4196H47.727L47.2982 69.6256C46.9412 69.6401 46.4292 69.7302 46.2384 69.9173L45.9409 69.9562L44.7688 70.5474L44.0705 70.9237L43.6372 71.2021L43.3149 71.4436C42.9894 71.5427 42.7996 71.7754 42.5751 72.0025L41.4771 73.1092C41.3368 73.2506 41.265 73.4198 41.1347 73.5801L40.7126 74.1012L40.4117 74.5599L40.0401 75.2535L39.4552 76.4325L39.334 76.85C39.3239 77.1005 39.27 77.3766 39.0993 77.5959C39.1139 77.8241 39.1151 78.0312 38.9601 78.2138L38.9467 79.1011C38.9455 79.2091 38.8501 79.3761 38.7872 79.4696L38.7468 80.8724L38.7491 83.0735V85.3168V87.5067L38.7727 89.0398L39.7067 89.4996C40.0278 89.6577 40.3264 89.7634 40.6599 89.8993L41.2144 90.1253C41.3963 90.1999 41.5928 90.26 41.7488 90.3424C41.988 90.3156 42.2102 90.3346 42.4236 90.4949C42.611 90.5116 42.7873 90.565 42.9332 90.6808C43.1993 90.6675 43.4407 90.6975 43.6484 90.8835L44.1008 90.899C44.3197 91.0371 44.4623 91.0749 44.7273 91.0148C44.8721 90.9814 45.0652 91.1095 45.2347 91.1829L45.823 91.2341C46.0722 91.3188 46.2709 91.4089 46.5392 91.3767C46.7615 91.3488 46.9535 91.4991 47.1545 91.5047L48.5814 91.5448C48.6644 91.547 48.8037 91.6739 48.8778 91.7518L51.2679 91.7429C51.3824 91.7429 51.5564 91.6973 51.6272 91.7552L51.9292 92.0012L51.9224 92.0001Z" fill="#4D6D89"/>
<path d="M74.3701 82.5088L74.6721 82.3518L75.6589 82.3318C75.9564 81.9856 76.4369 82.4053 76.7389 81.9867L77.3923 81.9533L77.737 81.8174C77.9649 81.823 78.1782 81.7495 78.3847 81.6627L78.9943 81.6393C79.2963 81.2864 79.5849 81.5592 79.9037 81.3365L80.3573 81.312C80.5268 81.1561 80.7255 81.106 80.9422 81.0849C81.2116 80.8255 81.4855 81.1205 81.8482 80.7564L82.3051 80.7375L82.8249 80.5405C83.0393 80.4592 83.1325 80.408 83.4334 80.4135C83.4569 80.3044 83.4558 80.1007 83.4569 79.9426L83.4727 78.63V76.3911V74.1455L83.4704 71.9567L83.4311 70.0496C83.1976 69.6566 83.5086 69.3103 83.1325 68.9685L83.1044 68.5299C82.9843 68.3106 82.963 68.1569 82.9562 67.8942L82.6621 67.2162C82.5813 67.0314 82.5801 66.8922 82.4903 66.7419L81.9245 65.7889L81.6629 65.3113C81.4137 65.0519 81.261 64.8348 81.0645 64.5509C80.8849 64.2915 80.5335 64.081 80.3988 63.7893C80.2966 63.5689 80.2282 63.4876 79.9688 63.442L79.5456 63.0189C79.3536 62.8274 79.1639 62.6526 78.9461 62.4934L78.552 62.2062L78.0457 61.8856C77.6876 61.6584 77.28 61.4369 76.8703 61.3089L76.4167 61.1675L76.0328 60.9626C75.7959 60.9092 75.6039 60.8424 75.3884 60.7288C75.1975 60.7411 74.9977 60.7088 74.8192 60.6019L73.9727 60.5963L73.7223 60.3826L64.549 60.3848C64.3357 60.3848 64.393 60.6976 64.3571 60.8079C64.2706 61.0762 64.1673 61.4202 64.2134 61.7052C64.2661 62.0303 64.0842 62.2017 64.0247 62.4868L63.908 63.049C63.8945 63.2594 63.8451 63.422 63.7104 63.5734C63.679 63.894 63.533 64.1723 63.3848 64.4596L63.0177 65.1688C62.9302 65.338 62.8471 65.4727 62.7034 65.6219L62.5866 65.8757L62.3901 66.2309L61.8266 66.8722C61.6963 67.0213 61.629 67.2251 61.4909 67.342C61.3629 67.4489 61.2776 67.5669 61.263 67.6838L62.1095 68.05C62.297 68.1313 62.398 68.1168 62.5507 68.2148L63.1783 68.5099L63.8429 68.8639C64.0057 68.9507 64.1 69.0621 64.2773 69.1411C64.8701 69.4039 64.9251 69.6866 65.4146 69.8893L65.931 70.3736C66.114 70.545 66.4418 70.6396 66.5608 70.8556C66.654 71.0237 66.7203 71.154 66.8471 71.2843L67.7947 72.2584L68.1719 72.8073L68.3279 73.1268C68.4278 73.3317 68.5412 73.4864 68.6917 73.669L68.8836 74.0609L69.2564 74.8202L69.5741 75.4604L69.7683 76.0226L69.9389 76.5392C69.9906 76.695 70.0209 76.8442 70.0972 76.9856C70.1736 77.127 70.1994 77.2561 70.1927 77.4243C70.1848 77.608 70.2364 77.7494 70.2757 77.923C70.3846 78.4162 70.1579 78.8749 70.5194 79.1098L70.525 82.7994C70.9202 82.933 71.4332 82.9285 71.7105 82.6836L73.2081 82.6625L73.4473 82.5033H74.3768L74.3701 82.5088Z" fill="#4D6D89"/>
<path d="M18.5233 73.9285L19.509 73.9831L19.8503 74.1746L22.227 74.1656L22.2315 70.1287C22.5873 69.7847 22.3673 69.3872 22.4683 69.1178C22.5335 68.943 22.6221 68.7382 22.5997 68.5689C22.566 68.3095 22.6805 68.1682 22.7456 67.9588C22.9264 67.3721 23.1172 66.8244 23.4473 66.2855L23.5506 65.868L23.7212 65.5385L23.8997 65.18L24.25 64.6779C24.4611 64.3762 24.6295 64.0989 24.7855 63.756C24.8461 63.6236 25.0359 63.4855 25.1414 63.3831L25.5018 63.0324L25.9026 62.4679L26.4841 61.8767L26.8074 61.712L27.215 61.319L27.7325 60.9137C28.0323 60.6788 28.3567 60.4951 28.7249 60.3381C28.9237 60.1132 29.2021 59.9852 29.5029 59.8939L29.851 59.6991L30.2024 59.5243C30.3663 59.3963 30.4684 59.3729 30.702 59.3462L31.2274 59.1636C31.3767 59.1124 31.5889 59.0522 31.5462 58.8863C31.4777 58.8006 31.3138 58.6403 31.2262 58.5746C30.9242 58.3497 30.7615 58.0747 30.5493 57.7875L30.0912 57.1685C29.8847 56.8902 29.7342 56.6096 29.5804 56.2867L29.1538 55.395L29.0123 54.9485C28.9461 54.7403 28.8967 54.5678 28.771 54.3629L28.7351 53.8786C28.6374 53.7183 28.5711 53.5646 28.5857 53.3832C28.6048 53.1427 28.5139 52.9957 28.4544 52.7653C28.3915 52.5226 28.4353 52.1006 28.4274 51.8379C28.4039 51.7911 28.2646 51.7188 28.2029 51.7188H20.0804C19.6583 52.0895 19.1486 51.6954 18.8275 52.0372L18.3167 52.0539C18.1708 52.2197 18.0181 52.2264 17.8261 52.2865L17.2513 52.4669L16.8427 52.6061C16.4318 52.7464 15.9872 52.9467 15.6246 53.1872L15.0734 53.5535L14.5884 53.8441L13.999 54.4052L13.4455 54.7693L13.1188 55.1233C12.9156 55.3437 12.8325 55.6109 12.5911 55.7924C12.4104 55.9282 12.3183 56.0752 12.2285 56.3023L11.8681 56.7142L11.5044 57.3822L11.1811 57.9823C11.0329 58.2584 10.9386 58.5356 10.8409 58.8318L10.6669 59.3617L10.4727 59.8972C10.3739 60.17 10.2706 60.3849 10.3649 60.6888C10.3065 60.8091 10.1639 60.9193 9.99891 61.0006V71.4647L11.4685 72.1594L12.004 72.3754L12.3296 72.4289C12.5081 72.5424 12.6484 72.5914 12.8516 72.6437L13.3074 72.7629L13.9035 72.9822C14.42 73.1726 14.6074 73.0033 14.8668 73.2883L15.3125 73.3206C15.665 73.531 16.0108 73.2661 16.3857 73.6201L17.056 73.6301L17.3007 73.8205C17.523 73.8417 17.7677 73.8439 17.99 73.806C18.1955 73.7704 18.2999 73.8394 18.5211 73.9207L18.5233 73.9285Z" fill="#4D6D89"/>
<path d="M33.0643 82.6379L34.1825 82.6825C34.2711 82.6858 34.444 82.8205 34.526 82.8751L36.3571 82.8795L36.5052 82.6023L36.5075 80.3745L36.6153 80.1452V78.345L36.8151 78.0032L36.8465 77.3997C36.9453 77.216 36.9869 77.1025 36.9936 76.8809C36.997 76.7651 37.107 76.5859 37.1474 76.4668L37.3315 75.909L37.4842 75.4681L37.8367 74.7478L37.9748 74.3002L38.3487 73.6968L38.5283 73.3962L38.8224 72.9375L39.1222 72.4855C39.3344 72.3296 39.4758 72.1036 39.5735 71.8565L41.3877 70.0807C41.674 69.9716 41.9064 69.7779 42.0624 69.5419C42.3049 69.4506 42.4542 69.2869 42.6833 69.17L43.2042 68.9051C43.3333 68.8394 43.9159 68.3851 44.2617 68.3161C44.493 68.2693 44.5626 68.227 44.7591 68.1357L45.1475 67.9554L45.875 67.6848L45.7751 67.4021C45.4821 67.1415 45.1778 66.8521 44.9544 66.5682L44.4268 65.898L44.1966 65.4337L43.8172 64.6822L43.3804 63.7325L43.175 63.1892L42.9707 62.6682C42.992 62.3487 42.9235 62.0793 42.8438 61.7475C42.6788 61.0617 43.0829 60.3848 42.4307 60.3848H34.4126C34.1679 60.3848 34.0432 60.4482 33.8457 60.5841L33.1283 60.6152L32.4614 60.8201L32.0191 60.9615L31.5139 61.1619L30.5147 61.5437C30.2857 61.6317 30.124 61.8076 29.9163 61.9089L29.3011 62.2084C29.0923 62.4377 28.8678 62.6125 28.5871 62.735L26.8717 64.4384C26.8122 64.7601 26.5012 64.9149 26.3519 65.1598L25.9848 65.7555L25.6334 66.4246L25.4728 66.7474L25.2696 67.0903L25.2393 67.3709L24.9272 67.9309L24.9048 68.423C24.7936 68.5811 24.7038 68.7459 24.7117 68.9251C24.7206 69.1244 24.6544 69.2179 24.5871 69.4027C24.4478 69.7812 24.6993 70.3368 24.3838 70.761V80.1597L24.7734 80.3478L25.5009 80.7019L25.9095 80.919L26.4001 81.0648C26.6382 81.1361 26.7998 81.1672 27.0086 81.2897L27.5161 81.4066C27.6766 81.4433 27.8495 81.5146 27.9842 81.6025C28.0718 81.6604 28.3222 81.627 28.4243 81.6627L29.0204 81.8664C29.0979 81.8931 29.2573 81.9878 29.3348 81.9777C29.5762 81.9477 29.7749 82.0301 29.9624 82.1681L30.8257 82.1971C31.0199 82.5177 31.4342 82.167 31.8922 82.4954L32.7421 82.4988C32.8162 82.4988 32.9846 82.6324 33.0632 82.6357L33.0643 82.6379Z" fill="#4D6D89"/>
<path d="M87.2003 74.4963L87.546 74.3304H88.9932L89.1279 74.179L90.3808 74.1579C90.4897 74.0588 90.6603 73.953 90.8197 73.953H91.2946C91.6977 73.6068 92.0356 74.022 92.3207 73.6491L92.909 73.6279C93.1605 73.2683 93.4299 73.5466 93.7533 73.3206L94.2079 73.3051C94.3415 73.1058 94.5548 73.1347 94.7479 73.0701L95.2318 72.9065L95.8268 72.6983L96.2467 72.5914L96.7687 72.361L97.4468 72.0203C97.6186 71.9346 97.7275 71.8444 97.998 71.8388V61.3335C97.7005 61.2533 97.6365 61.0752 97.6725 60.808C97.6961 60.6287 97.6085 60.4495 97.5793 60.2691L97.5108 59.8427C97.4143 59.6913 97.3985 59.4998 97.3143 59.3239L96.8282 58.3052C96.7519 58.146 96.7631 57.9968 96.6789 57.861L96.3051 57.2631C96.1558 57.0238 96.0783 56.7722 95.8493 56.5762C95.7123 56.4582 95.6315 56.2166 95.5203 56.0997L94.8905 55.4451L93.778 54.3651L93.3884 54.1236L92.7911 53.7439L92.1422 53.3242C91.4226 52.8577 91.1588 52.9245 90.9185 52.7697C90.7041 52.6317 90.4908 52.5671 90.2303 52.5883C90.0911 52.3934 89.8823 52.3244 89.6555 52.4213C89.2076 52.0928 88.8382 52.4547 88.488 52.0528L79.9467 52.0505C79.3731 52.0505 79.7503 52.6495 79.5807 53.1884C79.5302 53.3476 79.4438 53.4789 79.4539 53.6493C79.4831 54.1547 79.2787 54.0913 79.2956 54.393C79.3057 54.5789 79.2518 54.6824 79.1957 54.8227L78.8566 55.6622L78.6489 56.1097L78.4581 56.4426L78.0809 57.1952L77.7845 57.6517C77.6868 57.8031 77.606 57.959 77.4724 58.0892C77.2849 58.2562 77.1558 58.4433 77.0772 58.6592C76.8572 58.8585 76.6405 59.0756 76.4552 59.3183L76.9548 59.4976L77.4331 59.6546C78.0629 59.8616 78.6635 60.1444 79.1878 60.5486C79.5415 60.8213 79.9669 60.7723 80.5182 61.3635L80.8078 61.6741L81.1828 61.8779L82.7186 63.4087C82.7691 63.5378 82.8455 63.6659 82.9409 63.7705L83.2665 64.1301L83.5931 64.669L83.8974 65.1254L84.3745 65.9827L84.6664 66.6385L84.8505 67.1127L85.0223 67.4712L85.1952 68.0858C85.248 68.2728 85.2614 68.4031 85.4231 68.54L85.4556 69.031C85.6813 69.424 85.3771 69.8293 85.7621 70.2913L85.7756 74.4963L87.2003 74.5019V74.4963Z" fill="#4D6D89"/>
<path d="M55.0086 43.6983C55.3162 43.3598 55.7754 43.7673 56.0527 43.3565L56.5433 43.3219L56.9654 43.1817L57.5705 42.9724C57.831 42.8822 58.1487 42.723 58.3968 42.5771L58.8582 42.2487L59.2601 42.0472C59.5329 41.9102 59.7238 41.5584 59.9786 41.387C60.3469 41.1409 60.7611 40.9283 60.9003 40.4462C61.1765 40.1824 61.5189 39.8974 61.7221 39.5489L62.105 38.8965C62.2846 38.5903 62.5013 38.2608 62.618 37.929L62.7718 37.4926C62.8291 37.3311 62.7898 37.1296 62.9526 37.0027L62.9874 36.5184C63.286 36.1866 62.9604 35.8081 63.3264 35.4006L63.332 33.41C62.9324 33.0404 63.3073 32.6507 62.9874 32.2544L62.9436 31.8246L62.7606 31.3325L62.5821 30.9418L62.4103 30.4497C62.362 30.3127 62.2453 30.1056 62.1622 29.981L61.8299 29.4833L61.4785 28.9255L60.9149 28.282C60.7319 28.0727 60.5815 27.8089 60.3199 27.6875C60.1425 27.6051 59.9899 27.4815 59.8821 27.3201C59.68 27.0195 59.387 26.8815 59.1041 26.6911C58.911 26.5608 58.7437 26.455 58.5304 26.3537L58.1319 26.1634L57.328 25.7837L56.8879 25.6523C56.6847 25.5922 56.5455 25.5566 56.3524 25.4809L55.8079 25.2671C55.4139 25.1124 54.8918 25.3005 54.4787 25.1925C54.4012 25.1346 54.2317 24.9955 54.1385 24.9966L53.557 25.0044C53.365 25.4775 52.6914 25.0634 52.2525 25.2682C51.9931 25.3896 51.8752 25.4152 51.5789 25.4542C51.4138 25.4753 51.1455 25.5911 50.9502 25.6468L50.5314 25.7659C50.0543 25.9017 49.6243 26.1578 49.2258 26.445L48.9193 26.6655L48.523 26.9104C48.3209 27.0351 48.139 27.1498 47.9673 27.3257L46.9333 28.3856C46.7873 28.5347 46.7009 28.6283 46.5998 28.8287L46.1991 29.3096L45.8275 29.8596L45.4401 30.5911L45.2773 30.944L45.1157 31.4394L44.9271 32.0083C44.9349 32.2655 44.8709 32.4837 44.7025 32.7086L44.6778 33.793C44.5308 34.1993 44.432 34.5289 44.6913 34.9208L44.7059 36.0965L44.9147 36.4238C44.9046 36.6643 44.9181 36.8379 44.9967 37.0317L45.1887 37.5004L45.3986 38.0871L46.0531 39.3607C46.171 39.5912 46.4079 39.7092 46.5179 39.9508L47.1275 40.6856C47.297 40.8904 47.3453 41.024 47.5878 41.132C47.8101 41.23 48.0178 41.4939 48.1817 41.6898C48.3265 41.8635 48.4837 41.9236 48.6667 42.0349L49.2909 42.4124C49.4267 42.6061 49.6108 42.7274 49.8702 42.6829L50.8952 43.1939C51.3128 43.4021 51.7843 43.2307 52.0504 43.539H52.6252C52.7902 43.5413 52.9429 43.5936 53.0765 43.6927H55.0064L55.0086 43.6983Z" fill="#4D6D89"/>
<path d="M52.8153 68.393L53.0769 68.6101L54.0783 68.619L54.2725 68.4064C54.5812 68.3741 54.9966 68.4654 55.2896 68.364L55.7746 68.1982L56.3281 68.0401L56.7659 67.902C56.959 67.8419 57.2015 67.7072 57.3632 67.5992L57.7572 67.3376L58.2523 67.0425C58.4174 66.9434 58.4915 66.8388 58.698 66.8265L60.4853 65.0229C60.5583 64.8437 60.6706 64.6856 60.775 64.5186C61.0657 64.051 61.3442 63.5522 61.5283 63.0312L61.7225 62.479L61.8752 62.0637L61.9066 61.4648C61.9111 61.3701 62.0458 61.2031 62.1064 61.1207V58.7494C61.9212 58.6336 61.8752 58.5011 61.8954 58.284C61.9044 58.1804 61.8168 57.9789 61.8056 57.8743C61.7652 57.5147 61.5586 56.909 61.4003 56.6017L60.9591 55.7489L60.5931 55.1856L60.2664 54.8471C60.1508 54.6145 60.0329 54.4486 59.86 54.2738L59.4019 53.8095L59.1168 53.5301C58.6172 53.3675 58.4668 52.9612 58.1367 52.7953L57.0017 52.2253C56.8232 52.1351 56.6626 52.075 56.4662 52.0115L55.9363 51.8412C55.714 51.7699 55.4592 51.7053 55.2189 51.7065C55.1235 51.6586 54.9337 51.5216 54.8226 51.5361C54.5846 51.5673 54.2804 51.5339 54.021 51.5305L52.1877 51.5105C52.0687 51.5094 51.8565 51.6552 51.7499 51.6987L51.257 51.7421C51.1257 51.83 51.0448 51.8523 50.9045 51.8991L50.5621 52.0115C50.3802 52.0494 50.2107 52.0716 50.0636 52.1618L49.2216 52.675L48.5638 53.0402C48.328 53.1716 48.1832 53.4711 47.9418 53.5846C47.4781 53.8028 47.1672 54.1936 46.9213 54.6345L46.3701 55.2268L45.4023 57.1283C45.3529 57.2241 45.4203 57.4412 45.2541 57.518L45.2283 58.0034C44.9106 58.4532 45.1553 58.8473 44.9241 59.119L44.9465 60.9582C44.9488 61.1341 45.1026 61.3534 45.0835 61.5572C45.0644 61.7609 45.1441 61.9413 45.2047 62.1172L45.3731 62.5992C45.3911 62.8052 45.4405 62.9845 45.5887 63.1359C45.5943 63.3808 45.7043 63.5912 45.8884 63.7493L46.2499 64.5008C46.4981 65.0174 46.8034 65.0074 46.8438 65.3614L48.127 66.6117L48.5604 66.9212C48.6457 66.9824 48.7434 67.096 48.8208 67.1338L49.2194 67.3309L49.6247 67.5313C49.9794 67.7061 50.3578 67.9666 50.7428 68.0512L51.367 68.1881L51.8475 68.3652C52.1035 68.4598 52.483 68.3841 52.8186 68.3941L52.8153 68.393Z" fill="#4D6D89"/>
<path d="M66.1302 59.2181C66.329 59.2849 66.4839 59.3773 66.6815 59.3918C66.97 59.305 67.1844 59.4163 67.4078 59.5822C67.7581 59.5321 68.1409 59.4809 68.4744 59.5711C68.5518 59.5922 68.6866 59.7069 68.7606 59.7069C68.8347 59.7069 69.1671 59.3751 69.9248 59.5744C70.2179 59.6512 70.3919 59.4775 70.6344 59.4052L71.1407 59.2549L71.6582 59.0801C71.8626 59.011 72.0085 58.9999 72.1814 58.8953C72.6024 58.6403 73.102 58.4956 73.4904 58.2061L74.1696 57.6995L74.9634 56.9414L75.2687 56.6118L75.8301 55.9182L76.0793 55.4952C76.168 55.3449 76.26 55.2825 76.3285 55.1434L76.8101 54.1692L76.8214 53.7662C76.9752 53.5947 77.0122 53.4466 77.0583 53.2184C77.0796 53.1138 77.1627 52.9145 77.1436 52.8076C77.0964 52.5348 77.193 52.3689 77.3434 52.1674L77.3535 50.0387C77.1716 49.9363 77.0874 49.786 77.1514 49.5879C77.2188 49.3785 77.1346 49.2115 77.0762 49.0167C77.0089 48.7952 76.9842 48.5981 76.8225 48.3999L76.8101 47.9947L76.3106 47.0973C76.2353 46.9615 76.1455 46.868 76.0804 46.7344L75.8559 46.2713C75.6145 46.1176 75.4528 45.9283 75.3866 45.6578L74.1057 44.4242C73.9855 44.3096 73.7531 44.2918 73.6566 44.1047C73.6139 44.0212 73.4365 43.9232 73.3512 43.8809L72.8438 43.6304L71.6683 43.1205C71.4988 43.0471 71.3315 43.0103 71.1182 42.9903C70.988 42.8622 70.8219 42.7587 70.6153 42.8032C70.3762 42.6262 70.0888 42.5895 69.798 42.6875L67.6705 42.6719C67.3899 42.6696 67.1328 42.5984 66.8914 42.7943L66.6063 42.83C66.439 43.017 66.2459 42.9791 65.8361 43.1183C65.5274 43.2241 65.2433 43.3376 64.9526 43.4824L64.3733 43.7729L64.0253 43.9622C63.7917 44.0891 63.6155 44.4164 63.3909 44.5311C63.2214 44.618 63.1125 44.6725 62.989 44.7961L62.6085 45.1791L62.1953 45.5509C62.0684 45.8649 61.8989 46.0386 61.6755 46.2891C61.3645 46.6386 61.2893 47.2398 60.9121 47.5872L60.6909 48.224L60.5596 48.6805L60.3339 49.2327L60.3171 49.8551L60.1622 50.0699L60.1577 51.4048L60.4597 51.7488L61.0581 52.3378L61.5969 52.8722C61.8338 53.1071 62.0168 53.3364 62.1998 53.6159C62.2952 53.7617 62.5141 53.9142 62.5759 54.0768C62.806 54.6791 63.0979 54.8617 63.3101 55.3271C63.3427 55.5364 63.3887 55.7156 63.4976 55.9004C63.6065 56.0852 63.6424 56.2778 63.7064 56.4638L63.8973 57.0149C63.9736 57.213 64.0006 57.4246 64.0006 57.6528C64.3127 58.0001 64.1083 58.2963 64.3845 58.4321L65.6565 59.0567L66.1291 59.2159L66.1302 59.2181Z" fill="#4D6D89"/>
<path d="M23.8874 50.8058L24.0906 51.0229L25.367 51.0352C25.5018 51.0363 25.6758 50.8916 25.7948 50.8404L26.5649 50.7847C26.7356 50.7724 26.8422 50.7001 27.042 50.7012C27.1554 50.7012 27.3598 50.562 27.4675 50.5275L28.0087 50.3572C28.3499 50.2503 28.607 49.6892 28.5846 49.2049C28.5756 49.0101 28.6508 48.7918 28.7159 48.6115L28.9146 48.057L29.0819 47.5817L29.2559 47.0439L29.9318 45.7847C30.0261 45.6768 30.1114 45.542 30.199 45.4118L30.4314 45.0667C30.5302 44.8418 30.6604 44.6803 30.8378 44.5044L32.1625 43.1951L32.808 42.7008C33.0169 42.5405 33.1909 42.3067 33.4783 42.2343C33.5322 42.1553 33.4379 41.985 33.3582 41.9048L33.2953 40.905C33.2818 40.6957 33.137 40.571 33.1695 40.3239C33.1808 40.2382 33.0853 40.0734 33.0382 39.9966C33.0023 39.7817 32.9585 39.5835 32.8182 39.4009L32.7811 39.0692L32.5397 38.7129C32.3556 38.4412 32.1996 38.2041 32.0615 37.8957L31.8246 37.5706C31.6506 37.3324 31.5428 37.1164 31.3284 36.9182C31.2116 36.8102 31.0297 36.6365 30.9545 36.5174C30.8344 36.327 30.8052 36.2736 30.6043 36.1834C30.3752 36.0821 30.2001 35.7759 29.9935 35.6401L29.3738 35.2326C28.8978 34.9198 28.3735 34.6459 27.8268 34.4722L27.3946 34.3342C27.17 34.2785 27.0005 34.2741 26.84 34.1015L26.337 34.0803C26.2225 33.9935 26.0844 33.9078 25.9575 33.9133L24.8966 33.9545L23.4226 34.0057C23.2328 34.0124 23.0296 34.1182 22.8107 34.0826L22.5323 34.2652L21.9844 34.4143C21.797 34.4656 21.633 34.5212 21.468 34.6058L20.8562 34.9187C20.5923 35.0534 20.2275 35.148 20.0276 35.3662C19.8503 35.56 19.7234 35.6635 19.4775 35.7503L19.1632 36.071L18.7691 36.4818L18.292 36.9204C18.1719 37.0307 18.1124 37.1231 18.0473 37.2912L17.5757 37.83L16.9639 39.0937L16.8011 39.5201L16.5856 40.1624L16.4553 40.5543C16.4329 40.6234 16.3509 40.7603 16.2993 40.8304V43.9611C16.4621 44.1582 16.6305 44.6625 16.626 44.8818C16.6215 45.1012 16.727 45.2548 16.8 45.443C16.8483 45.5676 16.8629 45.777 16.9358 45.8849L17.2524 46.3481L17.5836 46.9871C17.8654 47.5304 18.1898 47.6585 18.3661 48.0069C18.5424 48.3554 18.8904 48.7117 19.2553 48.803C19.4248 48.9945 19.628 49.2316 19.8424 49.3719L20.3049 49.6736L21.0762 50.0833L21.4624 50.2737L22.0361 50.4518L22.52 50.6054L23.0689 50.7836C23.28 50.8515 23.5876 50.807 23.884 50.8058H23.8874Z" fill="#4D6D89"/>
<path d="M38.4438 59.532C39.0029 59.5209 39.0085 59.8972 39.2836 59.6567C39.4318 59.5275 39.6148 59.5609 39.8 59.5676L40.5163 59.5921C40.6319 59.5966 40.8295 59.4552 40.9362 59.3828L41.4369 59.3505C41.6401 59.2225 41.7804 59.1824 41.9926 59.1223C42.2384 59.0533 42.4809 58.9108 42.7335 58.7783C42.8323 58.628 42.7829 58.2806 42.8413 58.1114C42.9154 57.8954 42.9715 57.7551 42.9491 57.5402L43.1164 57.115C43.1321 56.87 43.1557 56.6774 43.2949 56.4703C43.397 56.3178 43.4172 56.1285 43.4925 55.9716L44.1997 54.4853C44.2424 54.3962 44.3693 54.2637 44.4332 54.188C44.5141 54.001 44.6151 53.7505 44.7992 53.6503C44.9834 53.5501 44.9721 53.3374 45.081 53.2261L46.545 51.7365C46.8492 51.6953 46.9637 51.4548 47.3353 51.1887L47.7227 50.9115L47.7114 49.7091C47.3769 49.4619 47.6037 49.1881 47.4106 48.8363C47.3982 48.627 47.3264 48.4488 47.1961 48.2941C47.1815 48.1248 47.1479 47.9345 47.0681 47.7842L46.3429 46.417C46.1184 46.2723 45.9679 46.0696 45.914 45.8191L44.9328 44.8706C44.7341 44.5967 44.477 44.403 44.1683 44.3039C44.0179 44.0879 43.8293 43.9287 43.5924 43.8508L43.0883 43.5903L42.5225 43.2975L42.0409 43.1193L41.5098 42.9612L40.9485 42.7619L40.5556 42.6428L38.5112 42.6562L37.8297 42.6673C37.7332 42.6684 37.576 42.7297 37.4615 42.7775L36.9799 42.821C36.7913 42.9713 36.6184 42.9668 36.4017 43.0436L35.828 43.2474L34.7323 43.8152L34.2911 44.0846L33.6433 44.6457C33.4547 44.8094 33.2414 44.8739 33.0697 45.0465C32.8496 45.268 32.7295 45.5197 32.5285 45.7535L31.9245 46.4593L31.5563 47.1819L31.023 48.2974L30.9321 48.8296L30.7042 49.3918L30.6683 49.9897C30.5773 50.14 30.4763 50.3136 30.4763 50.4851V51.5684C30.4752 51.7832 30.5661 51.977 30.6683 52.1751L30.7042 52.7708L30.9063 53.2885L31.0432 53.9208C31.0949 54.1591 31.2857 54.4741 31.4002 54.7013L31.5844 55.0698L32.02 55.8636L32.5319 56.4102L32.6632 56.7164L33.521 57.5692C33.8185 57.6594 34.0408 57.8642 34.2541 58.078C34.4337 58.1626 34.5538 58.2951 34.7424 58.3975L35.1825 58.6369L35.6967 58.8996C35.8651 58.9853 35.983 59.0321 36.1873 59.0744L36.6622 59.1746C36.8373 59.2926 36.9765 59.4017 37.219 59.365L37.5536 59.5476L38.4461 59.5298L38.4438 59.532Z" fill="#4D6D89"/>
<path d="M80.8975 50.808C81.0917 51.0218 81.3454 51.0708 81.6227 51.014C81.7934 51.1621 81.9977 51.2311 82.2065 51.1364L83.318 51.1632C83.739 51.1732 84.1847 51.2289 84.6 51.1509C84.7718 51.1186 84.9144 50.9795 85.1255 51.0318C85.286 51.0719 85.4544 50.9015 85.57 50.8637L86.0606 50.7045C86.2504 50.6421 86.4603 50.6143 86.6309 50.5041C87.0329 50.2447 87.5313 50.12 87.8996 49.8405L88.5799 49.324C88.8426 49.1247 89.0806 48.8597 89.3175 48.6159L89.8115 48.1071L90.4053 47.3422C90.5569 47.1463 90.6849 46.8223 90.8084 46.5841L91.1901 45.8459C91.2226 45.6322 91.29 45.503 91.3562 45.3015L91.5235 44.7883C91.5875 44.5912 91.6077 44.4409 91.748 44.2861L91.7458 41.1944C91.5954 41.0586 91.5112 40.8727 91.5157 40.6612C91.4865 40.5743 91.4056 40.3884 91.4202 40.2971C91.455 40.0833 91.3147 39.9308 91.2675 39.7727C91.1755 39.4621 91.07 39.2205 90.8948 38.9377L90.5109 38.3165L90.2235 37.7799C90.0955 37.5405 89.7452 37.3535 89.6453 37.1119C89.4702 36.6899 89.1727 36.5062 88.7966 36.3058C88.5215 36.1589 88.3194 35.7926 88.05 35.6334L87.6436 35.3929L86.9543 35.0489L86.4895 34.8218L86.0696 34.7171L85.414 34.5056L84.9806 34.3286L84.1072 34.2952L83.8961 34.0959L82.5534 34.0925C82.467 34.1805 82.3132 34.2985 82.2144 34.3007L81.4903 34.3208C81.3398 34.4031 81.2017 34.4566 81.0367 34.4766C80.8256 34.6303 80.5955 34.7316 80.3148 34.6559L78.9777 35.325C78.779 35.4241 78.4725 35.5265 78.3333 35.6768C78.0751 35.9551 77.8764 36.1444 77.5441 36.3114L77.0322 36.8046C76.8379 36.9916 76.7268 37.1542 76.5786 37.3924L76.1599 37.8422C76.1015 38.0571 76.0285 38.1317 75.8781 38.3009C75.7568 38.4367 75.6502 38.7073 75.5671 38.8965L75.191 39.7549L75.0024 40.3149L74.8609 40.7636L74.6735 41.1443L74.6757 42.1218C74.6757 42.1909 74.6274 42.3122 74.5769 42.4013C74.7049 42.6217 74.9249 42.7653 75.1652 42.9045L75.8231 43.4623C76.015 43.6248 76.2149 43.6905 76.39 43.8776C76.6134 44.1158 76.9188 44.334 77.0894 44.6112C77.1815 44.7593 77.2354 44.9219 77.3712 45.0399C77.5598 45.2035 77.6788 45.3772 77.8068 45.5854L78.1122 46.0808L78.3244 46.4482C78.5949 46.7544 78.7588 47.1018 78.815 47.517C79.1596 47.9078 79.0159 48.2385 79.291 48.5346L79.3224 48.9955C79.6143 49.4342 79.2696 49.7448 79.6233 50.0743L79.6379 50.4228L80.4428 50.8192L80.9031 50.808H80.8975Z" fill="#4D6D89"/>
<path d="M68.109 40.7256C68.5345 40.4562 69.1957 40.4941 69.6684 40.7568L70.5946 40.7824C70.717 40.8849 70.8315 40.945 71.001 40.9283C71.1705 40.9116 71.3165 40.9995 71.459 41.0429L71.9957 41.2088C72.1787 41.2656 72.3538 41.2823 72.5256 41.397C72.6143 41.456 72.8029 41.4849 72.8702 41.4103C73.2126 41.0296 73.0476 40.582 73.2699 39.9363L73.4641 39.3696L73.5943 38.9811L73.9783 38.0214C74.1063 37.6996 74.3128 37.4714 74.4947 37.1931L74.8315 36.6765C74.9494 36.4961 75.0684 36.3881 75.1897 36.2055L75.5467 35.6689C75.8318 35.3661 76.0844 35.0432 76.4347 34.835C76.5896 34.7426 76.7838 34.6981 76.895 34.54C77.0488 34.3196 77.2542 34.1526 77.5113 34.0557L78.0547 33.6438L77.8459 33.066L77.7302 32.7475C77.7314 32.5293 77.6124 32.3634 77.444 32.2454L77.0634 31.4494C76.9646 31.2412 76.8624 31.0642 76.6761 30.9106C76.5593 30.8148 76.4785 30.6178 76.3797 30.512C75.9924 30.0934 75.6028 29.6859 75.1638 29.3207L74.6575 28.9778L74.1613 28.6616L73.3496 28.2297C73.152 28.125 72.9342 28.0571 72.7175 27.9925L72.2067 27.84C72.0518 27.7932 71.9205 27.6196 71.6869 27.6763C71.5567 27.7086 71.395 27.6363 71.2985 27.5227H68.5323C68.4245 27.6051 68.2123 27.7142 68.109 27.6808C67.8508 27.5973 67.7329 27.8055 67.5825 27.8422L67.0559 27.9714C66.8539 28.0204 66.6877 28.0927 66.5115 28.1818L65.3372 28.7741L64.8454 29.1905C64.5816 29.3296 64.3997 29.4354 64.1898 29.6725L64.4772 30.1891L64.5861 30.5654L64.7354 31.0186L64.942 31.6209C64.9936 31.7712 65.1059 31.9916 65.0677 32.153C64.9992 32.4425 65.2103 32.6741 65.2114 32.9056L65.2238 35.6155C64.7938 36.1432 65.2226 36.21 65.0352 36.456C64.7579 36.8201 65.0756 37.1096 64.7051 37.3812L64.677 37.8677L64.2998 38.735L63.9058 39.5544C63.8137 39.7459 63.7216 39.8907 63.5993 40.0532L63.2771 40.4818C63.1053 40.7112 63.0604 40.9461 63.2995 41.1487C63.5386 41.3513 63.524 41.7866 63.9327 41.9191C64.4076 41.7087 64.8151 41.4204 65.2878 41.2712L65.7054 41.1387L66.3161 40.9617C66.544 40.896 66.7281 40.8949 66.9381 40.808L68.1056 40.7245L68.109 40.7256Z" fill="#4D6D89"/>
<path d="M37.2615 40.7703L38.4314 40.7647C38.5066 40.7647 38.6413 40.6244 38.6941 40.5632L39.8852 40.5576L40.0895 40.7658L41.1358 40.8003C41.3211 40.8059 41.4569 40.9718 41.6916 40.9317C41.86 40.9028 42.0474 40.9763 42.2069 41.0475L42.5167 41.1266C42.6571 41.2045 42.7525 41.2279 42.9243 41.2746C43.3239 41.3837 43.7954 41.8168 43.9593 41.5496C44.1075 41.3091 44.2254 41.1655 44.4219 40.9618L44.7295 40.4007L44.3366 39.6369L43.7112 38.3488L43.4979 37.7053L43.3464 37.2956C43.3879 37.0173 43.3228 36.7645 43.1162 36.563C43.1634 36.3248 43.1432 36.1155 42.9736 35.9451V32.9748L43.1185 32.5818L43.1533 31.8993L43.3385 31.425C43.3497 31.2246 43.3655 30.9964 43.4788 30.8505C43.7741 30.4698 43.7404 30.0478 43.3812 29.7261L42.7379 29.1516L42.2057 28.8198L41.4277 28.4124L40.9158 28.1596C40.7665 28.0862 40.6183 28.0138 40.4521 27.9737L39.9189 27.8435C39.7864 27.8112 39.7067 27.5885 39.4507 27.6787C39.3452 27.7154 39.1252 27.6241 39.0163 27.5239H36.3095C36.0681 27.6609 35.811 27.6932 35.5416 27.6798C35.3878 27.8045 35.2464 27.8602 35.0555 27.9091L34.5368 28.0438C34.4167 28.075 34.2045 28.2008 34.0844 28.2665L33.349 28.6617L32.8674 28.9802L32.3106 29.3509L31.9087 29.6816L30.8904 30.7626L30.6591 31.1189L30.438 31.4796C30.2337 31.8136 30.0305 32.0641 29.9339 32.456C29.8991 32.5985 29.7464 32.82 29.6633 32.9748C29.6734 33.0449 29.7745 33.1819 29.8385 33.2108L30.2415 33.3945L30.6794 33.6706L31.4461 34.244C31.5247 34.293 31.7122 34.3765 31.7784 34.4444L32.8596 35.5666C33.0336 35.747 33.1021 36.0208 33.3367 36.1667C33.7139 36.4005 33.6993 36.7534 33.9575 37.0907C34.1933 37.3969 34.3606 37.6942 34.3864 38.0593L34.6132 38.4312C34.7299 38.6227 34.8355 38.8409 34.8826 39.0558L35.0083 39.6258C35.0611 39.8284 35.133 40.0043 35.2632 40.188L35.271 41.2312C35.5371 41.2935 35.7639 41.2312 35.9705 41.082C36.2309 41.1165 36.4543 41.0542 36.6609 40.915C36.8854 40.9473 37.0639 40.9284 37.2604 40.7669L37.2615 40.7703Z" fill="#4D6D89"/>
<path d="M55.1224 49.2638C55.2885 49.4475 55.4659 49.5154 55.6961 49.4653C55.8678 49.4274 56.0362 49.4875 56.1979 49.5488L56.83 49.7859C57.0129 49.7826 57.1667 49.8371 57.3003 49.9807C57.9391 49.9986 58.1558 50.4806 58.3759 50.2502L58.4028 49.4107C58.7621 48.9821 58.4488 48.6169 58.7418 48.2762L58.7901 47.8532L58.9731 47.321L59.1101 46.8657L59.411 46.191C59.5221 45.9405 59.5805 45.828 59.7186 45.6065L59.9801 45.189C60.0497 45.0788 60.1721 44.9574 60.1777 44.8472L59.8982 44.5678L58.1311 44.5767L57.9414 44.4108L56.4134 44.3818H54.1097H51.8914L50.1164 44.364C49.9783 44.5433 49.8223 44.58 49.6045 44.58H48.1753L47.7218 44.8528L47.8992 45.1378C48.1237 45.4985 48.3493 45.8336 48.5155 46.2355L48.9208 47.213L49.078 47.704C49.1341 47.8788 49.2419 48.1371 49.2587 48.2874C49.2935 48.588 49.3036 48.7739 49.4136 49.0378L49.4563 49.8772C49.582 50.062 49.7931 49.8828 49.9099 49.8483C50.1119 49.7881 50.2927 49.7336 50.497 49.6145L50.936 49.5766C51.2997 49.3517 51.5961 49.6423 51.7993 49.2716L55.1213 49.2671L55.1224 49.2638Z" fill="#4D6D89"/>
</g>
<defs>
<clipPath id="clip0_85_1398">
<rect width="88" height="67" fill="white" transform="matrix(-1 0 0 1 98 25)"/>
</clipPath>
</defs>
</svg>
